<svg xmlns:xlink="http://www.w3.org/1999/xlink" width="140" height="26" viewBox="0 0 140 26" fill="none" xmlns="http://www.w3.org/2000/svg" class="sc-c23fb5be-2 khLRDS"><path d="M23.914 1.137H0v8.29h23.914v-8.29ZM11.16 11.02H0v8.29h2.87v5.739h8.29v-14.03ZM12.754 19.31v5.739h8.29v-5.74h2.87v-8.29h-11.16v8.29ZM47.724 10.412V6.907h-3.576v18.125h3.611v-8.415c0-4.979 1.964-5.925 3.892-6.24.495-.11 1-.168 1.508-.176v-3.4c-2.665 0-4.489 1.017-5.434 3.61ZM59.076 6.906h-3.611v18.126h3.61V6.906ZM59.322 0h-3.787v3.751h3.787V0ZM38.424 19.388V9.782h3.505V6.907h-3.505V1.121L34.883 2.7v4.207h-2.77v2.876h2.77v9.957c0 3.085 1.472 5.329 5.329 5.329h1.754v-2.946h-1.227c-1.579 0-2.315-.98-2.315-2.734ZM133.479 6.451c-2.805 0-4.488 1.683-5.434 3.751V0h-3.576v25.032h3.611v-8.66c0-4.627 2.103-6.836 4.698-6.836 2.489 0 3.646 1.543 3.646 4.558v10.938H140V13.498c0-3.927-1.788-7.047-6.521-7.047ZM65.959 0h-3.611v25.032h3.61V0ZM94.538 6.451c-5.19 0-8.975 3.962-8.975 9.43 0 5.715 3.61 9.607 9.01 9.607 4.172 0 7.257-2.069 8.274-5.82h-3.54c-.631 1.998-2.524 2.875-4.768 2.875-3.05 0-5.224-2.104-5.504-5.575h14.093v-.666c-.036-4.908-2.315-9.85-8.59-9.85Zm-5.47 7.818c.421-2.945 2.384-4.943 5.47-4.943 3.12 0 4.733 2.068 5.013 4.943H89.068ZM114.08 22.544c-3.505 0-5.749-2.874-5.749-6.556 0-3.716 2.244-6.626 5.749-6.626 2.665 0 3.962 1.438 4.629 3.155h3.505c-.737-3.505-3.505-6.064-8.064-6.064-5.539 0-9.396 3.892-9.396 9.536 0 5.61 3.857 9.501 9.396 9.501 4.382 0 7.257-2.244 8.204-6.17h-3.54c-.737 2.103-2.313 3.224-4.734 3.224ZM81.24 19.388V9.782h3.505V6.907H81.24V1.121L77.7 2.7v4.207h-2.77v2.876h2.77v9.957c0 3.085 1.472 5.329 5.328 5.329h1.753v-2.946h-1.226c-1.578 0-2.315-.98-2.315-2.734ZM72.568 6.906h-3.611v18.126h3.611V6.906ZM72.814 0h-3.787v3.751h3.787V0Z" fill="#000000"></path></svg>