<svg version="1.1" id="Calque_1" xmlns="http://www.w3.org/2000/svg" xmlns:xlink="http://www.w3.org/1999/xlink" x="0px" y="0px" viewBox="0 0 836.9 806.4" style="enable-background:new 0 0 836.9 806.4;" xml:space="preserve" width="836.9"  height="806.4" >
<style type="text/css">
	.st0{fill:#F14D5A;}
	.st1{fill:#000000;}
</style>
<g>
	<path class="st0" d="M319.8,510.6c4.3-1.8,8.2-4.5,11.7-7.9l0,0l0.3-0.2l0,0l0.2-0.2l0.1-0.1l0.2-0.2l0.1-0.1l0.5-0.5l0.1-0.1   l0.2-0.2l0.1-0.1l0.2-0.2l0.1-0.1c3.2-3.4,6.1-7.2,8.6-11.4l1.7-0.1c1.5-0.1,2.9-0.4,4.3-0.9c-1,1.9-2.1,3.8-3.3,5.7   c-1.3,2.1,0.8,4.6,3,3.7l29-11.8c3.7-1.5,6.3-4.1,7.8-7.8c1.7-4.3,2.6-9,2.7-13.9v0l0-0.3v0l0-0.3v-0.1v-0.3l0-0.1l0-0.8v-0.2v-0.2   l0-0.1l0-0.2v-0.1c-0.1-4.6-0.8-9.4-2-14.1l1.1-1.3c1-1.1,1.8-2.3,2.4-3.6c0.7,2.1,1.2,4.2,1.7,6.3c0.5,2.4,3.8,2.7,4.8,0.5   l12.2-28.8c1.5-3.7,1.5-7.4,0-11.1c-1.8-4.3-4.5-8.2-7.9-11.7l0,0l-0.2-0.3l0,0l-0.2-0.2L399,397l-0.2-0.2l-0.1-0.1l-0.5-0.5   l-0.1-0.1l-0.2-0.2l-0.1-0.1l-0.2-0.2l-0.1-0.1c-3.4-3.2-7.2-6.1-11.4-8.5l-0.1-1.7c-0.1-1.5-0.4-2.9-0.9-4.2   c1.9,1,3.8,2.1,5.7,3.3c2.1,1.3,4.6-0.8,3.7-3l-11.8-29c-1.5-3.7-4.1-6.3-7.8-7.8c-4.3-1.7-9-2.6-13.9-2.7h0l-0.3,0h0l-0.3,0h-0.1   H360l-0.1,0l-0.8,0h-0.2h-0.2l-0.1,0l-0.2,0h-0.1c-4.6,0.1-9.4,0.8-14.1,2l-1.3-1.1c-1.1-1-2.3-1.8-3.6-2.4   c2.1-0.7,4.2-1.2,6.3-1.7c2.4-0.5,2.7-3.8,0.5-4.8l-28.8-12.2c-3.7-1.5-7.4-1.5-11.1,0c-4.3,1.8-8.2,4.5-11.7,7.9l0,0l-0.3,0.2l0,0   l-0.2,0.2l-0.1,0.1l-0.2,0.2l-0.1,0.1L293,331l-0.1,0.1l-0.2,0.2l-0.1,0.1l-0.2,0.2l-0.1,0.1c-3.2,3.4-6.1,7.2-8.5,11.4l-1.7,0.1   c-1.5,0.1-2.9,0.4-4.3,0.9c1-1.9,2.1-3.8,3.3-5.7c1.3-2.1-0.8-4.6-3-3.7l-29,11.8c-3.7,1.5-6.3,4.1-7.8,7.8   c-1.7,4.3-2.6,9-2.7,13.9v0l0,0.3v0l0,0.3v0.1v0.3l0,0.1l0,0.8v0.2v0.2l0,0.1l0,0.2v0.1c0.1,4.6,0.8,9.4,2,14.1l-1.1,1.3   c-1,1.1-1.8,2.3-2.4,3.6c-0.7-2.1-1.2-4.2-1.7-6.3c-0.5-2.4-3.8-2.7-4.8-0.5l-12.2,28.8c-1.5,3.7-1.5,7.4,0,11.1   c1.8,4.3,4.5,8.2,7.9,11.7l0,0l0.2,0.3l0,0l0.2,0.2l0.1,0.1l0.2,0.2l0.1,0.1l0.5,0.5l0.1,0.1l0.2,0.2l0.1,0.1l0.2,0.2l0.1,0.1   c3.4,3.2,7.2,6.1,11.4,8.5l0.1,1.7c0.1,1.5,0.4,2.9,0.9,4.2c-1.9-1-3.8-2.1-5.7-3.3c-2.1-1.3-4.6,0.8-3.7,3l11.8,29   c1.5,3.7,4.1,6.3,7.8,7.8c4.3,1.7,9,2.6,13.9,2.7h0l0.3,0h0l0.3,0h0.1h0.3l0.1,0l0.8,0h0.2h0.2l0.1,0l0.2,0h0.1   c4.6-0.1,9.4-0.8,14.1-2l1.3,1.1c1.1,1,2.3,1.8,3.6,2.4c-2.1,0.7-4.2,1.2-6.4,1.7c-2.4,0.5-2.7,3.8-0.5,4.8l28.8,12.2   C312.4,512.2,316.1,512.2,319.8,510.6z M358.3,453.6l0,0.3l0,0.2c0,0,0,0.1,0,0.2l0,0.1c-0.1,5.7-0.9,11-2.3,15.6c0,0,0,0.1,0,0.1   l-0.4,1.1c0,0,0,0.1,0,0.1l-0.3,0.7c-0.9,2.4-2,4.5-3.3,6.5c-0.6,1-1.3,1.9-2.1,2.8c-1.4,1.6-3,2.6-5,2.9c-0.5,0.1-0.9,0.2-1.4,0.2   l-9.7,0.5c-2.3,0.1-4.3-1-5.4-3c-1.1-2-1-4.4,0.3-6.4l0.1-0.1c0,0,0.1-0.1,0.1-0.1l0.6-0.9c0,0,0-0.1,0.1-0.1l0.4-0.7   c0,0,0-0.1,0.1-0.1l0.2-0.3c0,0,0.1-0.1,0.1-0.1l0.1-0.2c0,0,0.1-0.1,0.1-0.1l0.2-0.3c2.7-4.7,4.5-9.9,5.7-16.1   c0.1-0.5,0.2-1,0.2-1.4l0.1-0.8c0-0.1,0-0.1,0-0.2c0-0.2,0-0.3,0.1-0.5c0.4-2.9,0.7-6,0.8-9.2c0.1-3.7,2.9-6.7,6.6-6.9l4.9-0.3   c0.1,0,0.2,0,0.3,0c1.4,0,2.7,0.5,3.9,1.5c3.3,3.1,5,9.9,5.1,13.5l0,0.3l0,0.3c0,0,0,0.1,0,0.1L358.3,453.6l2.4,0L358.3,453.6z    M382.2,425.4l0.2,0.4c1.1,2.3,1.8,4.7,2.3,7c0.2,1.1,0.4,2.2,0.5,3.3c0.1,2.1-0.3,3.9-1.4,5.6c-0.3,0.4-0.5,0.8-0.9,1.1l-6.4,7.2   c-1.5,1.7-3.7,2.4-5.9,1.8c-2.2-0.6-3.9-2.4-4.3-4.7l0-0.3c0,0,0-0.1,0-0.1l0-0.2c0,0,0-0.1,0-0.1l-0.1-0.3c0,0,0-0.1,0-0.1   l-0.2-1.1c0,0,0-0.1,0-0.2l-0.2-0.8c0,0,0-0.1,0-0.1l-0.1-0.4c-1.4-5.2-3.8-10.2-7.4-15.4c-0.3-0.4-0.6-0.8-0.8-1.2l-0.5-0.7   c0,0-0.1-0.1-0.1-0.1c-0.1-0.1-0.2-0.3-0.3-0.4c-1.8-2.3-3.8-4.7-6-7.1c-2.5-2.7-2.6-6.8-0.2-9.6c0,0,0.1-0.1,0.1-0.1l3.2-3.6   c0.1-0.1,0.1-0.1,0.2-0.2c1-1,2.2-1.6,3.8-1.6c4.5-0.2,10.6,3.5,13.2,6l0.4,0.4c0,0,0.1,0.1,0.1,0.1l1,1c4,4.1,7.2,8.4,9.4,12.6   c0,0,0.1,0.1,0.1,0.1l0.6,1.3C382.1,425.3,382.1,425.3,382.2,425.4z M349.6,370.9c0,0,0.1,0,0.2,0l0.5,0l0.2,0c0,0,0.1,0,0.1,0   l0.2,0l0.2,0l0.1,0c0,0,0,0,0,0l0.2,0c5.7,0.1,11,0.9,15.6,2.3c0,0,0.1,0,0.1,0l1.1,0.4c0,0,0.1,0,0.1,0l0.8,0.3c0,0,0,0,0,0   c2.4,0.9,4.5,2,6.4,3.3c1,0.6,1.9,1.3,2.8,2.1c1.6,1.4,2.6,3,2.9,5c0.1,0.5,0.2,0.9,0.2,1.4l0.5,9.7c0.1,2.3-1,4.3-3,5.4   c-2,1.1-4.4,1-6.4-0.3l-0.1-0.1c0,0-0.1-0.1-0.2-0.1l-0.2-0.1c0,0-0.1,0-0.1-0.1l-0.3-0.2c0,0,0,0,0,0l-0.2-0.1   c0,0-0.1-0.1-0.1-0.1l-0.6-0.4c0,0-0.1-0.1-0.1-0.1l-0.4-0.2c0,0-0.1,0-0.1,0l-0.2-0.1c0,0-0.1-0.1-0.1-0.1l-0.3-0.2   c-4.7-2.7-9.9-4.5-16.1-5.7c-0.5-0.1-1-0.2-1.4-0.2l-0.8-0.1c-0.1,0-0.1,0-0.2,0c-0.2,0-0.3,0-0.5-0.1c-2.9-0.4-6-0.7-9.2-0.8   c-3.7-0.1-6.7-2.9-6.9-6.6l-0.3-5c0-0.1,0-0.2,0-0.3c0-1.4,0.5-2.7,1.5-3.9c3.1-3.4,9.9-5,13.6-5.1L349.6,370.9z M306.4,358.6   l0.4-0.4c0,0,0.1,0,0.1-0.1l0.5-0.5c0,0,0,0,0.1-0.1l0.5-0.5c4.1-4,8.4-7.2,12.7-9.4l1.3-0.7c0,0,0.1,0,0.1-0.1l0.4-0.2   c2.3-1.1,4.7-1.8,7-2.3c1.1-0.2,2.2-0.4,3.3-0.5c2.1-0.1,3.9,0.3,5.6,1.4c0.4,0.3,0.8,0.5,1.1,0.9l7.2,6.4c1.7,1.5,2.4,3.7,1.8,5.9   c-0.6,2.3-2.4,3.9-4.7,4.3l-0.2,0c0,0-0.1,0-0.1,0l-0.2,0c-0.1,0-0.1,0-0.2,0l-0.2,0c-0.1,0-0.1,0-0.2,0l-1.1,0.3c0,0-0.1,0-0.1,0   l-0.7,0.2c0,0-0.1,0-0.1,0l-0.4,0.1c-5.2,1.4-10.2,3.9-15.3,7.3c0,0-0.1,0-0.1,0.1c-0.4,0.3-0.8,0.6-1.1,0.8l-0.1,0.1   c0,0-0.1,0-0.1,0.1l-0.5,0.4c0,0-0.1,0.1-0.1,0.1c-0.1,0.1-0.3,0.2-0.4,0.3c-2.3,1.8-4.7,3.7-7.1,6c-2.7,2.5-6.8,2.6-9.6,0.2   l-3.7-3.2c0,0,0,0,0,0c-0.1-0.1-0.1-0.1-0.2-0.2c-1-1-1.6-2.2-1.6-3.8C300.2,367.3,303.9,361.3,306.4,358.6z M299.1,379.5l3.8,3.3   c2.2,1.9,5,2.9,7.8,2.9c3,0,5.9-1.1,8.3-3.3c2.2-2.1,4.5-4,6.6-5.6c1.1,0.9,2.3,1.7,3.6,2.2c0,0.5,0,0.9,0,1.4l0.3,5   c0.4,6.1,5.4,10.9,11.6,11.1c3,0.1,5.9,0.3,8.6,0.7c0.1,1.4,0.4,2.8,1,4.1c-0.3,0.3-0.7,0.6-1,1l-3.2,3.7c0,0-0.1,0.1-0.1,0.1   c-4,4.6-3.8,11.5,0.4,16c2.1,2.2,3.9,4.4,5.6,6.6c-0.9,1.1-1.7,2.3-2.2,3.6c-0.5,0-0.9,0-1.4,0l-5,0.3c-6.1,0.4-10.9,5.4-11.1,11.6   c-0.1,3-0.3,5.9-0.7,8.6c-1.4,0.1-2.8,0.4-4.1,1c-0.3-0.3-0.6-0.7-1-1l-3.7-3.2c0,0-0.1,0-0.1-0.1c-4.6-4-11.5-3.8-16,0.4   c-2.2,2.1-4.4,4-6.6,5.6c-1.1-0.9-2.3-1.7-3.6-2.2c0-0.5,0-0.9,0-1.4l-0.3-5c-0.4-6.1-5.4-10.9-11.6-11.1c-3-0.1-5.9-0.3-8.6-0.7   c-0.1-1.4-0.4-2.8-1-4.1c0.3-0.3,0.7-0.6,1-1l3.2-3.7c0,0,0.1-0.1,0.1-0.1c3.9-4.6,3.8-11.5-0.4-16c-2.1-2.2-4-4.4-5.6-6.6   c0.9-1.1,1.7-2.3,2.2-3.6c0.2,0,0.4,0,0.7,0c0.2,0,0.5,0,0.7,0l5-0.3c6.1-0.4,10.9-5.4,11.1-11.6c0.1-3,0.3-5.9,0.7-8.6   c1.4-0.1,2.8-0.4,4.1-1C298.4,378.9,298.7,379.2,299.1,379.5z M267.7,378.7l0-0.3l0-0.2c0,0,0-0.1,0-0.1l0-0.1   c0.1-5.7,0.9-11,2.3-15.6c0,0,0-0.1,0-0.1l0.3-1.1c0,0,0.1-0.1,0.1-0.2l0.3-0.7c0.9-2.4,2-4.5,3.3-6.5c0.6-1,1.3-1.9,2.1-2.8   c1.4-1.6,3-2.6,5-2.9c0.5-0.1,0.9-0.2,1.4-0.2l9.7-0.5c2.3-0.1,4.3,1,5.4,3c1.1,2,1,4.4-0.3,6.4l-0.1,0.1c0,0-0.1,0.1-0.1,0.1   l-0.1,0.2c0,0,0,0.1-0.1,0.1l-0.2,0.3c0,0,0,0,0,0l-0.2,0.3c0,0-0.1,0.1-0.1,0.1l-0.2,0.3c0,0,0,0.1-0.1,0.1l-0.3,0.4   c0,0,0,0.1-0.1,0.1l-0.1,0.1c0,0,0,0.1-0.1,0.1l-0.1,0.2c0,0,0,0.1-0.1,0.1l-0.2,0.3c-2.7,4.7-4.5,9.9-5.7,16.1   c-0.1,0.5-0.2,1-0.2,1.4l-0.1,0.8c0,0.1,0,0.1,0,0.2c0,0.2,0,0.3-0.1,0.5c-0.4,2.9-0.7,6-0.8,9.2c-0.1,3.7-2.9,6.7-6.6,6.9l-5,0.3   c-0.1,0-0.2,0-0.3,0c-1.4,0-2.7-0.5-3.9-1.5c-3.3-3.1-5-9.9-5.1-13.6l0-0.6c0,0,0-0.1,0-0.1L267.7,378.7l-2.4,0L267.7,378.7z    M243.8,407l-0.1-0.2c0,0,0,0,0-0.1l-0.1-0.2c0,0,0,0,0-0.1c-1-2.3-1.8-4.6-2.3-6.9c-0.2-1.1-0.4-2.2-0.5-3.3   c-0.1-2.1,0.3-3.9,1.4-5.6c0.3-0.4,0.5-0.8,0.9-1.1l6.4-7.2c1.5-1.7,3.7-2.4,5.9-1.8c2.3,0.6,3.9,2.4,4.3,4.7l0,0.3   c0,0,0,0.1,0,0.1l0,0.3c0,0,0,0.1,0,0.1l0.1,0.3c0,0,0,0.1,0,0.1l0.2,1.1c0,0,0,0.1,0,0.1l0.2,0.7c0,0.1,0,0.1,0,0.2l0.1,0.3   c1.4,5.2,3.8,10.2,7.3,15.3c0,0,0,0.1,0.1,0.1c0.3,0.4,0.5,0.8,0.8,1.1l0.5,0.7c0,0,0.1,0.1,0.1,0.1c0.1,0.1,0.2,0.3,0.3,0.4   c1.7,2.3,3.7,4.7,6,7.1c2.5,2.7,2.6,6.8,0.2,9.6c0,0-0.1,0.1-0.1,0.1l-3.1,3.6c-0.1,0.1-0.1,0.1-0.2,0.2c-1,1-2.2,1.6-3.8,1.6   c-4.6,0.2-10.6-3.5-13.2-6l-0.4-0.4c0,0,0,0-0.1-0.1l-1-1c-4-4.1-7.2-8.4-9.4-12.7c0,0,0-0.1,0-0.1l-0.2-0.4c0,0,0,0,0-0.1   l-0.4-0.9C243.8,407.1,243.8,407,243.8,407z M276.3,461.5c0,0-0.1,0-0.1,0l-0.2,0c0,0-0.1,0-0.1,0l-0.1,0l-0.2,0l-0.3,0l-0.2,0   l-0.1,0c0,0,0,0,0,0l-0.2,0c-5.7-0.1-11-0.9-15.6-2.3c0,0-0.1,0-0.1,0l-1.1-0.4c0,0-0.1,0-0.1,0l-0.7-0.3c-2.4-0.9-4.5-2-6.5-3.3   c-1-0.6-1.9-1.3-2.8-2c-1.6-1.4-2.6-3-2.9-5c-0.1-0.5-0.2-0.9-0.2-1.4l-0.5-9.7c-0.1-2.3,1-4.3,3-5.4c2-1.1,4.4-1,6.4,0.3l0.1,0.1   c0.1,0,0.1,0.1,0.2,0.1l0.3,0.2c0,0,0.1,0,0.1,0.1l0.1,0.1c0,0,0,0,0,0l0.3,0.2c0,0,0.1,0.1,0.1,0.1l0.6,0.3c0,0,0.1,0.1,0.1,0.1   l0.4,0.2c0,0,0.1,0,0.1,0l0.2,0.1c0,0,0.1,0,0.1,0.1l0.3,0.2c4.7,2.7,9.9,4.5,16.1,5.7c0.5,0.1,1,0.2,1.4,0.2l0.8,0.1   c0,0,0.1,0,0.1,0c0.2,0,0.3,0,0.5,0.1c2.9,0.4,6,0.7,9.2,0.8c3.7,0.1,6.7,2.9,6.9,6.6l0.3,5c0,0.1,0,0.2,0,0.3   c0,1.4-0.5,2.7-1.5,3.9c-3.1,3.4-9.9,5-13.6,5.1L276.3,461.5z M305.3,484.6c0,0-0.1,0-0.1,0.1l-1.3,0.6c0,0-0.1,0-0.1,0.1l-0.2,0.1   c0,0,0,0,0,0l-0.2,0.1c-2.3,1.1-4.7,1.8-7,2.3c-1.1,0.2-2.2,0.4-3.3,0.5c-2.1,0.1-3.9-0.3-5.6-1.4c-0.4-0.3-0.8-0.5-1.1-0.9   l-7.2-6.4c-1.7-1.5-2.4-3.7-1.8-5.9c0.6-2.3,2.4-3.9,4.8-4.3l0.1,0c0.1,0,0.1,0,0.2,0l0.2,0c0,0,0.1,0,0.1,0l0.3-0.1   c0,0,0.1,0,0.1,0l1.1-0.3c0,0,0.1,0,0.1,0l0.8-0.2c0,0,0.1,0,0.1,0l0.4-0.1c5.2-1.4,10.2-3.8,15.4-7.4c0.4-0.3,0.8-0.6,1.2-0.8   l0.6-0.5c0.1,0,0.1-0.1,0.2-0.1c0.1-0.1,0.3-0.2,0.4-0.3c2.3-1.8,4.7-3.8,7.1-6c2.7-2.5,6.8-2.6,9.6-0.2c0,0,0.1,0,0.1,0.1l3.6,3.2   c0,0,0,0,0,0c0.1,0.1,0.1,0.1,0.2,0.2c1,1,1.6,2.2,1.6,3.8c0.2,4.5-3.5,10.6-6,13.2l-0.4,0.4c0,0,0,0-0.1,0.1l-1,1   C313.9,479.2,309.6,482.4,305.3,484.6z"/>
	<g>
		<polygon class="st1" points="54.5,624.4 102,624.4 102,744.8 136.3,744.8 136.3,624.4 183.8,624.4 183.8,596.5 54.5,596.5   "/>
		<polygon class="st1" points="289.7,650.7 289.7,630.8 210.1,630.8 191.4,656.2 248,656.2 189.9,724.9 189.9,744.8 272.9,744.8     291.6,719.4 231.7,719.4   "/>
		<path class="st1" d="M356.7,639.6c0-9.2,7.8-16.8,27.9-16.8c13,0,27,3.8,40.7,11.5l10.5-25.8c-13.6-8.6-32.5-13-50.9-13    c-41.7,0-61.8,20.7-61.8,45.7c0,54.5,85.3,35.6,85.3,63.1c0,9-8.2,15.7-28.3,15.7c-17.6,0-36-6.3-48.4-15.3L320,730.3    c13,10.1,36.5,17,59.7,17c41.9,0,62.2-21,62.2-45.5C442,648,356.7,666.6,356.7,639.6z"/>
		<path class="st1" d="M508.4,630.4c-18,0-36.3,4.8-48.6,13.6l11.7,22.8c8.2-6.5,20.5-10.5,32.5-10.5c17.6,0,26,8.2,26,22.2h-26    c-34.4,0-48.4,13.8-48.4,33.7c0,19.5,15.7,34.2,42.1,34.2c16.6,0,28.3-5.4,34.4-15.7v14h30.6v-64.3    C562.7,646.3,542.8,630.4,508.4,630.4z M530,709.2c-3.8,10.3-13.2,15.3-24.1,15.3c-11.5,0-18.4-5.4-18.4-13.6    c0-7.5,4.8-13.2,20.1-13.2H530V709.2z"/>
		<path class="st1" d="M628.1,629.7c0-11.1,5.2-16.3,14.9-16.3c5,0,9.6,1.5,13.2,4l8.6-23.7c-6.1-4.2-15.7-6.1-24.9-6.1    c-28.1,0-43.6,16.6-43.6,41.9v5h-17.4v25.1h17.4v85.1H629v-85.1H657v-25.1h-28.9V629.7z"/>
		<path class="st1" d="M782.4,688.8c0-36.3-25.6-58.5-58.7-58.5c-34.4,0-60.1,24.3-60.1,58.1c0,33.5,25.4,58.1,64.3,58.1    c20.3,0,36-6.3,46.5-18.2L757,709.4c-7.8,7.3-16.3,10.9-28.3,10.9c-17.2,0-29.1-8.6-32.3-22.6h85.3    C782,694.9,782.4,691.4,782.4,688.8z M696,678.6c2.3-14.5,13-23.5,27.9-23.5c14.7,0,25.4,9.2,27.7,23.5H696z"/>
		<path class="st1" d="M461.6,431.4h178v36.2c0,8.4,6.8,15.2,15.2,15.2c8.4,0,15.2-6.8,15.2-15.2v-51.4c0-8.4-6.8-15.2-15.2-15.2    H461.3c-3.3-29.5-15.4-56.4-33.5-78.1l54.9-54.9l41.1,41.1c3,3,6.9,4.5,10.8,4.5c3.9,0,7.8-1.5,10.8-4.5c5.9-5.9,5.9-15.6,0-21.5    l-41.1-41.1l50.5-50.5l41.1,41.1c5.9,5.9,15.6,5.9,21.5,0c5.9-5.9,5.9-15.6,0-21.5l-51.8-51.8c-5.9-5.9-15.6-5.9-21.5,0l-72,72    c0,0,0,0,0,0s0,0,0,0L406,301.6c-21.8-17.2-48.6-28.4-77.8-31.1v-67.9h16c8.4,0,15.2-6.8,15.2-15.2s-6.8-15.2-15.2-15.2h-16V145    H355c8.4,0,15.2-6.8,15.2-15.2s-6.8-15.2-15.2-15.2h-26.8V89.5h58.1c8.4,0,15.2-6.8,15.2-15.2c0-8.4-6.8-15.2-15.2-15.2H313    c-8.4,0-15.2,6.8-15.2,15.2v196.6c-73.6,8.4-130.9,71-130.9,146.7c0,81.4,66.3,147.7,147.7,147.7    C391.4,565.3,454.6,506.4,461.6,431.4z M314.6,534.9c-64.7,0-117.3-52.6-117.3-117.3c0-64.7,52.6-117.3,117.3-117.3    c64,0,116.2,51.6,117.3,115.3c0,0.2,0,0.4,0,0.5c0,0.3,0,0.6,0,0.9c0,0.2,0,0.4,0,0.5C431.8,482.3,379.2,534.9,314.6,534.9z"/>
	</g>
</g>
</svg>