<svg xmlns:xlink="http://www.w3.org/1999/xlink" xmlns="http://www.w3.org/2000/svg" width="336" height="58" viewBox="18 28 336 58" fill="none">
<g clip-path="url(#clip0_1_23)">
<path d="M18.8359 79.0664C18.8359 77.2435 19.487 75.7135 20.7891 74.4766C22.026 73.1745 23.556 72.5234 25.3789 72.5234H52.832C54.069 72.4583 55.0781 72.1654 55.8594 71.6445C56.7057 71.1237 57.3242 70.5378 57.7148 69.8867C58.1055 69.2357 58.3008 68.5521 58.3008 67.8359C58.3008 67.1198 58.1055 66.4362 57.7148 65.7852C57.3242 65.1341 56.7057 64.5482 55.8594 64.0273C55.0781 63.5065 54.069 63.2135 52.832 63.1484H25.5742C23.7513 63.1484 22.2214 62.4974 20.9844 61.1953C19.6823 59.9583 19.0312 58.4284 19.0312 56.6055C19.0312 54.7826 19.6497 53.2526 20.8867 52.0156C22.1888 50.7135 23.7513 50.0625 25.5742 50.0625H52.2461C52.3112 50.0625 52.3763 50.0625 52.4414 50.0625C53.6784 49.9974 54.6875 49.737 55.4688 49.2812C56.3151 48.7604 56.9336 48.1745 57.3242 47.5234C57.7148 46.8724 57.9102 46.1888 57.9102 45.4727C57.9102 44.8216 57.7148 44.1706 57.3242 43.5195C56.9336 42.8685 56.3151 42.3151 55.4688 41.8594C54.6875 41.3385 53.6784 41.0456 52.4414 40.9805H25.1836C23.3607 40.9805 21.8307 40.3294 20.5938 39.0273C19.2917 37.8555 18.6406 36.3581 18.6406 34.5352C18.6406 32.7773 19.2591 31.2799 20.4961 30.043C21.7982 28.806 23.3607 28.1875 25.1836 28.1875H51.8555C56.4128 28.2526 60.1562 29.2617 63.0859 31.2148C66.0807 33.1029 68.1966 35.3164 69.4336 37.8555C70.7357 40.3945 71.3867 42.9336 71.3867 45.4727C71.3867 48.0117 70.7357 50.5182 69.4336 52.9922C68.8477 54.1641 68.099 55.2383 67.1875 56.2148C68.2943 57.3867 69.2057 58.6237 69.9219 59.9258C71.1589 62.5299 71.7773 65.1667 71.7773 67.8359C71.7773 70.375 71.1263 72.9466 69.8242 75.5508C68.5221 78.0898 66.4062 80.3685 63.4766 82.3867C60.5469 84.3398 56.8034 85.3815 52.2461 85.5117H51.6602C51.2695 85.5768 50.8789 85.6094 50.4883 85.6094H25.3789C23.556 85.6094 21.9935 84.9909 20.6914 83.7539C19.4544 82.4518 18.8359 80.8893 18.8359 79.0664Z" fill="#575757" fill-opacity="0.16"/>
</g>
<g clip-path="url(#clip1_1_23)">
<path d="M32.8359 79.0664C32.8359 77.2435 33.487 75.7135 34.7891 74.4766C36.026 73.1745 37.556 72.5234 39.3789 72.5234H70.832C72.069 72.4583 73.0781 72.1654 73.8594 71.6445C74.7057 71.1237 75.3242 70.5378 75.7148 69.8867C76.1055 69.2357 76.3008 68.5521 76.3008 67.8359C76.3008 67.1198 76.1055 66.4362 75.7148 65.7852C75.3242 65.1341 74.7057 64.5482 73.8594 64.0273C73.0781 63.5065 72.069 63.2135 70.832 63.1484H39.5742C37.7513 63.1484 36.2214 62.4974 34.9844 61.1953C33.6823 59.9583 33.0312 58.4284 33.0312 56.6055C33.0312 54.7826 33.6497 53.2526 34.8867 52.0156C36.1888 50.7135 37.7513 50.0625 39.5742 50.0625H70.2461C70.3112 50.0625 70.3763 50.0625 70.4414 50.0625C71.6784 49.9974 72.6875 49.737 73.4688 49.2812C74.3151 48.7604 74.9336 48.1745 75.3242 47.5234C75.7148 46.8724 75.9102 46.1888 75.9102 45.4727C75.9102 44.8216 75.7148 44.1706 75.3242 43.5195C74.9336 42.8685 74.3151 42.3151 73.4688 41.8594C72.6875 41.3385 71.6784 41.0456 70.4414 40.9805H39.1836C37.3607 40.9805 35.8307 40.3294 34.5938 39.0273C33.2917 37.8555 32.6406 36.3581 32.6406 34.5352C32.6406 32.7773 33.2591 31.2799 34.4961 30.043C35.7982 28.806 37.3607 28.1875 39.1836 28.1875H69.8555C74.4128 28.2526 78.1562 29.2617 81.0859 31.2148C84.0807 33.1029 86.1966 35.3164 87.4336 37.8555C88.7357 40.3945 89.3867 42.9336 89.3867 45.4727C89.3867 48.0117 88.7357 50.5182 87.4336 52.9922C86.8477 54.1641 86.099 55.2383 85.1875 56.2148C86.2943 57.3867 87.2057 58.6237 87.9219 59.9258C89.1589 62.5299 89.7773 65.1667 89.7773 67.8359C89.7773 70.375 89.1263 72.9466 87.8242 75.5508C86.5221 78.0898 84.4062 80.3685 81.4766 82.3867C78.5469 84.3398 74.8034 85.3815 70.2461 85.5117H69.6602C69.2695 85.5768 68.8789 85.6094 68.4883 85.6094H39.3789C37.556 85.6094 35.9935 84.9909 34.6914 83.7539C33.4544 82.4518 32.8359 80.8893 32.8359 79.0664Z" fill="#A4A4A4"/>
</g>
<path d="M47.8359 79.0664C47.8359 77.2435 48.487 75.7135 49.7891 74.4766C51.026 73.1745 52.556 72.5234 54.3789 72.5234H81.832C83.069 72.4583 84.0781 72.1654 84.8594 71.6445C85.7057 71.1237 86.3242 70.5378 86.7148 69.8867C87.1055 69.2357 87.3008 68.5521 87.3008 67.8359C87.3008 67.1198 87.1055 66.4362 86.7148 65.7852C86.3242 65.1341 85.7057 64.5482 84.8594 64.0273C84.0781 63.5065 83.069 63.2135 81.832 63.1484H54.5742C52.7513 63.1484 51.2214 62.4974 49.9844 61.1953C48.6823 59.9583 48.0312 58.4284 48.0312 56.6055C48.0312 54.7826 48.6497 53.2526 49.8867 52.0156C51.1888 50.7135 52.7513 50.0625 54.5742 50.0625H81.2461C81.3112 50.0625 81.3763 50.0625 81.4414 50.0625C82.6784 49.9974 83.6875 49.737 84.4688 49.2812C85.3151 48.7604 85.9336 48.1745 86.3242 47.5234C86.7148 46.8724 86.9102 46.1888 86.9102 45.4727C86.9102 44.8216 86.7148 44.1706 86.3242 43.5195C85.9336 42.8685 85.3151 42.3151 84.4688 41.8594C83.6875 41.3385 82.6784 41.0456 81.4414 40.9805H54.1836C52.3607 40.9805 50.8307 40.3294 49.5938 39.0273C48.2917 37.8555 47.6406 36.3581 47.6406 34.5352C47.6406 32.7773 48.2591 31.2799 49.4961 30.043C50.7982 28.806 52.3607 28.1875 54.1836 28.1875H80.8555C85.4128 28.2526 89.1562 29.2617 92.0859 31.2148C95.0807 33.1029 97.1966 35.3164 98.4336 37.8555C99.7357 40.3945 100.387 42.9336 100.387 45.4727C100.387 48.0117 99.7357 50.5182 98.4336 52.9922C97.8477 54.1641 97.099 55.2383 96.1875 56.2148C97.2943 57.3867 98.2057 58.6237 98.9219 59.9258C100.159 62.5299 100.777 65.1667 100.777 67.8359C100.777 70.375 100.126 72.9466 98.8242 75.5508C97.5221 78.0898 95.4062 80.3685 92.4766 82.3867C89.5469 84.3398 85.8034 85.3815 81.2461 85.5117H80.6602C80.2695 85.5768 79.8789 85.6094 79.4883 85.6094H54.3789C52.556 85.6094 50.9935 84.9909 49.6914 83.7539C48.4544 82.4518 47.8359 80.8893 47.8359 79.0664Z" fill="#334155"/>
<path d="M150.36 85H166.52L154.76 66.52C161.32 63.24 164.92 57.08 164.92 48.52C164.92 36.04 156.44 29 141.64 29H118.6C117.496 29 116.6 29.8954 116.6 31V85H130.84V69.24H141.64H142.04L150.36 85ZM130.84 58.04V40.2H141.64C147.8 40.2 151.4 43.16 151.4 49C151.4 54.92 147.8 58.04 141.64 58.04H130.84Z" fill="#334155"/>
<path d="M194.411 41.4C180.251 41.4 170.811 50.12 170.811 63.4C170.811 76.68 180.251 85.48 194.411 85.48C208.491 85.48 217.931 76.68 217.931 63.4C217.931 50.12 208.491 41.4 194.411 41.4ZM194.411 52.36C200.091 52.36 204.011 56.92 204.011 63.56C204.011 70.28 200.091 74.76 194.411 74.76C188.651 74.76 184.731 70.28 184.731 63.56C184.731 56.92 188.651 52.36 194.411 52.36Z" fill="#334155"/>
<path d="M267.348 41.88H253.508V63.16C253.508 69 250.388 73.32 245.108 73.4C240.708 73.4 237.908 70.28 237.908 65.16V41.88H224.068V69.08C224.068 79.16 230.148 85.56 239.508 85.56C245.748 85.56 250.548 83 253.508 77.88V85H267.348V41.88Z" fill="#334155"/>
<path d="M303.515 73.08C301.435 73.96 299.595 74.52 298.155 74.52C295.595 74.6 294.155 73.16 294.155 69.8V52.92H305.435V43.8H294.155V31.88H280.395V43.88H274.395V52.92H280.395V71.96C280.395 80.92 286.395 85.64 294.715 85.64C298.875 85.64 303.115 84.52 306.235 82.68L303.515 73.08Z" fill="#334155"/>
<path d="M331.806 41.4C318.446 41.4 309.326 50.2 309.326 63.56C309.326 76.68 318.126 85.48 332.206 85.48C340.126 85.48 346.606 82.68 351.006 77.88L343.726 70.76C340.846 73.64 337.166 75.16 333.406 75.16C328.286 75.16 324.606 72.28 323.246 67.16H353.566C354.526 51.4 347.006 41.4 331.806 41.4ZM323.006 59.72C323.886 54.52 327.166 51 331.966 51C336.926 51 340.286 54.44 340.286 59.72H323.006Z" fill="#334155"/>
<defs>
<clipPath id="clip0_1_23">
<rect width="48" height="100" fill="white"/>
</clipPath>
<clipPath id="clip1_1_23">
<rect width="54" height="100" fill="white" transform="translate(14)"/>
</clipPath>
</defs>
<script xmlns=""/></svg>