<svg width="96" height="96" viewBox="0 0 96 96" fill="none" xmlns="http://www.w3.org/2000/svg">
<path d="M33.605 42.5423H8.93726C6.56723 42.5423 4.29404 41.601 2.61704 39.9253C0.941265 38.2484 0 35.9751 0 33.605V8.93727C0 6.56724 0.941265 4.29404 2.61704 2.61704C4.2939 0.941265 6.56718 0 8.93726 0H33.605C35.9751 0 38.2483 0.941265 39.9253 2.61704C41.601 4.2939 42.5423 6.56718 42.5423 8.93727V33.605C42.5336 35.9729 41.5891 38.2408 39.9155 39.9152C38.2408 41.5888 35.9731 42.5334 33.6053 42.5421L33.605 42.5423ZM8.93726 4.87667C7.85997 4.87667 6.82622 5.30433 6.06464 6.06603C5.30305 6.82773 4.87528 7.86151 4.87528 8.93866V33.6064C4.87528 34.6837 5.30294 35.7175 6.06464 36.4791C6.82633 37.2407 7.86011 37.6684 8.93726 37.6684H33.605C34.6823 37.6684 35.7161 37.2408 36.4777 36.4791C37.2393 35.7174 37.667 34.6836 37.667 33.6064V8.93866C37.667 7.86137 37.2394 6.82762 36.4777 6.06603C35.716 5.30444 34.6822 4.87667 33.605 4.87667H8.93726Z" fill="black"/>
<path d="M86.9378 42.5421H62.2701C59.9022 42.5334 57.6343 41.5888 55.9599 39.9152C54.2862 38.2406 53.3417 35.9729 53.333 33.605V8.93727C53.333 6.56724 54.2743 4.29404 55.95 2.61704C57.6269 0.941265 59.9002 0 62.2703 0H86.9381C89.3081 0 91.5813 0.941265 93.2583 2.61704C94.9341 4.2939 95.8753 6.56718 95.8753 8.93727V33.605C95.8753 35.9751 94.9341 38.2483 93.2583 39.9253C91.5814 41.6011 89.3082 42.5423 86.9381 42.5423L86.9378 42.5421ZM62.2701 4.87645C61.1928 4.87645 60.159 5.30411 59.3974 6.06581C58.6358 6.82751 58.2081 7.86128 58.2081 8.93844V33.6062C58.2081 34.6835 58.6357 35.7173 59.3974 36.4789C60.1591 37.2404 61.1929 37.6682 62.2701 37.6682H86.9378C88.0151 37.6682 89.0489 37.2405 89.8105 36.4789C90.5721 35.7172 90.9998 34.6834 90.9998 33.6062V8.93844C90.9998 7.86115 90.5722 6.8274 89.8105 6.06581C89.0488 5.30422 88.015 4.87645 86.9378 4.87645H62.2701Z" fill="black"/>
<path d="M86.9371 95.878H62.2693C59.8993 95.878 57.6261 94.9368 55.9491 93.261C54.2733 91.5841 53.332 89.3109 53.332 86.9408V62.273C53.3407 59.9051 54.2853 57.6373 55.9589 55.9628C57.6336 54.2892 59.9012 53.3447 62.2691 53.3359H86.9369C89.3069 53.3359 91.5801 54.2772 93.2571 55.953C94.9329 57.6298 95.8741 59.9031 95.8741 62.2732V86.941C95.8741 89.311 94.9329 91.5842 93.2571 93.2612C91.5802 94.937 89.3069 95.8783 86.9369 95.8783L86.9371 95.878ZM62.2693 58.2124C61.192 58.2124 60.1583 58.64 59.3967 59.4017C58.6351 60.1634 58.2073 61.1972 58.2073 62.2744V86.9422C58.2073 88.0195 58.635 89.0532 59.3967 89.8148C60.1584 90.5764 61.1922 91.0042 62.2693 91.0042H86.9371C88.0144 91.0042 89.0481 90.5765 89.8097 89.8148C90.5713 89.0531 90.9991 88.0193 90.9991 86.9422V62.2744C90.9991 61.1971 90.5714 60.1633 89.8097 59.4017C89.048 58.6402 88.0142 58.2124 86.9371 58.2124H62.2693Z" fill="black"/>
<path d="M33.605 95.8782H8.93726C6.56723 95.8782 4.29404 94.937 2.61704 93.2612C0.941265 91.5843 0 89.3111 0 86.941V62.2732C0 59.9032 0.941265 57.63 2.61704 55.953C4.2939 54.2772 6.56718 53.3359 8.93726 53.3359H33.605C35.9729 53.3446 38.2407 54.2892 39.9152 55.9628C41.5888 57.6375 42.5334 59.9051 42.5421 62.273V86.9408C42.5421 89.3108 41.6008 91.584 39.9251 93.261C38.2482 94.9368 35.9749 95.878 33.6048 95.878L33.605 95.8782ZM8.93726 58.2126C7.85997 58.2126 6.82622 58.6403 6.06464 59.402C5.30305 60.1637 4.87528 61.1974 4.87528 62.2746V86.9424C4.87528 88.0197 5.30294 89.0534 6.06464 89.815C6.82633 90.5766 7.86011 91.0044 8.93726 91.0044H33.605C34.6823 91.0044 35.7161 90.5767 36.4777 89.815C37.2393 89.0533 37.667 88.0195 37.667 86.9424V62.2746C37.667 61.1973 37.2394 60.1636 36.4777 59.402C35.716 58.6404 34.6822 58.2126 33.605 58.2126H8.93726Z" fill="black"/>
</svg>
