<svg xmlns:xlink="http://www.w3.org/1999/xlink" width="42" height="50" viewBox="0 0 42 50" fill="none" xmlns="http://www.w3.org/2000/svg" data-v-e2241ea0=""><g clip-path="url(#clip0_586_3073)" data-v-e2241ea0="" fill="none"><path d="M16.9845 0.0142492C11.5759 0.132733 8.98056 0.327045 6.29065 0.814012C4.75424 1.09719 3.98364 1.38747 2.94022 2.07823C1.5809 2.987 0.624839 4.21093 0.273044 5.487C0.157783 5.97241 0.0778062 6.46538 0.0337277 6.96212C-0.0990928 8.50951 0.143811 11.1766 0.599708 13.1754C0.958683 14.7453 1.71013 16.8306 2.12056 17.3685C2.20911 17.487 2.22347 17.8626 2.18757 19.7299C2.15048 22.1138 2.20911 22.8484 2.47355 23.2915C2.62791 23.5533 2.60637 23.3353 2.90791 27.6955C3.18671 31.7939 3.72398 36.91 4.00996 38.269C4.72791 41.6268 5.89937 43.1458 9.04518 44.7856C9.73561 45.141 9.97133 45.3164 10.6689 45.9775C11.5293 46.7986 12.9424 47.8022 13.7561 48.1576C14.1258 48.3057 14.5067 48.4246 14.8953 48.5131C15.277 48.6067 15.6527 48.7382 15.7329 48.8105C15.9898 49.0204 16.3055 49.1473 16.6375 49.1742C16.7571 49.1742 17.2035 49.327 17.6366 49.5083C18.643 49.9372 19.1503 50.032 19.7606 49.9076C20.0698 49.8353 20.3918 49.8353 20.7011 49.9076C21.2103 49.9756 21.7237 50.0073 22.2375 50.0024C23.1266 50.0095 23.3994 49.9811 23.8768 49.8424C24.7371 49.6055 25.4491 49.2394 26.3166 48.5996C26.9855 48.1055 27.177 48.0071 27.6257 47.8946C28.9108 47.5901 31.1748 46.3472 32.3438 45.301C32.6917 45.0003 33.0897 44.7617 33.5201 44.596C34.3374 44.2711 35.0689 43.7653 35.6583 43.1173C36.4744 42.2737 36.9662 41.3401 37.2905 40.0131C37.5992 38.7642 38.1281 35.5735 38.2681 34.1268C38.3411 33.3057 38.4224 32.5652 38.444 32.4775C38.4655 32.3898 38.5636 31.1979 38.6713 29.8247C38.779 28.4515 38.8855 27.0853 38.9214 26.7868C38.9573 26.4882 38.9884 25.5806 38.9884 24.7725L38.9956 23.3045L39.2086 23.1955C39.3591 23.1056 39.4961 22.9951 39.6154 22.8673L39.8057 22.6304L39.7985 21.2086C39.7913 20.423 39.7698 19.2536 39.7471 18.6138L39.6956 17.4503L39.9756 16.8697C40.7451 15.3279 41.3052 13.6921 41.6413 12.0048C41.9571 10.4432 42.0385 9.42539 42.0002 7.68842C41.9631 6.06046 41.9117 5.77728 41.4929 4.94908C40.5847 3.19908 38.6223 1.5261 36.9746 1.09719C35.9814 0.842448 33.6242 0.515434 31.2047 0.297424C29.2734 0.118515 20.3421 -0.0509167 16.9845 0.0142492ZM24.0036 0.334154C29.2961 0.443159 33.118 0.675386 34.6688 0.988182C36.7412 1.40998 38.2107 1.99055 38.9908 2.70264C39.8871 3.51662 40.2688 4.38155 40.1216 5.23226C39.917 6.41709 39.424 6.85311 36.6683 8.29861L35.2419 9.04742L34.5874 8.48818L33.9341 7.93842L34.3529 7.70145C34.926 7.37444 35.7122 7.08415 36.837 6.77136C38.0934 6.42302 38.7036 6.05216 38.8281 5.58652C38.8951 5.31046 38.6007 4.81638 38.1592 4.47515C37.6674 4.08297 36.4624 3.50832 35.7265 3.31164C34.4486 2.97041 32.7507 3.34837 32.7507 3.97396C32.7507 4.28558 33.3896 5.16472 33.4686 4.95501C33.483 4.91117 33.6002 4.6351 33.733 4.33652C33.9604 3.81401 33.9819 3.7915 34.2404 3.77017C35.0337 3.70501 37.5693 4.92539 37.8924 5.52847C37.9737 5.6742 37.9809 5.73226 37.8995 5.81994C37.7021 6.06638 36.4888 6.25595 34.4821 6.37207C32.8871 6.46567 32.1823 6.58297 31.6007 6.846L31.1891 7.02847L30.2366 6.75358C29.0694 6.4374 27.8827 6.19638 26.684 6.03202C26.3422 5.99541 26.0034 5.93443 25.6705 5.84956C25.6334 5.82112 25.6777 5.6825 25.765 5.54505C26.0665 5.05809 26.897 4.51306 27.8674 4.14932C28.4477 3.93842 28.6763 3.75714 28.7864 3.42302C28.8893 3.11733 28.8007 2.89221 28.4477 2.58652C27.5216 1.78676 25.1631 1.27136 23.458 1.48937C22.6706 1.59837 21.7744 1.87444 21.3257 2.15761C21.0325 2.34719 20.9954 2.39458 20.9954 2.63747C21.0026 2.987 21.1354 3.15406 21.7672 3.58534C22.0207 3.74889 22.2485 3.9485 22.4433 4.17776L22.612 4.42539V4.2287C22.612 3.93131 22.4924 3.75477 22.003 3.30572L21.5542 2.89932L21.6739 2.70975C21.8283 2.47278 22.2722 2.22278 22.9746 1.96212C23.4448 1.79505 23.6734 1.75832 24.5038 1.72515C25.6286 1.6896 26.1132 1.76188 27.0465 2.096C27.7896 2.36496 28.0469 2.55453 28.0469 2.85193C28.0469 3.37562 27.4582 3.84719 26.4363 4.14576C25.3127 4.47989 24.9741 4.6197 24.1879 5.13392C23.4532 5.60785 23.3862 5.6351 22.983 5.6351C22.4828 5.6351 22.3212 5.5261 22.4601 5.26543C22.5342 5.14695 22.49 5.15524 22.2399 5.35193L21.9312 5.59956L20.4953 5.6505C19.7019 5.67894 18.4371 5.737 17.6881 5.78084C16.939 5.82468 15.9315 5.86022 15.4457 5.86022C14.6308 5.86022 14.5566 5.85311 14.4394 5.70856C14.2922 5.5261 14.3197 5.29387 14.5351 4.94553C14.6081 4.82112 15.1669 4.28321 15.7771 3.75359C17.012 2.67065 17.1736 2.48107 17.1736 2.16117C17.1736 1.68723 16.9019 1.60193 15.557 1.60904C14.0493 1.61614 11.0291 2.19079 10.0216 2.65643C9.32398 2.98344 9.51543 3.46923 10.4631 3.77491C10.7165 3.85658 10.9427 4.00482 11.1177 4.20382C11.3749 4.50122 11.3749 4.50951 11.3235 4.2915C11.2831 4.13409 11.2115 3.9862 11.1129 3.85643C11.0143 3.72666 10.8907 3.61759 10.7491 3.53558C10.2501 3.22989 10.3602 3.07704 11.3007 2.76543C12.7366 2.27847 14.1821 2.00951 15.3356 2.00122C15.9686 2.00122 16.4389 2.11022 16.4389 2.25596C16.4389 2.45264 16.0201 2.83771 15.0496 3.54979C13.8363 4.43605 13.4689 4.79268 12.9401 5.60667C12.7613 5.88746 12.5613 6.15442 12.3418 6.40524C11.9601 6.75477 11.5113 6.54387 11.5113 6.02017C11.5113 5.6505 11.3917 5.737 11.2912 6.17302C11.1883 6.66709 11.0411 6.85667 10.5732 7.11022C10.0814 7.37207 8.28774 8.08415 7.94911 8.1505C7.61048 8.21686 7.08997 8.01899 6.94997 7.76425C6.76569 7.42302 6.8303 6.51425 7.13304 5.35193C7.46449 4.0652 7.46449 3.78202 7.1115 3.54979C6.39355 3.07586 4.04706 3.6588 2.67219 4.66117C1.8274 5.27254 1.64313 6.23818 2.32637 6.43842C2.47535 6.48813 2.63439 6.50074 2.78945 6.47515L2.97372 6.43131L2.71646 6.17657C2.50347 5.96567 2.46637 5.88629 2.51065 5.72633C2.62073 5.29742 3.04672 4.89695 3.87715 4.4396C5.12757 3.76425 6.48689 3.56757 6.73697 4.03321C6.89133 4.31638 6.80996 4.90524 6.49765 5.83534C6.23321 6.6197 6.18893 6.85311 6.18893 7.37562C6.18374 7.72292 6.20334 8.07016 6.24757 8.41472C6.30621 8.77017 6.29184 8.85193 6.18176 8.97515C5.98312 9.19316 5.7486 9.14932 5.37287 8.82942C5.25837 8.72024 5.13287 8.62297 4.99834 8.53913C4.9768 8.53913 5.04261 8.67657 5.14552 8.84363C5.25821 9.05777 5.35654 9.27903 5.43988 9.50595L5.55954 9.8543L5.10364 10.4941C4.84638 10.8424 4.53766 11.2856 4.40603 11.468C4.18467 11.7879 4.15595 11.8022 3.96449 11.7287C3.63424 11.6102 3.58279 11.5261 3.38416 10.8721C3.0898 9.88273 2.84689 9.36022 2.57527 9.1197C2.30364 8.87918 2.178 8.85904 1.95065 8.97515C1.42176 9.25832 1.39184 10.8496 1.89919 11.8602C2.22227 12.5214 2.34792 12.5581 2.09783 11.9325C1.71612 10.9443 1.67184 10 1.98774 9.52017C2.30364 9.04031 2.70569 9.55572 2.98689 10.8235C3.16398 11.6233 3.36142 12.1268 3.58518 12.3567C3.73236 12.5095 3.73236 12.5095 3.51817 12.9823C3.24622 13.5706 3.02991 14.1826 2.87201 14.8105C2.8421 14.9633 2.79065 15.0865 2.75236 15.0865C2.56808 15.0865 1.81185 13.7998 1.4074 12.7832C0.62005 10.8211 0.3927 7.41235 0.921589 5.63866C1.20159 4.70856 2.27373 3.24766 3.1568 2.60904C5.31663 1.03202 7.11748 0.668277 13.8722 0.443159C15.703 0.385102 17.4811 0.324675 17.8209 0.311642C19.3442 0.260694 20.6676 0.268988 24.0036 0.334154ZM23.306 6.07468C26.6565 6.29979 29.6479 6.98344 31.7946 8.02254C32.1918 8.21922 32.199 8.22633 32.5377 8.98226C33.0522 10.1233 33.3681 11.0024 33.8898 12.7251C34.5001 14.7299 35.0062 16.7287 35.139 17.6588C35.2419 18.3792 35.2934 20.0285 35.2048 20.0285C35.1833 20.0285 34.8303 19.9408 34.4187 19.8401C32.8895 19.4538 31.2286 19.2145 28.6751 19.0107L26.9113 18.8661C25.4479 18.7477 21.3688 18.6552 19.745 18.7204C16.239 18.8579 12.0414 19.3673 9.85168 19.9195C7.76535 20.4589 5.73248 21.1838 3.77783 22.0853C3.09338 22.4052 2.91031 22.4633 2.88039 22.3756C2.76073 22.0628 2.91748 19.0474 3.13765 17.5178C3.43201 15.468 4.04945 13.186 4.58552 12.1398C6.27629 8.82231 11.5089 6.41354 17.7563 6.07823C19.337 5.99529 22.0484 5.99529 23.306 6.07468ZM26.2161 19.0474C27.1351 19.1055 27.9284 19.1659 27.9799 19.1849C28.0313 19.2038 28.6272 19.2583 29.2961 19.3033C31.5888 19.455 32.2505 19.5936 34.5072 20.4005C35.9431 20.9088 35.7936 20.7417 35.8737 21.955C35.8965 22.3105 35.9479 22.8567 35.9838 23.1541C36.0197 23.4515 36.0795 24.5131 36.1035 25.5166L36.1477 27.333L35.9084 27.0723C35.6141 26.7595 35.2539 26.5699 34.5778 26.3614C33.5272 26.0427 31.2406 25.8318 28.6763 25.8176C27.0226 25.8176 26.2652 25.9183 25.3175 26.2749C24.7443 26.4858 24.0826 26.9799 23.8182 27.3946L23.6052 27.7287H23.0942C22.6383 27.7287 22.557 27.7062 22.3763 27.532L22.1705 27.3353V27.6067C22.1879 27.8362 22.2399 28.0618 22.3248 28.2761C22.387 28.4145 22.4274 28.5616 22.4445 28.7121C22.3116 28.7044 22.1805 28.6772 22.0556 28.6315C21.4573 28.4574 20.5994 28.4289 19.8276 28.5593C19.4602 28.6244 19.1371 28.6778 19.1096 28.6778C19.0821 28.6778 19.1826 28.5249 19.3226 28.3436C19.5727 28.0166 19.7857 27.5439 19.7115 27.4645C19.69 27.4491 19.5727 27.5 19.4471 27.5948C19.2568 27.7334 19.1754 27.7477 18.8009 27.7038C18.083 27.6244 17.8819 27.5368 17.639 27.2026C16.8457 26.1197 15.0891 25.6185 12.4578 25.7204C11.1416 25.7785 10.2824 25.8875 8.46723 26.25C6.5527 26.628 6.01184 26.8318 5.49731 27.391C5.20296 27.7038 5.07133 28.0166 5.01868 28.4965L4.99595 28.7145H3.59954L3.578 27.4787C3.55527 26.3164 3.66654 23.5545 3.77663 22.7619C3.8209 22.4206 3.84244 22.391 4.16552 22.2311C6.19971 21.2358 9.09065 20.3353 12.5296 19.6244C13.7573 19.3768 15.271 19.2097 18.777 18.9408C19.9616 18.8579 24.0635 18.9159 26.2161 19.0474ZM15.3464 26.4894C15.6359 26.5619 15.9185 26.659 16.1912 26.7797C16.5214 26.9538 16.8373 27.2086 16.7895 27.2666C16.7667 27.2808 15.9291 27.1209 14.9216 26.9029C13.9141 26.6849 12.952 26.4823 12.7761 26.4526C12.6002 26.423 12.4447 26.3733 12.4171 26.3342C12.3322 26.1908 14.7062 26.3223 15.3464 26.4894ZM32.4778 26.5984C33.4782 26.7358 34.0442 26.8887 34.7059 27.1908C35.279 27.4597 35.5064 27.7133 35.7828 28.3898C36.1657 29.3484 35.9671 33.0913 35.4824 34.0368C35.3364 34.2686 35.1579 34.4788 34.9524 34.6612C33.7175 35.7583 31.6019 36.0131 29.0951 35.359C27.6843 34.9953 26.7139 34.5451 26.2233 34.0214C26.0618 33.8472 26.0546 33.8105 26.1276 33.5474C26.2063 33.3351 26.2998 33.1284 26.4076 32.9289C26.5835 32.6244 26.6206 32.5948 26.8778 32.5948C27.23 32.6275 27.5789 32.6881 27.9212 32.7761C28.8845 33.0131 29.7951 33.1185 30.1948 33.0605C30.4891 33.0095 30.4664 33.0024 29.7018 32.8496C29.2614 32.7548 28.6368 32.6019 28.3137 32.4941C27.9907 32.3863 27.6149 32.2915 27.4761 32.2571C27.2368 32.2062 27.2272 32.1991 27.3565 32.1043C27.5252 31.9858 28.0254 31.974 28.7158 32.083C29.143 32.1481 29.3559 32.1339 30.0907 32.0024C31.5684 31.7488 32.3989 31.4503 32.9421 30.9787C33.1707 30.782 33.2436 30.7536 33.4937 30.7891C33.6553 30.8116 33.7881 30.8033 33.7881 30.7749C33.7881 30.6292 32.7004 29.583 32.1488 29.205C31.9241 29.0631 31.7105 28.9047 31.5098 28.7311C31.5098 28.6659 32.1081 28.5936 32.619 28.5936C33.13 28.5936 33.6481 28.7678 34.2727 29.1458C34.871 29.5095 35.1103 29.6327 35.1546 29.5889C35.1773 29.5676 35.1259 29.4218 35.0445 29.269C34.5156 28.237 32.9134 26.9432 31.87 26.7109C31.1855 26.551 30.0751 26.6742 27.1734 27.2121C25.3642 27.5462 24.5936 27.6635 24.5409 27.6126C24.4524 27.5249 24.8855 27.1837 25.3713 26.9586C25.826 26.7406 26.5763 26.551 27.3182 26.4562C27.8806 26.3946 31.7096 26.4965 32.4778 26.5984ZM8.45885 27.0924C7.91561 27.5142 7.13663 28.3567 6.89372 28.7785L6.65441 29.2003L6.89372 29.0403C7.37236 28.7275 8.44928 28.2477 8.84894 28.1612C9.22347 28.0877 9.36347 28.0948 10.1496 28.2702C10.6283 28.3709 11.2517 28.487 11.5245 28.5237C12.3106 28.6327 12.3465 28.705 11.7303 28.8875C10.5337 29.2512 8.80467 30.1304 8.33441 30.6244L8.09509 30.878L8.55099 30.8353C8.97698 30.7986 9.01407 30.8128 9.2127 31.0166C9.71167 31.5332 10.6019 31.9645 11.3881 32.0557C11.9397 32.1292 14.0409 31.9692 15.1142 31.7868C15.5773 31.7074 16.239 31.6197 16.5848 31.5913C17.1496 31.5545 17.2094 31.5332 17.1831 31.4017C17.1544 31.1837 17.4775 30.2026 17.5589 30.2536C17.6689 30.3188 17.566 31.1908 17.3889 31.7287C16.5812 34.141 14.9347 35.333 11.9577 35.6529C10.9729 35.7619 9.23065 35.7109 8.47441 35.551C7.50398 35.3413 6.84945 34.8614 6.51082 34.1055C6.33492 33.7133 5.96757 32.1872 5.85749 31.4159C5.75458 30.6825 5.75458 29.1493 5.85749 28.6766C5.91229 28.3962 6.03349 28.1328 6.21114 27.9079C6.38878 27.6829 6.6178 27.503 6.87936 27.3827C7.358 27.1458 8.22432 26.8815 8.56894 26.8673C8.73526 26.8602 8.73526 26.8744 8.45885 27.0924ZM21.3436 29.0403C22.0341 29.1268 22.6886 29.4112 22.8573 29.6943C22.9204 29.8132 23.0141 29.9133 23.1289 29.9846C23.239 30.0498 23.2689 30.1375 23.2689 30.4503C23.2689 30.9657 23.5777 32.0048 23.9163 32.6233C24.1055 32.9538 24.3267 33.2653 24.5768 33.5533L24.9669 33.9823L24.8472 34.4325C24.7009 34.993 24.4624 35.5257 24.1412 36.0095L23.8912 36.3804H23.3623C23.148 36.3746 22.9336 36.3893 22.7221 36.4242C22.612 36.4669 22.612 36.4811 22.7305 36.5687C22.825 36.6339 22.8406 36.6872 22.7891 36.7358C22.4804 37.0415 19.6289 37.0344 19.0474 36.7287C18.9086 36.6564 18.9158 36.6493 19.0773 36.5249L19.246 36.4064L19.0067 36.3188C18.6753 36.2109 17.9992 36.218 16.9929 36.3484C15.7963 36.5012 15.125 36.7334 14.3245 37.25C13.1854 37.9977 12.41 38.9941 12.1336 40.0936C12.0307 40.5083 12.0235 40.6173 12.112 40.9515C12.2006 41.2856 12.2006 41.4669 12.112 42.1138C12.0019 42.9858 12.0378 43.6185 12.2221 43.9597C12.3226 44.2455 12.3822 44.5438 12.3992 44.846C12.4123 45.1078 12.4467 45.3681 12.5021 45.6244C12.6553 46.0024 11.2517 45.4064 10.6785 44.8543C10.1568 44.3519 10.0096 43.814 9.99527 42.3969C9.98091 41.2998 9.97373 41.2488 9.75595 40.7986C9.49869 40.2536 9.15766 39.2358 9.10261 38.7998C9.07988 38.6327 9.02843 38.5095 8.99971 38.5308C8.8298 38.6327 8.99253 39.9052 9.28569 40.782C9.40535 41.1683 9.42569 41.3744 9.40535 42.6363L9.38261 44.0581L9.02962 44.0356C8.37629 43.9917 7.48603 43.4432 6.61133 42.5533C5.71509 41.6446 5.23048 40.7512 4.86313 39.3626C4.65732 38.564 4.56159 37.9017 4.12005 34.1019C3.93697 32.5391 3.77543 31.1576 3.7527 31.0273L3.70842 30.7903H4.26005C4.91458 30.7903 5.03902 30.8768 5.03902 31.3211C5.03902 31.7133 5.42911 33.6102 5.62655 34.1647C5.92809 35.0439 6.33253 35.5012 7.1486 35.9088C8.4421 36.5486 10.858 36.6351 13.1973 36.1197C14.6823 35.7998 15.5905 35.3709 16.4389 34.5936C17.4895 33.6268 18.2541 31.955 18.3869 30.3424C18.4371 29.6315 18.5065 29.5131 19.0043 29.2666C19.5284 28.9965 20.3804 28.9159 21.3436 29.0403ZM16.0667 30.7192C16.0667 30.878 14.8761 31.3733 14.7577 31.2642C14.7361 31.2417 14.7732 31.1624 14.8318 31.096C15.0453 30.8365 15.1779 30.5212 15.2136 30.1884C15.2351 30.0142 15.2506 29.8614 15.2578 29.8389C15.265 29.7808 16.0667 30.6529 16.0667 30.7192ZM31.5026 30.1659C32.3402 30.5877 32.3402 30.5664 31.5684 30.8863C30.9881 31.1327 30.2306 31.3602 30.0033 31.3602C29.959 31.3602 30.032 31.2512 30.1577 31.1233C30.4289 30.856 30.6063 30.5097 30.6638 30.1351C30.7212 29.7879 30.7368 29.7879 31.5014 30.1659H31.5026ZM11.363 30.4029C11.363 30.628 11.5257 30.9254 11.7602 31.1434C11.84 31.2083 11.9052 31.289 11.9517 31.3804C11.9517 31.474 11.2684 31.4455 10.8748 31.3294C10.6134 31.2473 10.378 31.0995 10.1915 30.9005C10.0072 30.7192 9.87561 30.5593 9.89715 30.5451C9.91868 30.5308 10.2059 30.4076 10.5517 30.2619C11.1105 30.0249 11.1835 30.0154 11.2696 30.1173C11.3261 30.2015 11.3599 30.2986 11.3677 30.3993L11.363 30.4029ZM26.7606 30.5688C26.8922 30.859 27.3182 31.2951 27.4582 31.2951C27.4684 31.2954 27.4785 31.2977 27.4879 31.3019C27.4972 31.3062 27.5056 31.3122 27.5125 31.3198C27.5194 31.3273 27.5248 31.3361 27.5282 31.3457C27.5316 31.3553 27.533 31.3655 27.5324 31.3756C27.5324 31.506 26.8994 31.4112 26.4076 31.2086C26.1802 31.1138 25.9888 30.9977 25.9888 30.9538C25.9888 30.8519 26.4877 30.2773 26.5763 30.2773C26.6062 30.2749 26.684 30.4064 26.7606 30.5688ZM24.3124 30.7642C24.6211 31.3389 25.0303 32.6766 24.8855 32.6766C24.7407 32.6766 24.371 31.8259 24.1879 31.128C23.9749 30.3507 23.9893 30.423 24.0683 30.423C24.0994 30.4206 24.2095 30.5688 24.3124 30.7619V30.7642ZM26.325 35.006C27.4354 35.7548 29.4265 36.3093 31.426 36.4278C32.9254 36.5071 33.9544 36.2607 35.0792 35.5403C35.6966 35.141 35.7038 35.141 35.6595 35.3377C35.5937 35.6647 35.4836 36.6955 35.3951 37.7939C35.2922 39.051 35.0648 40.5403 34.8734 41.1872C34.7477 41.6161 34.6604 41.7465 34.1303 42.2998C33.6002 42.8531 33.124 43.2074 32.911 43.2074C32.7913 43.2074 32.7495 41.3614 32.8667 40.6861C33.0283 39.7192 33.0797 38.4479 32.9696 37.9538C32.9254 37.7169 32.8739 37.5391 32.8595 37.5533C32.8081 37.7639 32.7713 37.9776 32.7495 38.1932C32.7052 38.5344 32.5101 39.4289 32.3079 40.192C31.9621 41.5652 31.9621 41.5794 31.992 42.5024C32.0291 43.2808 32.0136 43.4834 31.9035 43.7678C31.7204 44.2323 30.9342 45.0024 30.3312 45.301C29.6994 45.6138 29.6479 45.6055 29.7137 45.2204C29.7508 45.0533 29.7724 44.1541 29.7652 43.2228C29.7652 41.8851 29.7867 41.5368 29.8609 41.5368C30.0512 41.5368 30.0009 40.7299 29.758 40.0095C29.3607 38.8105 28.6332 37.9538 27.5012 37.3353C26.6409 36.8614 26.325 36.5285 26.1348 35.8673C25.9804 35.3448 25.8954 34.7773 25.9577 34.7773C26.0875 34.8413 26.2105 34.9179 26.325 35.006ZM19.7438 40.1233C20.603 40.3413 21.0959 40.3413 22.7939 40.1304C24.4619 39.9195 25.9469 40.0119 26.4243 40.3555C26.5803 40.4974 26.7074 40.6675 26.7989 40.8567C26.946 41.1469 26.9831 41.3223 26.9831 41.7939C26.9884 42.0855 26.9538 42.3764 26.8802 42.6588C26.7606 43.0225 26.197 43.6185 25.8033 43.8069C25.6418 43.8875 25.5532 43.9088 25.6047 43.8579C25.7961 43.6624 25.6717 43.6695 25.126 43.9088C24.3842 44.2287 23.9797 44.2797 23.6483 44.1055C23.3551 43.9526 23.0093 43.5451 22.9435 43.2761C22.8992 43.1007 22.9435 43.0498 23.4065 42.7453C24.1628 42.2512 24.1628 42.1778 23.3994 42.4834C22.4948 42.8472 22.0975 42.9195 21.0983 42.9195C19.9676 42.914 18.8498 42.6814 17.8125 42.2358C17.651 42.1706 17.5481 42.1422 17.5732 42.1849C17.639 42.2868 18.6166 42.9195 18.7124 42.9195C18.8081 42.9195 18.8153 42.9562 18.6454 43.2749C18.4766 43.6161 18.1392 43.9064 17.8448 43.9716C17.6055 44.0225 17.1831 43.9278 16.5729 43.6742C16.0739 43.4704 16.0655 43.4704 16.117 43.609C16.1684 43.7477 15.7939 43.7536 15.4565 43.6161C15.119 43.4787 14.9192 43.2015 14.772 42.7074C14.5889 42.0759 14.6105 41.4799 14.839 41.0936C15.2207 40.455 15.7963 40.0616 16.5884 39.9088C16.6913 39.8934 17.2717 39.8863 17.8736 39.9017C18.771 39.9195 19.1096 39.9633 19.7438 40.1233Z" fill="#1A1B1D" data-v-e2241ea0=""></path> <path d="M17.8556 7.56155C17.7957 7.70729 17.7957 7.70729 18.2492 8.00113C18.6369 8.24994 18.7111 8.44781 18.6082 8.97625L18.5628 9.21321H17.231V9.95255H17.6246C17.8459 9.95391 18.0669 9.96855 18.2863 9.99639L18.5616 10.0473L18.5544 11.5213C18.54 13.148 18.6214 13.6907 18.9863 14.2262C19.447 14.9158 20.6616 15.0687 21.328 14.5189C21.5518 14.3293 21.8342 13.8376 21.8414 13.6326C21.8486 13.4277 21.6021 13.4715 21.2431 13.7867C21.0421 13.9691 20.7896 14.1421 20.6783 14.1599C20.232 14.2701 19.7629 13.7132 19.6014 12.8921C19.5463 12.3512 19.5216 11.8078 19.5272 11.2642V10.0248H21.1103C21.973 10.0248 22.7616 10.0462 22.8513 10.0687C23.0068 10.1125 22.9626 10.1777 22.3308 10.8815C21.4932 11.8127 21.1629 12.2239 21.1629 12.3033C21.1629 12.34 21.2299 12.398 21.3113 12.4419C21.4154 12.5011 21.5195 12.4786 21.7349 12.3684C22.3152 12.0758 23.245 12.1196 23.781 12.4644C24.3171 12.8092 24.651 13.9597 24.499 14.8767C24.3602 15.7709 23.8265 16.4332 22.898 16.8637C22.4361 17.0841 22.3404 17.1007 21.6188 17.1007C20.9786 17.1007 20.7704 17.0722 20.488 16.9395C20.1386 16.7855 20.1386 16.7784 20.2128 16.5296C20.3469 16.045 20.0788 15.6789 19.581 15.6717C19.3573 15.6717 19.246 15.7227 19.0378 15.9277C18.808 16.1552 18.7781 16.2215 18.8152 16.4561C18.8751 16.7855 19.0904 17.0201 19.5655 17.2476C21.0086 17.9371 22.898 17.7393 24.1316 16.7736C24.9345 16.1433 25.3522 15.2488 25.3665 14.1338C25.3737 13.5118 25.3522 13.3862 25.1583 12.9762C24.7646 12.1469 24.0814 11.7156 23.1133 11.7156H22.6228L23.6267 10.7677L24.6306 9.82933L24.4224 9.52956L24.2214 9.22151H19.5368V7.53193H19.2245C19.045 7.53193 18.6812 7.50942 18.406 7.48809C17.974 7.44426 17.8998 7.4644 17.8556 7.56155Z" fill="#1A1B1D" data-v-e2241ea0=""></path> <path d="M21.3172 20.519C20.7429 20.6375 20.4868 20.6612 20.056 20.6304C19.8729 20.6076 19.6875 20.6076 19.5044 20.6304C19.5044 20.6553 19.6097 20.7169 19.7437 20.7737C19.94 20.8543 20.1446 20.8662 20.8541 20.8413C21.8665 20.8105 23.3323 20.5688 23.203 20.4633C23.0475 20.3318 22.0723 20.3567 21.3172 20.519Z" fill="#1A1B1D" data-v-e2241ea0=""></path> <path d="M16.5133 21.3626L16.329 21.4231L16.5133 21.4752C16.6531 21.5089 16.7965 21.5264 16.9404 21.5273C17.3305 21.5273 18.6264 21.8117 19.2893 22.0427C20.1736 22.3484 21.0052 22.8496 21.1237 23.1482C21.2338 23.4017 21.2051 23.5818 21.0423 23.6494C20.9837 23.6719 20.6008 23.5889 20.1951 23.4622C18.9986 23.096 18.4278 23.0214 16.4391 22.9468C15.4088 22.9017 14.2446 22.8425 13.8616 22.7975C12.9116 22.7003 12.7057 22.7145 13.1628 22.8425C13.8987 23.051 14.6275 23.1778 16.1543 23.3579C18.6958 23.6636 19.7632 23.9325 20.7276 24.5226L21.3104 24.878L21.6346 24.7359C22.9963 24.1434 26.348 23.5854 29.8384 23.3769C31.65 23.2647 31.5419 23.1798 29.5141 23.1221C27.7982 23.07 25.4565 23.1896 24.3222 23.3911C22.4734 23.7205 21.6634 23.4811 22.3406 22.8081C22.6206 22.5321 22.7534 22.4799 23.6963 22.2406C24.6835 21.9942 25.2722 21.9124 26.4485 21.852C27.1664 21.8152 27.3914 21.7773 27.2586 21.7335C26.9128 21.5996 25.557 21.5404 24.5184 21.6067C23.311 21.6896 22.5739 21.8306 21.9996 22.0806C21.8218 22.1731 21.631 22.2386 21.4336 22.275C21.1506 22.212 20.8745 22.1219 20.6092 22.006C19.3647 21.5214 18.7018 21.3721 17.6488 21.3342C17.2701 21.3138 16.8904 21.3233 16.5133 21.3626Z" fill="#1A1B1D" data-v-e2241ea0=""></path> <path d="M15.8476 32.0142C13.9666 32.3282 11.6069 32.897 11.6069 33.0391C11.6069 33.0984 12.2339 33.0095 13.5107 32.7619C14.1305 32.6434 15.0866 32.4704 15.6394 32.3804C16.617 32.2157 17.0274 32.0593 16.8192 31.9242C16.7778 31.8988 16.7319 31.8811 16.684 31.8721C16.6613 31.8792 16.288 31.9396 15.8476 32.0142Z" fill="#1A1B1D" data-v-e2241ea0=""></path> <path d="M16.5379 40.6267C16.2866 40.6497 16.0381 40.697 15.796 40.7677C15.7661 40.7973 16.155 40.8056 16.6791 40.7748C17.7991 40.7085 18.3543 40.7902 19.5509 41.1931C20.5297 41.5201 20.8049 41.5485 21.3613 41.3341C21.7909 41.1777 23.5152 40.8874 24.0321 40.8874C24.3879 40.9063 24.7423 40.9458 25.0935 41.0059C26.4205 41.2144 26.649 41.2428 26.6802 41.2144C26.7472 41.1552 25.7313 40.7405 25.2933 40.6635C24.64 40.5296 23.5499 40.6042 22.1176 40.8791L20.921 41.1101L20.2031 40.8874C19.358 40.651 18.4846 40.5282 17.6065 40.5225C17.3995 40.5296 16.9172 40.5746 16.5379 40.6267Z" fill="#1A1B1D" data-v-e2241ea0=""></path></g> <defs data-v-e2241ea0=""><clipPath id="clip0_586_3073" data-v-e2241ea0=""><rect width="42" height="50" fill="white" data-v-e2241ea0=""></rect></clipPath></defs></svg>