<svg width="33" height="32" viewBox="0 0 33 32" fill="none" xmlns="http://www.w3.org/2000/svg">
<path d="M28.8086 21.3358V10.6691C28.8081 10.2015 28.6847 9.74222 28.4506 9.33736C28.2166 8.93249 27.8802 8.59629 27.4753 8.36247L18.1419 3.02914C17.7365 2.79509 17.2767 2.67188 16.8086 2.67188C16.3405 2.67188 15.8806 2.79509 15.4753 3.02914L6.14193 8.36247C5.73694 8.59629 5.40057 8.93249 5.16654 9.33736C4.93252 9.74222 4.80907 10.2015 4.80859 10.6691V21.3358C4.80907 21.8034 4.93252 22.2627 5.16654 22.6676C5.40057 23.0725 5.73694 23.4087 6.14193 23.6425L15.4753 28.9758C15.8806 29.2099 16.3405 29.3331 16.8086 29.3331C17.2767 29.3331 17.7365 29.2099 18.1419 28.9758L27.4753 23.6425C27.8802 23.4087 28.2166 23.0725 28.4506 22.6676C28.6847 22.2627 28.8081 21.8034 28.8086 21.3358Z" stroke="#D3832B" stroke-width="2" stroke-linecap="round" stroke-linejoin="round"/>
<path d="M5.16895 9.28125L16.8089 16.0146L28.4489 9.28125" stroke="#D3832B" stroke-width="2" stroke-linecap="round" stroke-linejoin="round"/>
<path d="M16.8086 29.44V16" stroke="#D3832B" stroke-width="2" stroke-linecap="round" stroke-linejoin="round"/>
</svg>
