<svg width="33" height="32" viewBox="0 0 33 32" fill="none" xmlns="http://www.w3.org/2000/svg">
<path d="M27.4756 9.33594H6.14225C4.66949 9.33594 3.47559 10.5298 3.47559 12.0026V25.3359C3.47559 26.8087 4.66949 28.0026 6.14225 28.0026H27.4756C28.9483 28.0026 30.1423 26.8087 30.1423 25.3359V12.0026C30.1423 10.5298 28.9483 9.33594 27.4756 9.33594Z" stroke="#D3832B" stroke-width="2" stroke-linecap="round" stroke-linejoin="round"/>
<path d="M22.1423 28V6.66667C22.1423 5.95942 21.8613 5.28115 21.3612 4.78105C20.8611 4.28095 20.1828 4 19.4756 4H14.1423C13.435 4 12.7567 4.28095 12.2566 4.78105C11.7565 5.28115 11.4756 5.95942 11.4756 6.66667V28" stroke="#D3832B" stroke-width="2" stroke-linecap="round" stroke-linejoin="round"/>
</svg>
