<?xml version="1.0" encoding="UTF-8"?>
<svg width="135px" height="24px" viewBox="0 0 135 24" version="1.1" xmlns="http://www.w3.org/2000/svg" xmlns:xlink="http://www.w3.org/1999/xlink">
    <title>Logo/Dexter mobile</title>
    <defs>
        <polygon id="path-1" points="0 0.0168015588 15.0585263 0.0168015588 15.0585263 16.2149163 0 16.2149163"></polygon>
        <polygon id="path-3" points="0.0131337083 0.0168015588 11.5203521 0.0168015588 11.5203521 16.2148448 0.0131337083 16.2148448"></polygon>
        <polygon id="path-5" points="0.0788382822 0.0168015588 12.9925705 0.0168015588 12.9925705 16.2148626 0.0788382822 16.2148626"></polygon>
        <polygon id="path-7" points="0.0353114792 0.0168015588 11.5425299 0.0168015588 11.5425299 16.2148448 0.0353114792 16.2148448"></polygon>
        <polygon id="path-9" points="0.0264655934 0.0168015588 13.1248625 0.0168015588 13.1248625 16.2148269 0.0264655934 16.2148269"></polygon>
    </defs>
    <g id="Logo/Dexter-mobile" stroke="none" stroke-width="1" fill="none" fill-rule="evenodd">
        <g id="logo-nav">
            <g id="Group-3" transform="translate(0.000000, 0.161938)">
                <mask id="mask-2" fill="white">
                    <use xlink:href="#path-1"></use>
                </mask>
                <g id="Clip-2"></g>
                <path d="M3.59742901,12.9203808 L5.4653342,12.9203808 C6.29569444,12.9203808 7.06822313,12.8365518 7.78292026,12.6687149 C8.49779756,12.5008781 9.11664925,12.2225799 9.63929517,11.8336417 C10.1619411,11.4445248 10.5734279,10.9338646 10.8732152,10.3007676 C11.1730024,9.66802802 11.3228961,8.8937264 11.3228961,7.97857767 C11.3228961,7.18568708 11.1730024,6.49539325 10.8732152,5.90805366 C10.5734279,5.3208928 10.169688,4.83650743 9.66235573,4.45525504 C9.15520362,4.07418139 8.55905216,3.78801867 7.87516249,3.5973031 C7.1909125,3.40658754 6.47207168,3.31114039 5.71900033,3.31114039 L3.59742901,3.31114039 L3.59742901,12.9203808 Z M-1.80160608e-05,0.0167836848 L5.39615252,0.0167836848 C6.70267725,0.0167836848 7.94434417,0.161920554 9.12043262,0.451300593 C10.2967012,0.741216852 11.3228961,1.21023058 12.1990171,1.85834177 C13.0753183,2.50681044 13.7709184,3.34956948 14.2859976,4.38661889 C14.8010768,5.42402577 15.0585263,6.68235528 15.0585263,8.16160741 C15.0585263,9.47355892 14.8086435,10.6289342 14.3090581,11.6277332 C13.8094728,12.626711 13.1365729,13.4658953 12.2914395,14.1443923 C11.4457656,14.8232467 10.4696554,15.3378392 9.36256848,15.688527 C8.2556617,16.0395723 7.09470674,16.2149163 5.8806044,16.2149163 L-1.80160608e-05,16.2149163 L-1.80160608e-05,0.0167836848 Z" id="Fill-1" fill="#000000" mask="url(#mask-2)"></path>
            </g>
            <g id="Group-6" transform="translate(26.303449, 0.161938)">
                <mask id="mask-4" fill="white">
                    <use xlink:href="#path-3"></use>
                </mask>
                <g id="Clip-5"></g>
                <polygon id="Fill-4" fill="#000000" mask="url(#mask-4)" points="0.0131337083 0.0167121888 11.1050819 0.0167121888 11.1050819 3.31124763 3.61058073 3.31124763 3.61058073 6.33123845 10.690172 6.33123845 10.690172 9.62577389 3.61058073 9.62577389 3.61058073 12.9203093 11.5203521 12.9203093 11.5203521 16.2148448 0.0131337083 16.2148448"></polygon>
            </g>
            <g id="Group-9" transform="translate(74.226171, 0.161938)">
                <mask id="mask-6" fill="white">
                    <use xlink:href="#path-5"></use>
                </mask>
                <g id="Clip-8"></g>
                <polygon id="Fill-7" fill="#000000" mask="url(#mask-6)" points="4.73689081 3.17399319 0.0788382822 3.17399319 0.0788382822 0.0167300628 12.9925705 0.0167300628 12.9925705 3.17399319 8.33433784 3.17399319 8.33433784 16.2148626 4.73689081 16.2148626"></polygon>
            </g>
            <g id="Group-12" transform="translate(98.367692, 0.161938)">
                <mask id="mask-8" fill="white">
                    <use xlink:href="#path-7"></use>
                </mask>
                <g id="Clip-11"></g>
                <polygon id="Fill-10" fill="#000000" mask="url(#mask-8)" points="0.0353114792 0.0167121888 11.1272597 0.0167121888 11.1272597 3.31124763 3.63275851 3.31124763 3.63275851 6.33123845 10.7123498 6.33123845 10.7123498 9.62577389 3.63275851 9.62577389 3.63275851 12.9203093 11.5425299 12.9203093 11.5425299 16.2148448 0.0353114792 16.2148448"></polygon>
            </g>
            <g id="Group-15" transform="translate(121.067929, 0.161938)">
                <mask id="mask-10" fill="white">
                    <use xlink:href="#path-9"></use>
                </mask>
                <g id="Clip-14"></g>
                <path d="M3.62391262,6.72015879 L5.74548394,6.72015879 C6.06833175,6.72015879 6.41045675,6.70889817 6.77185893,6.68601945 C7.13290079,6.66296199 7.45953197,6.59432584 7.75175248,6.47993225 C8.04361266,6.36571739 8.28574852,6.18644119 8.47816005,5.94228236 C8.67039142,5.69848102 8.76641702,5.35530025 8.76641702,4.91274004 C8.76641702,4.50092311 8.68174154,4.17311397 8.51293105,3.92895515 C8.34339991,3.68533255 8.12828815,3.49819178 7.86723543,3.36842655 C7.60564222,3.2390188 7.30585497,3.15107873 6.96787367,3.10532129 C6.62953205,3.05974259 6.29911749,3.03686388 5.97626968,3.03686388 L3.62391262,3.03686388 L3.62391262,6.72015879 Z M0.0264655934,0.0166943148 L6.34505845,0.0166943148 C7.17541869,0.0166943148 7.96290071,0.096769829 8.70894579,0.256920857 C9.45427023,0.417071886 10.1075326,0.684109426 10.668913,1.057676 C11.2301133,1.43160005 11.6756505,1.9351106 12.0064254,2.56785015 C12.33684,3.20094718 12.5022274,3.99026297 12.5022274,4.9357975 C12.5022274,6.07955467 12.2024401,7.0519002 11.6028656,7.85265535 C11.0032911,8.65341049 10.1271701,9.16067457 8.97396204,9.37409011 L13.1248625,16.2148269 L8.8127183,16.2148269 L5.39957558,9.74014961 L3.62391262,9.74014961 L3.62391262,16.2148269 L0.0264655934,16.2148269 L0.0264655934,0.0166943148 Z" id="Fill-13" fill="#000000" mask="url(#mask-10)"></path>
            </g>
            <path d="M65.5034425,23.9343031 C66.0844605,23.9343031 66.5555805,23.4670768 66.5555805,22.8904616 L66.5555805,21.6600155 C66.5555805,21.083579 66.0844605,20.6163527 65.5034425,20.6163527 L48.4101643,20.6163527 C47.8291464,20.6163527 47.3580264,21.083579 47.3580264,21.6600155 L47.3580264,22.8904616 C47.3580264,23.4670768 47.8291464,23.9343031 48.4101643,23.9343031 L65.5034425,23.9343031 Z" id="Fill-16" fill="#0CCA4A"></path>
            <path d="M64.8143102,13.2327826 L59.7926936,8.25094166 L64.8143102,3.268922 C65.1771537,2.90893967 65.1771537,2.32553235 64.8143102,1.96555002 L63.349064,0.511857701 C62.9864007,0.151875367 62.3981763,0.151875367 62.0353328,0.511857701 L57.0137162,5.49387736 L51.9920995,0.511857701 C51.6292561,0.151875367 51.0412119,0.151875367 50.6783684,0.511857701 L49.2131222,1.96555002 C48.8504589,2.32553235 48.8504589,2.90893967 49.2131222,3.268922 L54.2347388,8.25094166 L49.2131222,13.2327826 C48.8504589,13.5927649 48.8504589,14.1761722 49.2131222,14.5361546 L50.6783684,15.9898469 C51.0412119,16.3496505 51.6294362,16.3496505 51.9920995,15.9898469 L57.0137162,11.008006 L62.0353328,15.9900256 C62.3981763,16.3498292 62.9864007,16.3498292 63.349064,15.9900256 L64.8143102,14.5363333 C65.1771537,14.176351 65.1771537,13.5927649 64.8143102,13.2327826" id="Fill-18" fill="#000000"></path>
        </g>
    </g>
</svg>