<svg width="22" height="25" viewBox="0 0 22 25" fill="none" xmlns="http://www.w3.org/2000/svg">
<path d="M14.5125 11.875C14.5125 12.6375 13.95 13.2625 13.2375 13.2625C12.5375 13.2625 11.9625 12.6375 11.9625 11.875C11.9625 11.1125 12.525 10.4875 13.2375 10.4875C13.95 10.4875 14.5125 11.1125 14.5125 11.875ZM8.675 10.4875C7.9625 10.4875 7.4 11.1125 7.4 11.875C7.4 12.6375 7.975 13.2625 8.675 13.2625C9.3875 13.2625 9.95 12.6375 9.95 11.875C9.9625 11.1125 9.3875 10.4875 8.675 10.4875ZM21.875 2.575V25C18.7259 22.2171 19.733 23.1383 16.075 19.7375L16.7375 22.05H2.5625C1.15 22.05 0 20.9 0 19.475V2.575C0 1.15 1.15 0 2.5625 0H19.3125C20.725 0 21.875 1.15 21.875 2.575ZM18.3125 14.425C18.3125 10.4 16.5125 7.1375 16.5125 7.1375C14.7125 5.7875 13 5.825 13 5.825L12.825 6.025C14.95 6.675 15.9375 7.6125 15.9375 7.6125C12.9682 5.98511 9.48027 5.98481 6.6 7.25C6.1375 7.4625 5.8625 7.6125 5.8625 7.6125C5.8625 7.6125 6.9 6.625 9.15 5.975L9.025 5.825C9.025 5.825 7.3125 5.7875 5.5125 7.1375C5.5125 7.1375 3.7125 10.4 3.7125 14.425C3.7125 14.425 4.7625 16.2375 7.525 16.325C7.525 16.325 7.9875 15.7625 8.3625 15.2875C6.775 14.8125 6.175 13.8125 6.175 13.8125C6.35889 13.9412 6.66211 14.1081 6.6875 14.125C8.79736 15.3065 11.7943 15.6937 14.4875 14.5625C14.925 14.4 15.4125 14.1625 15.925 13.825C15.925 13.825 15.3 14.85 13.6625 15.3125C14.0375 15.7875 14.4875 16.325 14.4875 16.325C17.25 16.2375 18.3125 14.425 18.3125 14.425Z" fill="black"/>
</svg>
