<svg width="78" height="85" viewBox="0 0 78 85" fill="none" xmlns="http://www.w3.org/2000/svg">
<path d="M37.7355 60.5809C37.9593 60.9063 38.3299 61.1007 38.7247 61.1007C39.1194 61.1007 39.4901 60.9063 39.7138 60.5809L59.9291 31.1972C60.1807 30.8295 60.2093 30.3527 60.0014 29.9587C59.7942 29.5646 59.3852 29.3168 58.9399 29.3168L46.7033 29.3176V7.97792C46.7033 3.57846 43.1241 0 38.7254 0C34.326 0 30.7475 3.57924 30.7475 7.97792V29.3176H18.5109C18.0657 29.3176 17.6566 29.5646 17.4495 29.9594C17.2423 30.3534 17.2702 30.831 17.5218 31.1979L37.7355 60.5809ZM31.9467 31.7159C32.6097 31.7159 33.1468 31.1788 33.1468 30.5159V7.97665C33.1468 4.90077 35.6487 2.39883 38.7246 2.39883C41.8005 2.39883 44.3024 4.90154 44.3024 7.97665V30.5159C44.3024 31.1788 44.8388 31.7159 45.5025 31.7159H56.6574L38.7248 57.7825L20.7914 31.7159H31.9467Z" fill="black"/>
<path d="M7.79259 84.5793H69.6592C73.9563 84.5793 77.4518 81.083 77.4518 76.7859V73.841C77.4518 69.5439 73.9563 66.0476 69.6592 66.0476L7.79259 66.0469C3.49554 66.0469 1.21732e-07 69.5432 1.21732e-07 73.8402V76.7852C-0.000753178 81.083 3.49477 84.5793 7.79259 84.5793V84.5793ZM2.39934 73.8402C2.39934 70.866 4.81834 68.447 7.79259 68.447H69.6592C72.6335 68.447 75.0525 70.866 75.0525 73.8402V76.7851C75.0525 79.7594 72.6335 82.1784 69.6592 82.1784L7.79259 82.1791C4.81834 82.1791 2.39934 79.7601 2.39934 76.7859V73.8402Z" fill="black"/>
</svg>
