<svg  class='download'  version="1.0" xmlns="http://www.w3.org/2000/svg"
 width="93.000000pt" height="92.000000pt" viewBox="0 0 93.000000 92.000000"
 preserveAspectRatio="xMidYMid meet">
<metadata>
Created by potrace 1.16, written by Peter Selinger 2001-2019
</metadata>
<g transform="translate(0.000000,92.000000) scale(0.100000,-0.100000)"
fill="#000000" stroke="none">
<path d="M422 908 c-9 -9 -12 -80 -12 -257 l0 -244 -74 71 c-41 40 -81 72 -90
72 -23 0 -56 -36 -56 -62 0 -32 237 -268 270 -268 16 0 59 35 147 122 98 97
123 128 123 149 0 28 -31 59 -58 59 -8 0 -45 -30 -83 -67 l-69 -66 0 235 c0
215 -2 236 -18 251 -22 20 -63 22 -80 5z"/>
<path d="M11 286 c-8 -9 -11 -57 -9 -147 l3 -134 450 -3 c414 -2 451 -1 462
15 20 26 17 232 -3 261 -18 26 -46 28 -68 6 -12 -12 -16 -37 -16 -105 l0 -89
-370 0 -370 0 0 95 c0 83 -2 96 -19 105 -27 14 -46 13 -60 -4z"/>
</g>
</svg>
