<svg width="263" height="154" viewBox="0 0 263 154" fill="none" xmlns="http://www.w3.org/2000/svg">
<path d="M213.237 64.8596C213.237 77.8983 204.718 85.9363 191.965 85.9363H176.711V62.0278L186.125 52.591V77.0641H191.609C198.104 77.0641 203.404 73.3125 203.404 64.8596C203.404 56.4068 198.104 52.5953 191.609 52.5953H176.711V43.7189H192.025C204.718 43.7189 213.237 51.821 213.237 64.8596Z" fill="#333333"/>
<path d="M158.08 66.3483L137.458 86.056H119.405L132.668 63.1058L138.824 73.2013H150.884L138.52 52.9803L144.436 42.7393L158.08 66.3483ZM162.956 74.7841L151.192 86.056H169.472L162.956 74.7841Z" fill="url(#paint0_linear_2_844)"/>
<path d="M120.583 97.8927H124.551V111.89H132.938V115.41H120.583V97.8927V97.8927Z" fill="#333333"/>
<path d="M151.201 97.8927H155.593L162.006 115.41H157.669L156.329 111.393H150.152L148.812 115.41H144.659L151.201 97.8927ZM155.379 108.322L153.251 101.704L151.068 108.322H155.379Z" fill="#333333"/>
<path d="M174.408 97.8927H180.979C182.067 97.8927 182.983 98.021 183.741 98.2734C184.494 98.5301 185.106 98.8638 185.582 99.283C186.053 99.7022 186.395 100.19 186.605 100.742C186.815 101.294 186.922 101.867 186.922 102.461C186.922 103.022 186.823 103.518 186.618 103.946C186.416 104.374 186.181 104.741 185.907 105.049C185.637 105.357 185.355 105.597 185.055 105.772C184.755 105.948 184.503 106.063 184.293 106.115C184.627 106.2 184.974 106.333 185.346 106.508C186.065 106.825 186.66 107.312 187.131 107.98C187.607 108.643 187.842 109.451 187.842 110.397C187.842 111.308 187.679 112.078 187.358 112.707C187.033 113.335 186.579 113.853 185.993 114.255C185.406 114.657 184.687 114.952 183.839 115.136C182.992 115.32 182.037 115.414 180.988 115.414H174.417V97.8927H174.408ZM180.611 104.908C180.911 104.908 181.202 104.874 181.493 104.806C181.784 104.737 182.037 104.626 182.255 104.476C182.474 104.326 182.653 104.125 182.795 103.873C182.936 103.616 183.004 103.308 183.004 102.94C183.004 102.555 182.932 102.235 182.795 101.982C182.653 101.73 182.469 101.529 182.242 101.379C182.015 101.234 181.754 101.127 181.468 101.063C181.176 101.003 180.894 100.973 180.616 100.973H178.278V104.913H180.611V104.908ZM180.851 112.364C181.129 112.364 181.446 112.343 181.797 112.3C182.148 112.257 182.474 112.155 182.773 111.997C183.069 111.838 183.317 111.612 183.522 111.312C183.724 111.013 183.822 110.602 183.822 110.08C183.822 109.605 183.724 109.22 183.531 108.925C183.338 108.63 183.094 108.395 182.795 108.228C182.495 108.061 182.174 107.95 181.823 107.886C181.472 107.826 181.151 107.796 180.851 107.796H178.274V112.364H180.851Z" fill="#333333"/>
<path d="M202.372 110.187C202.599 110.435 202.869 110.683 203.172 110.936C203.481 111.188 203.823 111.419 204.196 111.633C204.572 111.843 204.983 112.014 205.433 112.146C205.878 112.279 206.358 112.343 206.863 112.343C207.162 112.343 207.458 112.3 207.757 112.21C208.057 112.125 208.327 111.997 208.575 111.83C208.819 111.663 209.016 111.462 209.166 111.227C209.311 110.991 209.389 110.722 209.389 110.427C209.389 109.781 209.072 109.276 208.442 108.917C207.813 108.557 206.811 108.202 205.446 107.851C204.778 107.693 204.161 107.466 203.592 107.167C203.023 106.867 202.53 106.512 202.124 106.089C201.713 105.67 201.392 105.191 201.165 104.643C200.938 104.1 200.822 103.497 200.822 102.834C200.822 102.098 200.955 101.405 201.216 100.759C201.477 100.109 201.875 99.5353 202.41 99.0391C202.946 98.5429 203.609 98.1451 204.41 97.8584C205.206 97.5676 206.148 97.4264 207.235 97.4264C208.13 97.4264 208.918 97.5162 209.603 97.7002C210.283 97.8841 210.865 98.1023 211.349 98.3547C211.833 98.6071 212.227 98.8723 212.531 99.1418C212.839 99.4113 213.07 99.6294 213.229 99.7834L210.943 102.303C210.75 102.145 210.527 101.974 210.275 101.79C210.018 101.606 209.735 101.435 209.423 101.276C209.106 101.118 208.759 100.986 208.382 100.883C208.006 100.78 207.608 100.725 207.188 100.725C206.91 100.725 206.632 100.767 206.358 100.857C206.088 100.943 205.84 101.063 205.621 101.212C205.403 101.362 205.227 101.537 205.095 101.738C204.962 101.939 204.898 102.153 204.898 102.38C204.898 102.975 205.215 103.458 205.844 103.826C206.477 104.194 207.342 104.502 208.447 104.746C209.093 104.904 209.731 105.118 210.352 105.387C210.973 105.661 211.529 106.012 212.021 106.453C212.509 106.889 212.908 107.428 213.203 108.07C213.503 108.707 213.648 109.481 213.648 110.392C213.648 111.179 213.473 111.907 213.122 112.574C212.771 113.241 212.291 113.819 211.687 114.307C211.084 114.794 210.373 115.179 209.56 115.449C208.742 115.718 207.865 115.855 206.918 115.855C206.041 115.855 205.244 115.77 204.525 115.603C203.806 115.436 203.16 115.218 202.582 114.944C202.004 114.674 201.481 114.362 201.015 114.011C200.552 113.661 200.15 113.301 199.82 112.933L202.372 110.187Z" fill="#333333"/>
<path d="M115.783 81.2863C112.568 84.623 107.675 87.2495 100.569 87.2495C88.4147 87.2495 78.6411 78.4972 78.6411 65.3387C78.6411 52.1803 88.6502 43.2526 100.449 43.2526C106.969 43.2526 111.605 45.4086 114.765 48.3217L109.563 56.6078C107.975 54.409 105.175 52.4198 100.449 52.4198C94.7892 52.4198 88.4147 56.4666 88.4147 65.3387C88.4147 73.2569 94.2541 77.8427 100.569 77.8427C105.933 77.8427 108.925 75.229 110.479 72.6366L115.783 81.2863Z" fill="#333333"/>
<path d="M71.1535 52.946V44.014H62.8397H44.3413V86.2272H71.1535V77.2952H53.7554V69.1973H64.1669L68.8846 60.9198H53.7554V52.946H71.1535Z" fill="#333333"/>
<defs>
<linearGradient id="paint0_linear_2_844" x1="119.409" y1="64.3963" x2="169.468" y2="64.3963" gradientUnits="userSpaceOnUse">
<stop stop-color="#EA3867"/>
<stop offset="0.1088" stop-color="#EB3D62"/>
<stop offset="0.3033" stop-color="#EE4B53"/>
<stop offset="0.5608" stop-color="#F36137"/>
<stop offset="0.8686" stop-color="#F9810C"/>
<stop offset="0.9132" stop-color="#FA8601"/>
</linearGradient>
 <style type="text/css"><![CDATA[
        #rect1 { fill: url(#Gradient1); }
      ]]></style>
</defs>
</svg>
