<?xml version="1.0" encoding="utf-8"?>
<!-- Generator: Adobe Illustrator 26.0.0, SVG Export Plug-In . SVG Version: 6.00 Build 0)  -->
<svg version="1.1" id="Layer_1" xmlns="http://www.w3.org/2000/svg" xmlns:xlink="http://www.w3.org/1999/xlink" x="0px" y="0px"
	 viewBox="0 0 32.4 36.3" style="enable-background:new 0 0 32.4 36.3;" xml:space="preserve">
<style type="text/css">
	.st0{fill:#24272A;}
	.st1{fill:#D3832B;}
</style>
<path class="st0" d="M24.7,16.2c0,0,3,0.3,5.4-2c3.2-2.5,3.7-11.1-3-13.2c-0.5-0.1-1-0.1-1.5-0.1H7.2c-1,0-2,0.2-2.9,0.5
	c-0.9,0.4-1.7,1-2.4,1.7C0.6,4.5,0,6.3,0,8.6c0,2.2,0.6,4.1,1.9,5.4c0.7,0.7,1.5,1.3,2.4,1.7c0.9,0.4,1.9,0.6,2.9,0.5v12.1
	c0,3,1.3,4.9,2.4,5.9c1.5,1.4,3.6,2.1,6.2,2.1s4.6-0.7,6.2-2.1c1.2-1.2,1.5-2.2,2-3.5C25.1,28.8,24.7,16.2,24.7,16.2z"/>
<path class="st1" d="M7.2,11.7c-0.4,0-0.7,0-1.1-0.2c-0.3-0.1-0.6-0.3-0.9-0.6c-0.5-0.5-0.7-1.3-0.7-2.4s0.2-1.9,0.7-2.4
	c0.3-0.3,0.6-0.5,0.9-0.6s0.7-0.2,1.1-0.2h17.1c0.4,0,0.7,0,1.1,0.2c0.3,0.1,0.7,0.3,0.9,0.6C26.8,6.7,27,7.5,27,8.6
	s-0.2,1.9-0.7,2.4c-0.3,0.3-0.6,0.5-0.9,0.6s-0.7,0.2-1.1,0.2h-4.5v16.6c0,1.1-0.3,2-1,2.6s-1.7,0.9-3.1,0.9s-2.4-0.3-3.1-0.9
	c-0.7-0.6-1-1.5-1-2.6V11.7H7.2z"/>
</svg>
