<svg width="138" height="60" viewBox="0 0 138 60" fill="none" xmlns="http://www.w3.org/2000/svg">
<g clip-path="url(#clip0_152_730)">
<path d="M136.797 31.1585C136.111 29.4074 135.043 27.8288 133.671 26.5356C132.284 25.2535 130.646 24.2694 128.859 23.6449C126.968 22.9926 124.978 22.6705 122.976 22.6928C120.903 22.6682 118.841 22.9931 116.877 23.6535C115.92 23.9869 115.001 24.4184 114.134 24.9411C113.455 24.2852 112.638 23.7867 111.741 23.4814C111.506 22.1308 110.868 20.8817 109.908 19.897C108.948 18.9123 107.712 18.2376 106.361 17.9609C106.747 16.675 106.942 15.3397 106.938 13.9977C106.925 10.4688 105.573 7.07454 103.152 4.49256C100.731 1.91058 97.4183 0.330871 93.8761 0.0688268C93.6361 0.024933 93.3927 0.00190361 93.1486 0L92.7532 0H40.6901C37.9903 0.0694393 35.3682 0.911899 33.1387 2.42615L32.7923 2.67278C30.5719 4.23399 28.8589 6.40572 27.864 8.92104C26.8691 11.4364 26.6357 14.1857 27.1923 16.831C26.7247 16.7464 26.2503 16.7042 25.775 16.7048H7.78266C6.8207 16.6777 5.86409 16.8562 4.9776 17.2282C4.09111 17.6003 3.29545 18.1573 2.64448 18.8614C1.42633 20.1835 0.808594 21.9529 0.808594 24.1152C0.808594 26.2775 1.43499 28.0613 2.67046 29.3862C3.31984 30.0811 4.1103 30.6311 4.98959 30.9999C5.86887 31.3687 6.81695 31.5479 7.77112 31.5256V43.2835C7.77112 46.1943 9.03834 47.9924 10.1006 48.9875C11.5757 50.3669 13.5848 51.0666 16.0701 51.0666C18.5555 51.0666 20.5704 50.3698 22.0512 49.0018C22.1176 48.9387 22.184 48.8757 22.2475 48.8097C23.1833 49.5465 24.2333 50.1276 25.3564 50.5304C26.7889 51.0393 28.3007 51.2927 29.822 51.2789C31.2207 51.305 32.6136 51.0946 33.9412 50.6566C34.4191 50.4911 34.8874 50.2996 35.3441 50.083C35.8617 50.3568 36.4051 50.5797 36.9664 50.7483C37.853 51.0067 38.7731 51.1343 39.6971 51.1269C40.676 51.1361 41.6501 50.9919 42.5837 50.6996C43.4661 50.4183 44.2897 49.9801 45.0143 49.4062C45.6095 49.7941 46.2418 50.1227 46.9021 50.387C48.5721 51.0336 50.3554 51.3417 52.1471 51.2932V52.079C52.1471 54.9468 53.4172 56.7334 54.4824 57.7199C55.9401 59.0649 57.9232 59.7503 60.374 59.7503C62.8247 59.7503 64.8049 59.0649 66.2656 57.717C67.3307 56.7334 68.5979 54.9554 68.5979 52.079V50.2149C68.7971 50.3067 68.9992 50.3898 69.2012 50.4701C72.014 51.5327 75.1122 51.5844 77.9593 50.6164C78.3387 50.4835 78.7107 50.3304 79.0735 50.1576C79.5373 50.4147 80.028 50.6205 80.537 50.7713C81.3799 51.0195 82.2559 51.1394 83.135 51.1269C84.7544 51.1733 86.3482 50.7183 87.6958 49.8249C89.015 50.6508 90.6431 51.0695 92.554 51.0695C95.0047 51.0695 96.9878 50.3841 98.4456 49.0334C98.5639 48.9244 98.6823 48.8097 98.7949 48.6864C100.677 50.3182 103.243 51.1412 106.439 51.1412C107.196 51.1453 107.953 51.0897 108.702 50.9749C109.389 50.8682 110.065 50.7022 110.722 50.4787C111.368 50.2588 111.989 49.9704 112.573 49.6184C112.935 49.3989 113.281 49.1525 113.606 48.8814C114.553 49.5075 115.574 50.016 116.646 50.3956C118.536 51.0506 120.527 51.3738 122.529 51.3506C124.603 51.3753 126.667 51.0495 128.631 50.387C130.492 49.7542 132.194 48.7312 133.622 47.3873C135.032 46.0359 136.117 44.3862 136.797 42.5608C137.488 40.6926 137.83 38.715 137.808 36.7248C137.826 34.8228 137.483 32.9344 136.797 31.1585Z" fill="#24272A"/>
<path d="M66.4775 30.6313C66.4775 29.5674 66.7922 28.7472 67.4215 28.165C68.0507 27.5829 69.0235 27.3047 70.3427 27.3047C71.6619 27.3047 72.6347 27.5915 73.264 28.165C73.8933 28.7386 74.205 29.5674 74.205 30.6313V38.3428C74.205 39.3092 74.3667 39.9832 74.69 40.3732C74.8574 40.5665 75.0674 40.7187 75.3037 40.8182C75.54 40.9177 75.7962 40.9617 76.0525 40.9467C76.2546 40.9475 76.4558 40.9195 76.65 40.8636C76.8328 40.8109 77.0084 40.7358 77.1725 40.6399C77.3283 40.553 77.4753 40.4511 77.6112 40.3359C77.7395 40.2257 77.8609 40.1079 77.9749 39.9832C78.2291 39.6917 78.4427 39.3676 78.61 39.0196V30.6313C78.61 29.5674 78.9246 28.7472 79.551 28.165C80.1774 27.5829 81.1531 27.3047 82.4723 27.3047C83.7915 27.3047 84.7643 27.5915 85.3936 28.165C86.0228 28.7386 86.3346 29.5674 86.3346 30.6313V43.608C86.3346 44.6605 86.0661 45.4549 85.5235 45.9912C84.9808 46.5274 84.1841 46.797 83.1247 46.797C82.681 46.806 82.2384 46.75 81.8113 46.6307C81.4696 46.5345 81.1493 46.3749 80.8673 46.1604C80.6106 45.9589 80.3926 45.7131 80.2236 45.4348C80.0525 45.1512 79.9121 44.8503 79.8051 44.5372L79.6723 44.1472H79.6117C79.276 44.6923 78.8403 45.17 78.3271 45.5553C78.0774 45.7457 77.8151 45.9191 77.5419 46.0743C77.2221 46.2591 76.8847 46.4118 76.5345 46.5303C74.6686 47.1425 72.649 47.1092 70.8046 46.4357C69.9289 46.1051 69.1396 45.5827 68.4953 44.9071C67.8347 44.1971 67.3321 43.3568 67.0202 42.4409C66.6567 41.3657 66.48 40.2368 66.4977 39.1028L66.4775 30.6313Z" fill="white"/>
<path d="M7.78329 27.1815C7.42913 27.2001 7.07511 27.1425 6.74535 27.0129C6.41559 26.8832 6.11783 26.6845 5.87235 26.4302C5.40471 25.9312 5.1709 25.154 5.1709 24.1044C5.1709 23.0548 5.40183 22.2776 5.8608 21.7786C6.10781 21.5232 6.40749 21.3237 6.73932 21.194C7.07114 21.0644 7.42727 21.0075 7.78329 21.0273H24.3929C24.7494 21.0076 25.106 21.0651 25.4379 21.1959C25.7698 21.3266 26.0692 21.5274 26.3154 21.7844C26.7772 22.2834 27.0082 23.0605 27.0082 24.1102C27.0082 25.1598 26.7888 25.9312 26.3067 26.4302C26.0607 26.6845 25.7624 26.8833 25.4322 27.013C25.1019 27.1426 24.7475 27.2001 24.3929 27.1815H20.0456V43.2756C20.0456 44.3768 19.7223 45.2266 19.0757 45.825C18.4291 46.4234 17.4275 46.7265 16.0708 46.7341C14.7237 46.7341 13.7316 46.4339 13.0947 45.8336C12.4577 45.2333 12.1373 44.3835 12.1334 43.2842V27.1815H7.78329Z" fill="white"/>
<path d="M34.5639 34.3293C34.5706 34.067 34.5255 33.8059 34.4311 33.5608C34.3344 33.3338 34.1689 33.1424 33.9577 33.013C33.6668 32.8445 33.3466 32.7316 33.0138 32.6804C32.514 32.5977 32.0077 32.5603 31.5012 32.5685C30.8162 32.5589 30.1318 32.6146 29.4575 32.7349C28.9692 32.8302 28.4873 32.9547 28.0141 33.1077C27.6042 33.2415 27.2376 33.3648 26.9143 33.4776C26.5961 33.5882 26.2614 33.6444 25.9242 33.6439C25.638 33.6524 25.3531 33.6025 25.087 33.4975C24.821 33.3924 24.5793 33.2344 24.377 33.0331C24.1594 32.7934 23.9923 32.5129 23.8857 32.208C23.7791 31.9031 23.7352 31.58 23.7564 31.2579C23.7471 30.8739 23.8178 30.4922 23.9642 30.1366C24.1157 29.7994 24.3302 29.4939 24.5964 29.2362C24.9405 28.9219 25.3296 28.66 25.751 28.459C26.3381 28.1643 26.953 27.928 27.5869 27.7535C28.4096 27.5277 29.2467 27.3572 30.0925 27.2431C31.1448 27.1014 32.2059 27.0333 33.2678 27.0394C36.2275 27.0394 38.4579 27.613 39.959 28.7601C41.46 29.9072 42.2096 31.6136 42.2077 33.8791V38.6626C42.1951 39.3728 42.2444 40.0829 42.3549 40.7847C42.4359 41.2449 42.5449 41.6998 42.6811 42.1469C42.7994 42.5197 42.9091 42.8495 43.0072 43.1392C43.1124 43.4593 43.1631 43.7947 43.1574 44.1314C43.159 44.4912 43.0863 44.8475 42.9437 45.1782C42.7996 45.5109 42.5792 45.8055 42.3 46.0385C41.9802 46.2978 41.6125 46.4926 41.2175 46.6121C40.7221 46.763 40.2057 46.8346 39.6876 46.8243C39.192 46.8318 38.6979 46.7671 38.2212 46.6321C37.8193 46.5134 37.4364 46.3386 37.0839 46.1131C36.7681 45.9086 36.4849 45.6583 36.2439 45.3703C36.0152 45.102 35.8212 44.8062 35.6666 44.4899H35.6088C35.2496 44.9828 34.8001 45.404 34.2839 45.7317C33.7233 46.0943 33.1178 46.3835 32.4826 46.592C31.618 46.8647 30.7137 46.9927 29.8067 46.9705C28.7995 46.9853 27.7977 46.8222 26.848 46.4887C26.017 46.1964 25.2548 45.7388 24.6079 45.1438C23.9927 44.5705 23.5093 43.872 23.1906 43.0962C22.8534 42.2774 22.6846 41.3998 22.6941 40.5152C22.6781 39.6475 22.9179 38.7942 23.384 38.0603C23.8716 37.325 24.5274 36.7148 25.2978 36.2794C26.211 35.7625 27.2009 35.3928 28.2306 35.1839C29.448 34.927 30.6897 34.802 31.9342 34.8111C32.295 34.8111 32.6299 34.8111 32.9416 34.8484L33.7816 34.923C34.0703 34.9603 34.3301 34.9975 34.5668 35.0348L34.5639 34.3293ZM34.5639 39.0583C34.4138 39.021 34.2377 38.9838 34.0414 38.9465C33.8451 38.9092 33.6575 38.8977 33.415 38.8719C33.1725 38.8461 32.907 38.8375 32.6212 38.8375C32.0686 38.8035 31.5172 38.9216 31.0278 39.1788C30.8503 39.2843 30.7052 39.436 30.6081 39.6174C30.5109 39.7988 30.4654 40.0031 30.4764 40.2083C30.4739 40.4051 30.5123 40.6004 30.589 40.7819C30.6601 40.9548 30.772 41.1082 30.9152 41.2292C31.071 41.3594 31.2517 41.4569 31.4463 41.516C31.689 41.587 31.9411 41.6208 32.194 41.6164C32.5475 41.6242 32.8992 41.5648 33.2303 41.4414C33.4919 41.3407 33.7393 41.2067 33.9664 41.0428C34.1909 40.8796 34.3919 40.6866 34.5639 40.4693V39.0583Z" fill="white"/>
<path d="M56.5201 48.4877C56.5201 47.9141 56.5432 47.3664 56.5865 46.8358C56.6298 46.3053 56.6905 45.7289 56.7655 45.1151H56.7078C56.3722 45.4937 55.9751 45.8136 55.5329 46.0615C55.0543 46.3293 54.5469 46.5428 54.0203 46.6982C53.3118 46.9035 52.5759 47.0002 51.838 46.9849C50.7119 47.0001 49.5934 46.7985 48.5444 46.3913C47.5682 46.0049 46.6978 45.3947 46.0042 44.6104C45.2625 43.749 44.7065 42.7456 44.3704 41.6623C43.9635 40.3347 43.7687 38.9519 43.793 37.5643C43.7692 36.058 44.0195 34.5599 44.532 33.1422C44.9915 31.8838 45.7419 30.7502 46.723 29.8327C47.7728 28.8899 49.0141 28.1819 50.363 27.7565C51.9958 27.2474 53.7006 27.0034 55.4117 27.0338C56.4662 27.0246 57.5201 27.084 58.5668 27.2116C59.3265 27.3036 60.0781 27.4522 60.8154 27.6561C61.3302 27.7946 61.8264 27.9939 62.2934 28.2497C62.6072 28.4191 62.8982 28.6272 63.1594 28.8692C63.3267 29.0363 63.4802 29.2166 63.6183 29.4083C63.7532 29.6015 63.8655 29.8093 63.9532 30.0277C64.0534 30.285 64.1251 30.5523 64.1668 30.825C64.2195 31.1714 64.2445 31.5214 64.2418 31.8717V52.1011C64.2418 53.166 63.9282 53.9881 63.3008 54.5674C62.6734 55.1467 61.6997 55.4334 60.3795 55.4277C59.0594 55.4277 58.0856 55.1409 57.4583 54.5674C56.8309 53.9938 56.5163 53.1717 56.5144 52.1011L56.5201 48.4877ZM56.5201 33.0418C56.396 32.993 56.2546 32.9414 56.0929 32.8927C55.9239 32.8488 55.7523 32.8152 55.5791 32.7923C55.3469 32.7583 55.1124 32.742 54.8777 32.7435C54.4234 32.7386 53.9729 32.8244 53.5527 32.9959C53.1476 33.1694 52.7946 33.444 52.5279 33.7931C52.218 34.2054 51.9924 34.674 51.864 35.1725C51.697 35.8284 51.6193 36.5036 51.6331 37.18C51.6215 37.7837 51.6776 38.3868 51.8005 38.9781C51.8842 39.3916 52.0416 39.7868 52.2653 40.1453C52.4405 40.4206 52.6894 40.642 52.984 40.7848C53.2681 40.9151 53.5775 40.9817 53.8904 40.9798C54.1012 40.9813 54.3111 40.9533 54.5139 40.8966C54.7032 40.844 54.8854 40.7689 55.0566 40.673C55.216 40.5874 55.366 40.4855 55.504 40.369C55.6323 40.2587 55.7538 40.1409 55.8678 40.0162C56.1237 39.7224 56.3427 39.3989 56.5201 39.0527V33.0418Z" fill="white"/>
<path d="M112.057 37.3228C112.034 35.8566 112.282 34.3987 112.787 33.0211C113.239 31.7984 113.962 30.6926 114.903 29.7862C115.885 28.8702 117.054 28.1748 118.33 27.7472C119.827 27.2486 121.398 27.0071 122.977 27.0332C124.474 27.0102 125.963 27.245 127.379 27.7272C128.603 28.1495 129.726 28.8194 130.676 29.6945C131.578 30.5512 132.278 31.5963 132.725 32.7544C133.212 34.0229 133.453 35.3716 133.435 36.7291C133.458 38.1953 133.211 39.6532 132.705 41.0308C132.253 42.2541 131.53 43.3606 130.589 44.2685C129.608 45.1846 128.439 45.88 127.163 46.3075C125.666 46.806 124.094 47.0475 122.515 47.0216C121.018 47.0451 119.529 46.8093 118.113 46.3247C116.893 45.9031 115.774 45.2341 114.828 44.3603C113.922 43.5055 113.218 42.4613 112.767 41.3033C112.279 40.0329 112.038 38.6823 112.057 37.3228ZM119.897 37.0016C119.886 37.6669 119.961 38.331 120.119 38.9775C120.239 39.4619 120.449 39.92 120.737 40.3282C120.972 40.6607 121.291 40.9265 121.661 41.0996C122.015 41.2601 122.4 41.3423 122.79 41.3405C123.167 41.3423 123.54 41.26 123.881 41.0996C124.239 40.9254 124.547 40.664 124.776 40.3397C125.058 39.9374 125.264 39.4875 125.385 39.0119C125.544 38.3791 125.619 37.7283 125.607 37.0761C125.619 36.4145 125.544 35.7542 125.385 35.1117C125.264 34.6294 125.054 34.1734 124.767 33.7667C124.53 33.4334 124.212 33.165 123.843 32.9867C123.491 32.8203 123.105 32.7351 122.715 32.7372C122.337 32.7351 121.964 32.8175 121.623 32.9781C121.265 33.1513 120.957 33.413 120.729 33.738C120.447 34.1395 120.24 34.5884 120.119 35.063C119.96 35.6967 119.885 36.3485 119.897 37.0016Z" fill="white"/>
<path d="M88.4434 30.6313C88.4434 29.5674 88.758 28.7472 89.3844 28.165C90.0108 27.5829 90.9865 27.3047 92.3057 27.3047C93.6248 27.3047 94.6005 27.5915 95.2269 28.165C95.8533 28.7386 96.1708 29.5674 96.1708 30.6313V43.3872C96.1708 44.4512 95.8562 45.2714 95.2269 45.8535C94.5976 46.4357 93.6248 46.7139 92.3057 46.7139C90.9865 46.7139 90.0137 46.4271 89.3844 45.8535C88.7551 45.28 88.4434 44.4512 88.4434 43.3872V30.6313Z" fill="white"/>
<path d="M99.4691 32.9499C99.1525 32.9638 98.8366 32.9095 98.5431 32.7907C98.2496 32.6719 97.9855 32.4914 97.7688 32.2616C97.3474 31.8057 97.1338 31.1145 97.1338 30.2026C97.1338 29.2906 97.3474 28.5995 97.7688 28.1406C97.986 27.9117 98.2503 27.7319 98.5437 27.6137C98.8371 27.4954 99.1527 27.4413 99.4691 27.4552H100.364L101.166 24.9459C101.382 24.1284 101.814 23.383 102.416 22.7865C102.94 22.3142 103.68 22.0781 104.636 22.0781C105.646 22.0781 106.411 22.342 106.945 22.8668C107.479 23.3916 107.739 24.1716 107.739 25.1983V27.4438H109.679C109.994 27.4328 110.307 27.4894 110.598 27.6097C110.889 27.7299 111.151 27.911 111.365 28.1406C111.79 28.5995 112.002 29.2868 112 30.2026C112 31.1174 111.789 31.8057 111.365 32.2616C111.149 32.4916 110.885 32.6723 110.592 32.7912C110.299 32.91 109.984 32.9642 109.667 32.9499H107.728V39.0611C107.693 39.5591 107.802 40.0565 108.042 40.495C108.148 40.6467 108.291 40.7688 108.458 40.8497C108.625 40.9305 108.81 40.9674 108.995 40.9568C109.113 40.957 109.232 40.9513 109.35 40.9395C109.463 40.9252 109.566 40.9109 109.667 40.8908L109.956 40.8363C110.061 40.8178 110.167 40.8082 110.274 40.8076C110.528 40.8051 110.78 40.8588 111.011 40.965C111.243 41.0711 111.447 41.227 111.61 41.4213C111.783 41.6286 111.918 41.8645 112.009 42.1182C112.112 42.4002 112.163 42.6985 112.159 42.9986C112.17 43.4558 112.088 43.9106 111.916 44.335C111.737 44.7313 111.485 45.0903 111.171 45.3932C110.957 45.6024 110.719 45.7853 110.461 45.9381C110.146 46.128 109.812 46.2829 109.463 46.3998C109.046 46.5409 108.618 46.6445 108.184 46.7095C107.665 46.7874 107.141 46.8248 106.616 46.8214C104.34 46.8214 102.666 46.2832 101.596 45.2068C100.527 44.1304 99.9915 42.4289 99.9915 40.1022V32.9327L99.4691 32.9499Z" fill="white"/>
<path d="M56.1189 12.2303C46.3246 12.2303 41.8561 8.27281 39.7402 4.45865C40.2079 4.38122 40.6264 4.17188 41.1172 4.17188H41.2932H80.6754C78.4928 5.08001 76.3664 6.11615 74.3075 7.27482C69.5821 9.82428 65.1194 12.2303 56.1189 12.2303Z" fill="#D6832B"/>
<path d="M31.6172 13.8162C31.6084 16.3428 32.5994 18.7716 34.3765 20.5789C36.1536 22.3863 38.5745 23.4274 41.1171 23.4778H93.287C95.8639 23.4778 98.3353 22.4608 100.157 20.6505C101.98 18.8402 103.003 16.385 103.003 13.8248C103.003 11.2647 101.98 8.80944 100.157 6.99916C98.3353 5.18888 95.8639 4.17188 93.287 4.17188H93.2437H93.2235H93.2061H92.0255C83.5591 4.78271 79.9508 7.20886 75.5718 9.57191C70.7627 12.1701 65.7919 14.8544 56.1246 14.8544C45.2623 14.8458 39.6911 10.177 37.1076 5.167C35.4673 5.9511 34.0824 7.17821 33.1114 8.70784C32.1405 10.2375 31.6226 12.0078 31.6172 13.8162Z" fill="#D6832B"/>
<path d="M84.5205 13.8055C84.5205 12.2741 84.9776 10.7771 85.834 9.50373C86.6904 8.2304 87.9076 7.23796 89.3318 6.65191C90.7559 6.06585 92.323 5.91252 93.8349 6.21128C95.3467 6.51005 96.7355 7.2475 97.8255 8.33038C98.9155 9.41326 99.6578 10.7929 99.9585 12.2949C100.259 13.7969 100.105 15.3538 99.515 16.7686C98.9251 18.1835 97.9261 19.3928 96.6444 20.2436C95.3627 21.0944 93.8559 21.5485 92.3144 21.5485C90.2473 21.5485 88.2649 20.7328 86.8033 19.2807C85.3416 17.8286 84.5205 15.8591 84.5205 13.8055Z" fill="#FFB600"/>
</g>
<defs>
<clipPath id="clip0_152_730">
<rect width="137" height="60" fill="white" transform="translate(0.808594)"/>
</clipPath>
</defs>
</svg>
