<svg width="26" height="24" viewBox="0 0 26 24" fill="none" xmlns="http://www.w3.org/2000/svg">
<path d="M8.90918 19.0137C8.90918 19.1113 8.79688 19.1895 8.65527 19.1895C8.49414 19.2041 8.38184 19.126 8.38184 19.0137C8.38184 18.916 8.49414 18.8379 8.63574 18.8379C8.78223 18.8232 8.90918 18.9014 8.90918 19.0137ZM7.39062 18.7939C7.35645 18.8916 7.4541 19.0039 7.60059 19.0332C7.72754 19.082 7.87402 19.0332 7.90332 18.9355C7.93262 18.8379 7.83984 18.7256 7.69336 18.6816C7.56641 18.6475 7.4248 18.6963 7.39062 18.7939ZM9.54883 18.7109C9.40723 18.7451 9.30957 18.8379 9.32422 18.9502C9.33887 19.0479 9.46582 19.1113 9.6123 19.0771C9.75391 19.043 9.85156 18.9502 9.83691 18.8525C9.82227 18.7598 9.69043 18.6963 9.54883 18.7109ZM12.7617 0C5.98926 0 0.808594 5.1416 0.808594 11.9141C0.808594 17.3291 4.2168 21.9629 9.08496 23.5938C9.70996 23.7061 9.92969 23.3203 9.92969 23.0029C9.92969 22.7002 9.91504 21.0303 9.91504 20.0049C9.91504 20.0049 6.49707 20.7373 5.7793 18.5498C5.7793 18.5498 5.22266 17.1289 4.42188 16.7627C4.42188 16.7627 3.30371 15.9961 4.5 16.0107C4.5 16.0107 5.71582 16.1084 6.38477 17.2705C7.4541 19.1553 9.24609 18.6133 9.94434 18.291C10.0566 17.5098 10.374 16.9678 10.7256 16.6455C7.99609 16.3428 5.24219 15.9473 5.24219 11.25C5.24219 9.90723 5.61328 9.2334 6.39453 8.37402C6.26758 8.05664 5.85254 6.74805 6.52148 5.05859C7.54199 4.74121 9.89062 6.37695 9.89062 6.37695C10.8672 6.10352 11.917 5.96191 12.957 5.96191C13.9971 5.96191 15.0469 6.10352 16.0234 6.37695C16.0234 6.37695 18.3721 4.73633 19.3926 5.05859C20.0615 6.75293 19.6465 8.05664 19.5195 8.37402C20.3008 9.23828 20.7793 9.91211 20.7793 11.25C20.7793 15.9619 17.9033 16.3379 15.1738 16.6455C15.623 17.0312 16.0039 17.7637 16.0039 18.9111C16.0039 20.5566 15.9893 22.5928 15.9893 22.9932C15.9893 23.3105 16.2139 23.6963 16.834 23.584C21.7168 21.9629 25.0273 17.3291 25.0273 11.9141C25.0273 5.1416 19.5342 0 12.7617 0ZM5.55469 16.8408C5.49121 16.8896 5.50586 17.002 5.58887 17.0947C5.66699 17.1729 5.7793 17.207 5.84277 17.1436C5.90625 17.0947 5.8916 16.9824 5.80859 16.8896C5.73047 16.8115 5.61816 16.7773 5.55469 16.8408ZM5.02734 16.4453C4.99316 16.5088 5.04199 16.5869 5.13965 16.6357C5.21777 16.6846 5.31543 16.6699 5.34961 16.6016C5.38379 16.5381 5.33496 16.46 5.2373 16.4111C5.13965 16.3818 5.06152 16.3965 5.02734 16.4453ZM6.60938 18.1836C6.53125 18.2471 6.56055 18.3936 6.67285 18.4863C6.78516 18.5986 6.92676 18.6133 6.99023 18.5352C7.05371 18.4717 7.02441 18.3252 6.92676 18.2324C6.81934 18.1201 6.67285 18.1055 6.60938 18.1836ZM6.05273 17.4658C5.97461 17.5146 5.97461 17.6416 6.05273 17.7539C6.13086 17.8662 6.2627 17.915 6.32617 17.8662C6.4043 17.8027 6.4043 17.6758 6.32617 17.5635C6.25781 17.4512 6.13086 17.4023 6.05273 17.4658Z" fill="white"/>
</svg>
