<svg width="30" height="29" viewBox="0 0 30 29" fill="none" xmlns="http://www.w3.org/2000/svg">
<path d="M19.4756 8.9974L24.1423 4.33073M26.809 1.66406L24.1423 4.33073L26.809 1.66406ZM13.9956 14.4774C14.6841 15.1567 15.2314 15.9654 15.606 16.8571C15.9806 17.7488 16.1751 18.7057 16.1783 19.6729C16.1816 20.6401 15.9935 21.5983 15.6248 22.4925C15.2562 23.3866 14.7144 24.199 14.0305 24.8829C13.3466 25.5668 12.5342 26.1087 11.64 26.4773C10.7459 26.8459 9.78763 27.034 8.82047 27.0308C7.85331 27.0275 6.89635 26.833 6.00468 26.4584C5.11301 26.0838 4.30425 25.5365 3.62496 24.8481C2.28913 23.465 1.54998 21.6126 1.56668 19.6898C1.58339 17.767 2.35463 15.9277 3.71429 14.5681C5.07395 13.2084 6.91324 12.4372 8.83602 12.4205C10.7588 12.4037 12.6112 13.1429 13.9943 14.4787L13.9956 14.4774ZM13.9956 14.4774L19.4756 8.9974L13.9956 14.4774ZM19.4756 8.9974L23.4756 12.9974L28.1423 8.33073L24.1423 4.33073L19.4756 8.9974Z" stroke="#D3832B" stroke-width="2" stroke-linecap="round" stroke-linejoin="round"/>
</svg>
