<svg width="400" height="123" viewBox="0 0 400 123" fill="none" xmlns="http://www.w3.org/2000/svg">
<mask id="mask0" mask-type="alpha" maskUnits="userSpaceOnUse" x="277" y="0" width="123" height="123">
<circle cx="338.48" cy="61.16" r="61" fill="#C4C4C4"/>
</mask>
<g mask="url(#mask0)">
<path d="M277.48 0.160034H338.359C372.115 0.160034 399.479 27.5243 399.479 61.2799V122.16H277.48V0.160034Z" fill="#3AA0FF"/>
<mask id="mask1" mask-type="alpha" maskUnits="userSpaceOnUse" x="277" y="0" width="123" height="123">
<path d="M277.48 0.160034H338.359C372.115 0.160034 399.479 27.5243 399.479 61.2799V122.16H277.48V0.160034Z" fill="#C4C4C4"/>
</mask>
<g mask="url(#mask1)">
<rect width="302.895" height="134.44" transform="matrix(0.707103 -0.70711 0.707103 0.70711 211.518 188.047)" fill="#2888FF"/>
</g>
<path d="M320.367 79.2726V0.160034H277.48V79.2726V122.16H320.367H399.479V79.2726H320.367Z" fill="#0E74FF"/>
<mask id="mask2" mask-type="alpha" maskUnits="userSpaceOnUse" x="277" y="0" width="123" height="123">
<path d="M320.367 79.2726V0.160034H277.48V79.2726V122.16H320.367H399.479V79.2726H320.367Z" fill="black"/>
</mask>
<g mask="url(#mask2)">
<rect width="302.895" height="134.44" transform="matrix(0.707103 -0.70711 0.707103 0.70711 224.911 174.376)" fill="#0540FF"/>
</g>
<mask id="mask3" mask-type="alpha" maskUnits="userSpaceOnUse" x="338" y="0" width="62" height="62">
<path d="M338.481 0.160156C372.17 0.160156 399.48 27.4711 399.48 61.1602H338.481V0.160156Z" fill="#AAA4A4"/>
</mask>
<g mask="url(#mask3)">
<rect x="362.598" y="-30.2839" width="67.3097" height="67.3104" fill="#B4DBFF"/>
</g>
</g>
<g clip-path="url(#clip0)">
<path d="M264 2.65315e-05C262.087 1.9766 260.416 3.80112 258.655 5.56483C254.13 10.0653 249.575 14.5354 245.11 19.0967C244.138 20.0698 243.197 20.4955 241.8 20.4955C228.832 20.4347 215.895 20.678 202.927 20.4043C193.452 20.161 185.435 23.4148 178.389 29.4965C171.495 35.4567 166.424 42.6939 164.267 51.6645C162.658 58.3849 163.569 65.0748 165.33 71.6431C167.669 80.3096 171.86 87.8814 178.936 93.5678C186.953 100.014 196.277 101.93 206.268 101.444C211.552 101.2 216.745 100.501 221.696 98.5549C222.151 98.3724 222.637 98.1596 223.093 97.9771C226.889 96.5479 228.832 94.3889 228.589 89.7667C228.104 80.9786 228.438 72.1296 228.438 63.3111C228.438 62.7029 228.438 62.1251 228.438 61.3953C234.633 61.3953 240.676 61.3953 246.902 61.3953C246.932 61.8819 246.963 62.4292 246.963 62.9462C246.963 76.2348 246.993 89.493 246.932 102.782C246.932 103.542 246.598 104.485 246.082 105.062C238.368 113.577 228.832 119.02 217.565 120.844C202.715 123.247 188.077 122 174.563 114.976C158.011 106.37 146.866 93.0509 143.009 74.4711C139.547 57.9287 141.642 42.0858 151.543 28.0369C161.382 14.0793 174.714 4.92625 191.509 1.12515C194.637 0.425749 197.734 2.65315e-05 200.953 2.65315e-05C221.513 0.0304353 242.043 -0.0303822 262.603 -0.060791C263.028 2.65315e-05 263.393 2.65315e-05 264 2.65315e-05Z" fill="black"/>
<path d="M100.887 121.605C100.887 80.9177 100.887 40.5957 100.887 0.121643C108.266 0.121643 115.585 0.121643 123.087 0.121643C123.117 0.577775 123.178 1.12513 123.178 1.64208C123.178 33.7233 123.178 65.8046 123.208 97.8858C123.208 98.9197 122.935 99.68 122.176 100.41C115.434 107.13 108.692 113.85 101.98 120.601C101.707 120.905 101.403 121.149 100.887 121.605Z" fill="black"/>
<path d="M0.242939 0.060791C7.16713 0.060791 13.9395 0.060791 20.8637 0.060791C20.894 0.638558 20.9548 1.18592 20.9548 1.73327C20.9548 30.5608 20.9548 59.4187 20.9244 88.2462C20.9244 88.976 20.6511 89.8883 20.1652 90.3748C13.7573 96.8823 7.28861 103.329 0.850325 109.776C0.698478 109.928 0.485894 110.08 0.21257 110.293C0.242939 73.4372 0.242939 36.7338 0.242939 0.060791Z" fill="black"/>
<path d="M0 121.179C0.485908 120.936 1.09329 120.784 1.48809 120.419C8.1997 113.759 14.8809 107.039 21.5925 100.379C22.1088 99.8624 22.9592 99.4367 23.6273 99.4367C43.0636 99.4063 62.4696 99.4367 81.9059 99.4367C82.2703 99.4367 82.6044 99.4671 83.1207 99.4975C83.1207 106.917 83.1207 114.276 83.1207 121.787C55.6365 121.787 28.0612 121.787 0.516277 121.787C0.334062 121.605 0.182216 121.392 0 121.179Z" fill="black"/>
</g>
<defs>
<clipPath id="clip0">
<rect width="264" height="122" fill="white"/>
</clipPath>
</defs>
</svg>
