<svg xmlns="http://www.w3.org/2000/svg" xmlns:xlink="http://www.w3.org/1999/xlink" viewBox="0 0 626.83 197.18"><defs><style>.cls-1,.cls-8{fill:none;}.cls-2{fill:#00aeef;}.cls-3{fill:#231f20;}.cls-4,.cls-8{stroke:#231f20;stroke-miterlimit:10;}.cls-4{stroke-width:5px;fill:url(#New_Pattern_Swatch_3);}.cls-5{fill:url(#linear-gradient);}.cls-6{fill:#fff;}.cls-7{fill:url(#linear-gradient-2);}.cls-8{stroke-width:4px;}</style><pattern id="New_Pattern_Swatch_3" data-name="New Pattern Swatch 3" width="14.76" height="8.52" patternTransform="translate(60.99 31.46)" patternUnits="userSpaceOnUse" viewBox="0 0 14.76 8.52"><rect class="cls-1" width="14.76" height="8.52"/><rect class="cls-2" width="14.76" height="8.52"/><circle cx="12.95" cy="2.96" r="1.3"/><circle cx="5.57" cy="7.22" r="1.3"/></pattern><linearGradient id="linear-gradient" x1="336.24" y1="-63.54" x2="334.56" y2="113.95" gradientUnits="userSpaceOnUse"><stop offset="0.65" stop-color="#fff200"/><stop offset="0.96" stop-color="#ed1c24"/></linearGradient><linearGradient id="linear-gradient-2" x1="31" y1="-66.42" x2="29.32" y2="111.07" xlink:href="#linear-gradient"/></defs><g id="Layer_2" data-name="Layer 2"><g id="Layer_1-2" data-name="Layer 1"><polygon class="cls-3" points="366.02 43.3 375.81 19.29 51.38 37.42 22.35 183.31 315.23 168.02 305.41 197.18 589.84 182.76 618.88 31.87 366.02 43.3"/><polygon class="cls-4" points="353.97 29.7 363.6 2.69 44.62 18.82 16.07 163.71 304.03 149.42 294.38 178.58 574.02 164.16 603.04 17.39 353.97 29.7"/><polygon class="cls-3" points="36.72 47.81 18.86 136.53 39.64 135.57 57.17 47.37 36.72 47.81"/><path class="cls-3" d="M614.12,52.6a36.33,36.33,0,0,0-11.9-4.93c-9.31-2.36-60.68-2.83-62.86-2.85l-2.12,0-.71,2c-1,2.86-2,5.6-3,8.39-.67,1.84-1.36,3.72-2.06,5.67-5.44-5-17.19-13.11-35.77-13.17h-.24a78.3,78.3,0,0,0-44.34,14c-2.48-6.72-8.58-14-25.64-16.18a52.6,52.6,0,0,0-5.42-.24c-17.65,0-51.45,5.56-55.89,6.59l-2.14.5-.16,2.2c-.21,2.93-.55,6.25-1,9.84A30,30,0,0,0,354.7,53c-7.32-8.43-19.31-12.71-35.64-12.71-10.22,0-22.28,1.7-35.85,5.07l-.81.2L284.81,36,232,41.69l1-7.15-92.64,6-.71,1.71a13.71,13.71,0,0,0-.49,1.53l-23.56,1.75,1.12,22.22L101.47,39.07,63.65,45.35,46,132.49l38.39-2.58,7.2-30.21,17.9,31.18,34.72-2.26,9.08-56.16,3.34-.31c1.39-.12,3.81-.26,5.41-.39-2,11.8-9,53.43-9,53.43l38.59-3.82L200,69.08l4.44-.36,1.87-.16-7.86,59,69-4.88-2.65,14.54h.1l-.15.82,41.28-1.61,3.49-23.58,2-.58c6,10,18.91,31.16,19.05,31.39l1.16,1.9,19.52-5.26-.16,1.4c-.51,4.48-1.59,14.76-1.59,14.76l44.84-7.23L395.9,132a73.06,73.06,0,0,0,29.49-9.17c10.12,20.87,28.58,25.37,42.6,25.37a80.5,80.5,0,0,0,36.87-9.46c-.57,1.57-2.57,6.88-2.57,6.88l42.53,2.08L551.29,128c4.57.38,17,.42,19,.26,12.43-1,22-3.7,29.64-7.85C605,96.38,610.39,70.9,614.12,52.6Zm-373,43.15-3.49.32-.74.07.09-.56c12.36-1.16,19-1.41,22.48-1.53Zm31.88-3-9,.83.14-.24L269,68.25l7.79-.45L279,58.87Zm40.39-6.1,2.38-16.06a13.16,13.16,0,0,1,3.12-.43c3.94,0,4.81,2.52,4.85,4.62C323.82,79.11,320.28,84.94,313.4,86.7Zm43.38,6.86q-.87,5.84-1.67,11.24l-8.17-8.21A37.22,37.22,0,0,0,358,85.12C357.62,87.93,357.2,90.76,356.78,93.56Zm41.93,6,1.73-20.14a24.8,24.8,0,0,1,4.77-.51c4.83,0,7.8,1.91,8.13,5.23C413.79,88.57,409.37,96,398.71,99.51Zm88.4,13.13a33,33,0,0,1-14.48,3.67c-6.64,0-11.46-2.54-13.23-7-3.18-8,4.42-19.8,16.58-25.85a33,33,0,0,1,14.47-3.67c6.64,0,11.47,2.54,13.23,7C506.86,94.75,499.27,106.59,487.11,112.64Zm95.57-22.51-.11.18c-3.12,5.42-12.68,7.34-19.92,7.34h-1.27c2.35-7.12,4.59-13.93,6.67-20.32.76,0,13.5,0,15.42,4.83a9.88,9.88,0,0,1-.66,7.82Z"/><path class="cls-3" d="M348.41,141.79c.27-1.79.56-4.58.9-7.82.19-1.85.4-3.86.63-5.93l-20.35,5.45-.78-1.27c-.14-.23-13.59-22.08-19.47-31.87-1.12.33-2.38.61-3.53.84l-3.48,23.37-39.46,1.52,2.71-15.4L196,115.56l7.91-59-3.12.25c-1.64.14-3.34.28-5.25.42l-8.47,52.31-37.8,3.62.43-2.57c.07-.41,6.37-37.71,8.64-50.84-2.19.17-4,.34-5.73.5l-4.14.37-9.13,56.06L105.76,119l-19-32.73-7.64,31.79-36.63,2.44L59.92,36.41l32.26-4.63,16.54,28.67,3.6-24.88L136,33.82a14.79,14.79,0,0,1,.62-2.08l.48-1.13,91.41-6.93-1,8.22,51.93-5.63L273,55.93,236.33,58l-.26,2,28.76-1.78L260,81.83l-1.62.14c-1.88.16-6.19.53-25.64,1.82l-.38,2.55,38.39-3.53,8.4-47.12,1.26-.31c14.21-3.5,26.79-5.28,37.4-5.28,16.37,0,28.16,4.11,35.07,12.2a25.77,25.77,0,0,1,6,15c.64-5,1.15-9.62,1.44-13.53l.11-1.47,1.44-.34c4.45-1,38.35-6.56,56.06-6.56,2.07,0,3.87.08,5.35.23,9.91,1.28,21.45,4.38,25.39,16.82,9.51-7.17,26.06-14.67,45.19-14.67h.23c19.8.06,31.72,9.3,36.46,13.94.88-2.46,1.74-4.8,2.59-7.09,1-2.79,2-5.54,3-8.41l.47-1.34h1.43c2.19,0,53.8.48,63.06,2.82,9.37,2.16,16.1,6.73,20,13.58,4.12,7.29,6.69,17.61,3.54,27.29-8.1,22.46-21.05,34.61-55.7,37.77-2,.18-4.19.27-6.58.27-3.57,0-7.62-.2-13-.63-.26.78-.54,1.65-.84,2.59-1.53,4.75-3.62,11.25-5.2,15.79l-.48,1.39-1.46,0c-3.87-.11-21.69-.85-36.56-1.66l-2.74-.15,1-2.56c.32-.85,1-2.64,2.11-5.74a81.56,81.56,0,0,1-39,10.67c-14.05,0-32.6-4.54-42.47-25.77a78.88,78.88,0,0,1-14.9,6.55,83.5,83.5,0,0,1-16.16,3.12l-1.5,17.25-1.54.25s-21.05,3.41-39,6.36l-2.71.45Zm140.5-73.88a34.34,34.34,0,0,0-15,3.78C461,78.07,453.26,90.23,456.71,98.8c1.91,4.76,7.24,7.6,14.25,7.6a34.3,34.3,0,0,0,15-3.78c12.92-6.38,20.62-18.54,17.18-27.11C501.25,70.75,495.92,67.91,488.91,67.91ZM353.29,96.17c.61-4.26,1.29-8.71,2-13.37.78-5.17,1.57-10.41,2.29-15.47-2.34,7.29-7.21,13.29-14.77,18.2ZM395.39,90c9.1-2.67,17.61-9.39,16.85-16.88-.39-3.89-3.74-6.13-9.18-6.13a26.7,26.7,0,0,0-5.73.69ZM559,87.67c.86,0,1.74.08,2.64.08,7.56,0,17.58-2.06,20.93-7.84l.07-.12.09-.11c.89-1.15,2.44-5.47.78-8.88-1.74-3.56-6.65-5.44-14.21-5.44-.94,0-1.93,0-2.95.08C564,72.44,561.55,79.9,559,87.67ZM309.4,77.07c8.73-1.39,12.7-8.4,12.62-13.17,0-1.68-.66-5.6-5.88-5.6a14.86,14.86,0,0,0-4,.64Z"/><path class="cls-3" d="M600.72,39.67c-9.13-2.3-62.59-2.76-62.59-2.76-2.2,6.22-4.39,11.91-6.75,18.63,0,0-12-15.66-37.23-15.74-19.4-.06-37.06,8-46.59,16.18-2.28-11.85-11-16.61-24.43-18.34-14.38-1.49-55.26,5-60.75,6.29-1.06,14.24-5,37.47-7.56,55.63a12.72,12.72,0,0,0-1.73-.75L339.61,85.15c10.07-5.89,15.53-13.4,17.1-22.74,2.15-13.46-7-42-75.79-25.09l-8.44,47.35L230,88.57l1-6.67c21.31-1.41,25.59-1.78,27.34-1.93l4-19.59-28.59,1.77.8-6L271.33,54l5.51-25.46-51.69,5.61,1-8.31-87.76,6.65a20.74,20.74,0,0,0-.85,3.2l-23.51,1.73-4.19,29L91.12,34,61.59,38.19,45,118.32l32.53-2.17L86,80.93l20.89,36,30.73-2.11,9.13-56c4.4-.33,7.87-.74,14-1.2-1.74,9.93-9.08,53.37-9.08,53.37l33.67-3.22,8.48-52.35c4.88-.35,8.41-.68,12.4-1l-7.92,59L268,108.5,265.27,124l35.32-1.37L304,99.48a33.89,33.89,0,0,0,6.18-1.55c5.37,9,20.29,33.24,20.29,33.24l21.76-5.82c-.81,6.67-1.37,13.37-1.88,16.74,17.95-3,39-6.36,39-6.36s.63-7.26,1.51-17.35a84.47,84.47,0,0,0,17.38-3.2,75.13,75.13,0,0,0,16.45-7.53c17,40.79,68.05,25.94,84.42,12.93-2.24,6.53-3.52,9.93-4.12,11.51,14.28.77,32.38,1.53,36.5,1.65,2.1-6.05,5.12-15.58,6.51-19.85,8.64.74,15.14,1,20.79.48,34-3.09,44.2-15.45,52-37C625.24,63.77,623.32,44.88,600.72,39.67ZM310.31,57.41c20.22-6.95,17.19,21.17-3.26,21.9Zm82.85,35.16c.87-10.11,1.72-19.87,2.3-26.54C421.92,59.14,419.86,87.13,393.16,92.57Zm93.71,11.85c-13.86,6.84-28.19,4.66-32-4.87S459.14,76.74,473,69.89s28.18-4.66,32,4.87S500.72,97.57,486.87,104.42Zm97.4-23.51c-4.51,7.78-18.59,9.7-28,8.51q4.56-13.67,8.57-25.88C591.62,61.45,586.58,78,584.27,80.91Z"/><path class="cls-5" d="M352.72,139.68c.18-1.54.36-3.34.57-5.3.28-2.7.6-5.76,1-8.79l.36-2.94-23.17,6.21c-3.15-5.11-14.9-24.24-19.5-32l-.88-1.48-1.6.66a31.62,31.62,0,0,1-5.76,1.43l-1.42.25-3.42,22.93-31.19,1.21,2.74-15.57-69.82,4.9,7.92-59-2.46.18c-1.91.14-3.72.29-5.62.45l-6.78.53-1.57.12-8.49,52.37-29.53,2.83c1.6-9.49,7.17-42.37,8.64-50.78l.44-2.53-2.56.19c-3.41.25-6,.49-8.36.71-1.91.17-3.68.34-5.64.48l-1.58.12-9.11,56L108,114.83,85.2,75.61l-9.28,38.64-28.44,1.9L63.26,40l26.81-3.85,21,36.33,4.79-33.13,23.39-1.73.32-1.45c.16-.74.3-1.31.41-1.74l84-6.36-1.65,8.26,52.05-5.45-4.6,21.26-36.9,2.1-1.34,10.08,28.41-1.75L256.71,78.1c-2.68.21-8.9.68-25.82,1.81l-1.61.1-1.6,10.78,46.5-4.27L282.66,39c13.37-3.22,25.21-4.86,35.18-4.86,14.93,0,26,3.74,32,10.8a21.65,21.65,0,0,1,4.87,17.2C353.24,71,348,77.94,338.6,83.42l-2.22,1.3,15.5,15.71.26.15a6.4,6.4,0,0,0,1.14.46,1.08,1.08,0,0,1,.39.16l2.68,1.88.45-3.24c.73-5.17,1.56-10.65,2.43-16.44,2-13.61,4.17-27.65,5-37.81,7.79-1.5,37.6-6.17,53.74-6.17a49.19,49.19,0,0,1,4.94.21c14,1.8,20.76,6.8,22.67,16.72l.65,3.4,2.62-2.26c8.39-7.24,25.23-15.69,45.05-15.69h.22c19.08.06,31.67,9.81,35.66,15l2.25,2.9,1.22-3.46c1.26-3.61,2.49-7,3.68-10.18.87-2.36,1.73-4.7,2.59-7.1,8.53.1,52.71.68,60.69,2.69,8.31,1.92,14.17,5.84,17.47,11.67,3.57,6.32,5.91,15.49,3.11,24.11-7.67,21.26-19.46,32-52.15,35-1.92.18-3.95.26-6.22.26-3.8,0-8.18-.23-14.22-.75l-1.58-.13-.49,1.51c-.35,1.07-.81,2.48-1.32,4.09-1.38,4.27-3.21,10-4.7,14.33-5.63-.2-20.15-.82-32.26-1.46.71-1.93,1.75-4.84,3.18-9l2.21-6.47L507.91,119c-8.3,6.6-25.26,13.28-41.62,13.28-13.29,0-31-4.41-39.71-25.42l-.9-2.17-2,1.25a73.51,73.51,0,0,1-16,7.32,83.6,83.6,0,0,1-16.95,3.11l-1.66.16L387.54,134C382.68,134.79,367.1,137.32,352.72,139.68ZM488.91,63.91a38.45,38.45,0,0,0-16.8,4.19c-14.75,7.29-23.32,21.73-19.12,32.19,2.55,6.33,9.26,10.11,18,10.11a38.41,38.41,0,0,0,16.79-4.19C502.5,98.92,511.08,84.48,506.87,74,504.33,67.69,497.61,63.91,488.91,63.91Zm-85.85-1A32.09,32.09,0,0,0,395,64.1l-1.37.35-2.66,30.62,2.62-.54c15.26-3.11,23.51-13.55,22.67-21.85C415.75,68,412,63,403.06,63Zm166.21-1.59c-1.44,0-3,.06-4.59.19l-1.33.1-.41,1.27c-2.67,8.12-5.55,16.82-8.57,25.87l-.77,2.32,2.42.3a45.74,45.74,0,0,0,5.59.34c9,0,20.08-2.56,24.33-9.73,1.62-2.19,3.54-8,1.13-13C584.59,64,578.6,61.36,569.27,61.36ZM316.14,54.3a20.28,20.28,0,0,0-6.48,1.21l-1.15.4-3.79,25.48,2.4-.09c11.86-.41,19-9.39,18.9-17.47C325.92,58,322,54.3,316.14,54.3Z"/><polygon class="cls-3" points="191.62 53.05 219.32 50.26 223.14 23.98 229.07 24.89 223.39 55.57 190.5 59 191.62 53.05"/><path class="cls-6" d="M327,62.81c-.77-14.72-19.25-7.54-19.25-7.54l-4.17,27.16S328,82.47,327,62.81ZM305.88,80.35l4.43-22.94.62.3c2.23-.76,3.45-1.25,5.3-1.25,5.38,0,7.72,3.86,7.81,9.14C324.18,73.2,305.88,80.35,305.88,80.35Z"/><path class="cls-6" d="M600.48,40.64c-8.18-1.55-52.17-2.62-60.93-2.72h-.71l-.24.67c-.84,2.34-1.68,4.62-2.53,6.93l-.06.15c-1.17,3.19-2.38,6.48-3.63,10a36.27,36.27,0,0,0-2.47-3.26l-1.57,1.22c-8.32-10-17.47-12.82-34.2-12.87h-.22c-20.1,0-37.18,8.58-45.71,15.93l-1.3,1.13-.33-1.7c-2-10.41-9-15.66-23.55-17.52a48,48,0,0,0-5-.22c-16.48,0-46.81,4.82-53.93,6.19l-.74.14-.06.75c-.86,10.14-3,24.17-5,37.77-.87,5.79-1.7,11.26-2.43,16.43l-.22,1.62-1.34-.94a2.4,2.4,0,0,0-.67-.3,4.71,4.71,0,0,1-1-.39L338,84.94l1.11-.65c9.64-5.64,15.08-12.85,16.62-22a22.77,22.77,0,0,0-5.09-18C344.41,37,333.07,33.1,317.84,33.1c-10,0-22,1.65-35.42,4.89l-.63.15-8.46,47.45-44.47,4.09,1.3-8.72.8-.06c12.78-.84,21.47-1.45,25.83-1.8l.75-.06,3.57-17.58-28.5,1.76,1.07-8.06,36.83-2.09,5.06-23.36L224.13,35.1a5,5,0,0,1,0,2L273,32l-4.15,19.17-37,2.1-1.61,12.11,28.32-1.75-2.75,13.54c-4.56.36-13,1-25,1.75l-2.42.16-1.9,12.83L275,87.44l8.5-47.66c13-3.1,24.58-4.68,34.31-4.68,14.63,0,25.44,3.62,31.26,10.45a20.69,20.69,0,0,1,4.65,16.38c-1.44,8.56-6.56,15.31-15.66,20.63l-3.33,2,16.41,16.63.5.32A7.09,7.09,0,0,0,353,102c.08,0,.14,0,.12,0l4,2.81.68-4.85c.73-5.16,1.56-10.62,2.43-16.43,2-13.28,4.07-27,5-37.12,8.23-1.52,37-6,52.81-6,1.9,0,3.52.16,4.81.2,10.57.3,19.68,6.44,21.82,15.92l1,5.09,3.92-3.38c8.26-7.13,24.85-15.45,44.4-15.45h.22C531,44.53,535.09,68.74,533,80c-5.54,35-44.75,52.19-66.66,51.26-13-.55-30.24-4.3-38.78-24.8l-1.36-3.26-3,1.87a72.3,72.3,0,0,1-15.78,7.21,81.93,81.93,0,0,1-16.74,3.07l-2.49.24-1.52,17.51c-5.41.88-19.44,3.15-32.76,5.34.13-1.18.27-2.49.41-3.87v-.12c.28-2.7.6-5.75,1-8.78l.53-4.41-23.88,6.4c-3.84-6.24-14.72-24-19.1-31.31l-1.32-2.23-2.4,1a30.66,30.66,0,0,1-5.56,1.38l-2.13.37L298,119.72l-29.12,1.13,2.74-15.61-69.86,4.91,7.91-59-3.68.26c-1.92.14-3.73.29-5.64.45s-4.22.35-6.76.53l-2.37.18-8.48,52.39-27.47,2.63c1.88-11.09,7-41.48,8.42-49.49l.67-3.79-3.84.28c-3.38.25-6,.49-8.39.71H152c-1.86.17-3.6.33-5.51.48l-2.36.17L135,112l-26.51,1.82L84.81,72.94,75.12,113.3l-26.39,1.76L64.1,40.86l25.44-3.65,22.07,38.24,5.09-35.19L140,38.54l.48-2.19c.08-.38.16-.71.23-1l81.92-6.22-.58,2.92a4.93,4.93,0,0,1,1.49,1.59l.16.37,1.41-7.07-86,6.52-.18.69c-.12.44-.26,1-.42,1.77l-.16.73L115,38.38l-4.5,31.07L90.6,35l-28.17,4-16.2,78.15,30.49-2,8.87-36.93,21.83,37.6,29.33-2,9.11-56,.79-.06c1.93-.14,3.67-.31,5.54-.48l.2,0c2.3-.21,4.91-.45,8.26-.7l1.28-.09-.22,1.27c-1.46,8.34-7,41-8.64,50.78l-.21,1.29,31.6-3,8.48-52.36.78,0c2.55-.19,4.72-.37,6.79-.54l5.61-.44,1.23-.09-7.91,59,69.76-4.89-2.73,15.52,33.26-1.28,3.43-23,.71-.12a31.83,31.83,0,0,0,6-1.5l.8-.33.44.75c4.55,7.63,16.08,26.39,19.51,32l.39.64,22.46-6-.18,1.47c-.37,3.05-.69,6.11-1,8.81v.12c-.2,1.91-.38,3.66-.55,5.16l-.16,1.32,1.31-.22L387.71,135l.76-.13,1.52-17.4.83-.08A83.73,83.73,0,0,0,408,114.23a74.6,74.6,0,0,0,16.23-7.43l1-.62.45,1.09c9,21.51,27,26,40.63,26,15.06,0,26.33-2.52,40-11.45l-.41,2.22c1.38-.86,2.71-1.77,4-2.7-1.1,3.2-2.11,6.07-3,8.52l-.47,1.27,1.35.07c12.13.64,26.79,1.27,32.29,1.46l.74,0,.24-.71c1.49-4.37,3.34-10.12,4.7-14.34l1.32-4.1.25-.75.79.07c6.07.52,10.48.75,14.3.75,2.29,0,4.36-.08,6.31-.26,33.23-3,48-15.59,53.83-36.15C624.79,69.48,626.76,45.6,600.48,40.64ZM620,76.43c-6,20.38-19.23,32-51.39,35-1.89.17-3.9.25-6.13.25-3.76,0-8.12-.23-14.13-.74l-2.37-.21L545.2,113c-.35,1.07-.81,2.49-1.33,4.12-1.28,4-3,9.32-4.45,13.59-5.74-.22-18.83-.78-30.15-1.36.83-2.29,1.74-4.89,2.73-7.76l.8-2.34c13.29-10.59,22-25.23,24.1-38.54a36.75,36.75,0,0,0-3.23-22.61l.54-1.53c1.27-3.6,2.49-6.94,3.68-10.17l.06-.15c.77-2.09,1.53-4.16,2.29-6.28,10.16.12,52,1,59.77,2.65C621.92,47.28,622.58,67.56,620,76.43Z"/><path class="cls-6" d="M586.77,82.57c2-2.67,3.66-8.91,1.2-14-2.66-5.48-9-8.25-18.7-8.25-1.47,0-3,.06-4.67.19l-2,.16-.62,1.9c-2.65,8.07-5.53,16.77-8.56,25.87L552.27,92l3.63.45a45.53,45.53,0,0,0,5.71.34C570.84,92.74,582.29,90.07,586.77,82.57Zm-31.83,7.69.38-1.15c3-9.1,5.92-17.81,8.57-25.88l.2-.63.67-.06c11.58-.89,18.75,1.47,21.42,6.94,2.18,4.49.4,10-1,12l0,.08c-4,6.81-14.77,9.23-23.47,9.23a45.55,45.55,0,0,1-5.46-.32Z"/><path class="cls-6" d="M417.22,72.58C416.7,67.44,412.71,62,403.06,62a33.73,33.73,0,0,0-8.36,1.18l-2.05.53-2.83,32.65,3.93-.8C409.56,92.29,418.1,81.32,417.22,72.58ZM392,93.82l2.48-28.58.69-.18A31.51,31.51,0,0,1,403.06,64c8.31,0,11.73,4.56,12.17,8.83.79,7.86-7.18,17.78-21.88,20.77Z"/><path class="cls-6" d="M471,111.4a39.34,39.34,0,0,0,17.24-4.3c15.2-7.51,24-22.52,19.6-33.46-2.7-6.72-9.77-10.73-18.89-10.73a39.39,39.39,0,0,0-17.24,4.29c-15.21,7.51-24,22.52-19.6,33.46C454.77,107.39,461.83,111.4,471,111.4ZM472.55,69a37.38,37.38,0,0,1,16.36-4.09c8.28,0,14.65,3.54,17,9.48,4,10-4.34,23.86-18.63,30.92A37.34,37.34,0,0,1,471,109.4c-8.28,0-14.65-3.54-17-9.48C449.91,89.93,458.27,76.06,472.55,69Z"/><polygon class="cls-3" points="136.64 29.89 142.57 30.81 137.34 56.81 162.25 54.72 160.39 61.03 131.58 62.56 136.64 29.89"/><polygon class="cls-3" points="19.92 33.37 57.99 31.23 39.67 123.46 1.24 126.19 19.92 33.37"/><path class="cls-3" d="M0,127.28,19.09,32.41l40.13-2.25L40.5,124.4Zm20.74-93L2.48,125.1l36.35-2.58L56.76,32.3Z"/><polygon class="cls-3" points="21.57 35.28 3.72 124.01 38 121.57 55.53 33.37 21.57 35.28"/><path class="cls-3" d="M2.48,125.1,20.74,34.32l36-2L38.83,122.52ZM22.4,36.23,5,122.92l32.21-2.29L54.29,34.44Z"/><polygon class="cls-7" points="23.23 37.19 53.06 35.51 36.34 119.69 6.2 121.83 23.23 37.19"/><path class="cls-6" d="M5,122.92,22.4,36.23l31.89-1.79L37.17,120.63Zm19.1-84.78L7.44,120.73l28.07-2L51.83,36.58Z"/><polygon class="cls-3" points="193.85 58.63 193.25 54.39 219.96 51.87 224.75 26.25 229.65 22.98 223.39 55.57 193.85 58.63"/><polygon class="cls-3" points="133.93 60.44 138.31 32.17 140.28 32.48 136.29 58.26 161.2 56.46 160.71 59.11 133.93 60.44"/><polygon class="cls-6" points="271.86 107.6 269.42 106.14 273.41 84.9 275.9 84.72 271.86 107.6"/><polygon class="cls-3" points="196.86 116.14 196.58 112.42 271.69 107.04 275.67 85.47 265.33 86.32 265.16 83.33 280.06 82.25 274.41 110.86 196.86 116.14"/><polygon class="cls-3" points="348.37 123.23 367.57 118.21 345.75 95.62 350.06 91.45 379.02 121.42 349.88 129.03 348.37 123.23"/><polygon class="cls-3" points="351.31 126.59 350.81 124.66 371.39 119.28 348.57 95.67 350.01 94.28 375.2 120.35 351.31 126.59"/><polygon class="cls-6" points="192.17 54.47 191.98 52.48 218.74 50.03 222.52 27.21 224.49 27.54 220.46 51.88 192.17 54.47"/><polygon class="cls-6" points="331.7 129.82 331.18 127.89 367.42 118.11 335.66 85.42 337.1 84.03 371.22 119.15 331.7 129.82"/><path class="cls-1" d="M496.64,68.22a21.52,21.52,0,0,0-7.73-1.32,35.55,35.55,0,0,0-15.47,3.89c-13.37,6.61-21.3,19.34-17.66,28.38a12.44,12.44,0,0,0,7.44,6.92c6.36,2.43,15,1.47,23.2-2.57,13.38-6.61,21.3-19.34,17.67-28.38A12.45,12.45,0,0,0,496.64,68.22Z"/><path class="cls-1" d="M565.58,64.49c-2.48,7.55-5.16,15.64-8,24.08,9.9.93,21.95-1.52,25.8-8.16l.08-.12c1.08-1.39,2.84-6.29.75-10.2C581.91,65.76,575.47,63.82,565.58,64.49Z"/><path class="cls-1" d="M396.39,66.83,394.27,91.3C405.42,88.63,411.19,82,412.76,77c1-3.24.51-6.25-1.4-8.26C408.57,65.85,403.27,65.17,396.39,66.83Z"/><path class="cls-1" d="M311.21,58.16l-3,20.07a16.22,16.22,0,0,0,13.86-9.68c1.48-3.6,1.18-7.26-.76-9.32S315.74,56.73,311.21,58.16Z"/><path class="cls-1" d="M140.12,33.39l-1,.07c-.14.46-.35,1.24-.61,2.46l-.16.73L115,38.38l-4.5,31.07L90.6,35l-28.17,4-16.2,78.16,30.49-2,8.87-36.93,21.83,37.6,29.33-2,9.12-56,.78-.06c2-.15,3.75-.31,5.67-.49l5.07-.45-21.59,1.5Z"/><path class="cls-1" d="M600.5,40.64h0c-8.35-2.11-55.27-2.66-61.64-2.72-.94,2.63-1.88,5.18-2.83,7.76-1.19,3.23-2.42,6.58-3.68,10.19l-.61,1.73-1.13-1.45c-4.08-5.29-16.94-15.29-36.45-15.35h-.23c-20.09,0-37.16,8.57-45.7,15.93l-1.3,1.13-.33-1.69c-2-10.42-9.06-15.67-23.58-17.54-13.72-1.42-52.33,4.63-59.68,6.12-.81,10.18-3,24.57-5.08,38.5-.87,5.8-1.7,11.27-2.43,16.45l-.23,1.62-1.33-.94a2.25,2.25,0,0,0-.67-.3c-.26-.08-1.2-.56-1.2-.56L338,84.94l1.11-.65c9.64-5.64,15.08-12.85,16.62-22a22.57,22.57,0,0,0-7.07-20.06c-8-7.34-26.08-14-66.86-4l-8.46,47.45-44.47,4.09,1.3-8.72.8-.06c18.74-1.24,24.37-1.68,26.58-1.87l3.57-17.57-28.5,1.76,1.07-8.06,36.83-2.09,5.06-23.37L224,35.3,225,27l-82.71,6.27L138.2,56.15l25.73-1.73-.87,2-1.13.08-.22,1.22c-1.55,8.86-7.62,44.8-8.85,52.08l31.6-3,8.48-52.35.78-.06c2.56-.19,4.74-.37,6.81-.54l5.59-.44,1.23-.09-7.91,59,69.76-4.89-2.73,15.52,33.26-1.28,3.43-23,.71-.12a34.33,34.33,0,0,0,6-1.5l.8-.33.44.75c4.82,8.08,17.5,28.71,19.9,32.6l22.46-6-.18,1.47c-.37,3-.68,6.1-1,8.81-.26,2.56-.5,4.84-.72,6.6,15.6-2.56,33.07-5.4,36.9-6l1.52-17.4.83-.08A84.11,84.11,0,0,0,408,114.23a74.73,74.73,0,0,0,16.22-7.43l1-.62.45,1.09c5.38,12.92,14.61,21.14,27.43,24.44,20.85,5.37,45.54-3.6,55.58-11.58l2.54-2.46-1.11,3.24c-1.78,5.21-3,8.44-3.65,10.25,12.92.69,29.2,1.39,34.39,1.56,1.53-4.47,3.49-10.54,4.93-15l1.33-4.1.25-.76.79.07c9.5.81,15.47,1,20.61.49,33.23-3,43.28-14.61,51.11-36.33,2.89-8.85,4.16-18.69.45-25.24C616.87,45.72,609.05,42.62,600.5,40.64Zm-185.83,37c-2.87,9.12-13.28,14.27-21.32,15.91l-1.31.27,2.48-28.58.69-.18c7.94-2.06,14.19-1.23,17.59,2.34C415.23,70,415.91,73.69,414.67,77.64Zm72.64,27.67a37.61,37.61,0,0,1-16.37,4.09,23.57,23.57,0,0,1-8.43-1.44,14.39,14.39,0,0,1-8.59-8c-4-10,4.35-23.86,18.63-30.92,8.67-4.28,17.94-5.27,24.81-2.65a14.37,14.37,0,0,1,8.58,8C510,84.38,501.6,98.25,487.31,105.31ZM585.1,81.47c-4.11,7-14.83,9.27-23.47,9.27a46,46,0,0,1-5.48-.32l-1.21-.15.38-1.16c3-9.1,5.92-17.8,8.57-25.88l.2-.63.67-.06c11.27-.88,18.42,1.35,21.24,6.61C588.49,73.79,586.66,79.41,585.1,81.47Z"/><path d="M620.31,51.81c-3.72-6.6-10.24-11-19.35-13.11-9.17-2.31-60.63-2.77-62.82-2.79h-.71l-.24.67c-1,2.87-2,5.63-3.06,8.42s-2,5.58-3.12,8.59c-3.61-3.89-15.57-14.71-36.86-14.78h-.23c-19.69,0-36.59,8-45.74,15.36C445.59,44,437.82,38.52,423.23,36.64c-14.63-1.5-55.37,5-61.08,6.32l-.72.16-.05.74c-.75,10.13-3,24.85-5.11,39.09-.81,5.32-1.57,10.37-2.25,15.17a1.51,1.51,0,0,1-.33-.13L341.21,85.35c9.5-5.86,14.9-13.32,16.49-22.78A24.57,24.57,0,0,0,350,40.72c-15.2-14-46.09-10.09-69.32-4.37l-.63.16-8.42,47.23-40.42,3.71.69-4.6C252,81.51,256.59,81.12,258.32,81l.88-.08,4.39-21.6-28.67,1.78.53-4L272.14,55l6-27.56L226.3,33l1-8.26-89.59,6.79-.23.56a17.5,17.5,0,0,0-.74,2.65L113.2,36.5l-3.9,27L91.65,32.86,60.75,37.3l-17,82.11,34.58-2.31,8.05-33.51L106.32,118l32.14-2.21,9.13-56c1.67-.14,3.24-.28,4.91-.44,2-.18,4.25-.39,7-.6-2,11.78-8.78,51.68-8.85,52.1l-.22,1.29,35.73-3.42,8.48-52.33c2.22-.16,4.17-.32,6-.48l4.35-.34-7.91,59,69.66-4.89L264.07,125l37.39-1.45,3.47-23.25a37.27,37.27,0,0,0,4.86-1.19c5.64,9.42,19.73,32.31,19.87,32.55l.39.63,21.05-5.63c-.29,2.56-.56,5.09-.8,7.37-.33,3.25-.62,6.06-.9,7.87l-.21,1.36,1.36-.23c17.95-2.94,39-6.36,39-6.36l.77-.12,1.51-17.3a84.09,84.09,0,0,0,16.77-3.16,77.51,77.51,0,0,0,15.66-7c5.7,12.91,15.22,21.16,28.32,24.54,19.87,5.12,43-2.69,54.59-10.4-1.68,4.82-2.67,7.4-3.08,8.48l-.49,1.28,1.37.07c14.86.81,32.67,1.55,36.54,1.66l.73,0,.24-.69c1.57-4.54,3.66-11,5.19-15.77.4-1.26.77-2.4,1.08-3.35,9.17.76,15,.88,20.17.42,34.11-3.1,46.44-14.51,54.39-36.56C626.39,69.4,624.3,58.85,620.31,51.81Zm3.94,27.56c-7.83,21.73-22.27,31-55.5,34-5.14.46-11.11.32-20.61-.49l-.79-.07s-5,15.43-6.51,19.9c-5.19-.17-21.47-.87-34.39-1.56.68-1.81,1.87-5,3.65-10.25l2.1-3.2-2.79,1.82c-10,8-35.47,17.55-56.32,12.18-12.82-3.3-22-11.52-27.43-24.44l-.45-1.09-1,.62A74.73,74.73,0,0,1,408,114.23a84.11,84.11,0,0,1-17.17,3.15l-.83.08-1.52,17.4c-3.83.62-21.3,3.46-36.9,6,.22-1.76.46-4,.72-6.6.29-2.71.6-5.78,1-8.81l.18-1.47L331,130c-2.4-3.89-15.08-24.52-19.9-32.6l-.44-.75-.8.33a34.33,34.33,0,0,1-6,1.5l-.71.12-3.43,23-33.26,1.28,2.73-15.52-69.76,4.89,7.91-59-1.23.09-5.59.44c-2.07.17-4.25.35-6.81.54l-.78.06-8.48,52.35-31.6,3c1.23-7.28,7.3-43.22,8.85-52.08l.22-1.22-4.54.31-5.07.45c-1.92.18-3.7.34-5.67.49l-.78.06-9.12,56-29.33,2L85.59,78.27,76.72,115.2l-30.49,2,16.2-78.16L90.6,35l19.85,34.42L115,38.38l23.45-1.73.16-.73c.26-1.22.47-2,.61-2.46l1-.07,0-.22,2.21-.15,0,.2L225,27l-1,8.35,51.57-5.6-5.06,23.37-36.83,2.09-1.07,8.06,28.5-1.76L257.54,79c-2.21.19-7.84.63-26.58,1.87l-.8.06-1.3,8.72,44.47-4.09,8.46-47.45c40.78-9.94,58.87-3.29,66.86,4a22.57,22.57,0,0,1,7.07,20.06c-1.54,9.19-7,16.4-16.62,22l-1.11.65,35.19,36.36S354,100.22,354.25,100.38l1.33.94.23-1.62c.73-5.18,1.56-10.65,2.43-16.45,2.1-13.93,4.27-28.32,5.08-38.5,7.35-1.49,46-7.54,59.68-6.12,14.52,1.87,21.57,7.12,23.58,17.54l.33,1.69,1.3-1.13c8.54-7.36,25.61-15.93,45.7-15.93h.23c19.51.06,29,6.66,36.45,15.35l1.13,1.45.61-1.73c1.26-3.61,2.49-7,3.68-10.19,1-2.58,1.89-5.13,2.83-7.76,6.37.06,53.29.61,61.64,2.72h0A24.19,24.19,0,0,1,620.72,53C624.42,59.51,627.13,70.52,624.25,79.37Z"/><path d="M497.36,66.35c-6.87-2.62-16.14-1.63-24.81,2.65-14.28,7.06-22.64,20.93-18.63,30.92a14.39,14.39,0,0,0,8.59,8,23.57,23.57,0,0,0,8.43,1.44,37.61,37.61,0,0,0,16.37-4.09C501.6,98.25,510,84.38,505.94,74.39A14.37,14.37,0,0,0,497.36,66.35Zm-10.94,37.17c-8.17,4-16.84,5-23.2,2.57a12.44,12.44,0,0,1-7.44-6.92c-3.64-9,4.29-21.77,17.66-28.38a35.55,35.55,0,0,1,15.47-3.89,21.52,21.52,0,0,1,7.73,1.32,12.45,12.45,0,0,1,7.45,6.92C507.72,84.18,499.8,96.91,486.42,103.52Z"/><path d="M395.21,65.06l-.69.18L392,93.82l1.31-.27c8-1.64,18.45-6.79,21.32-15.91,1.24-4,.56-7.68-1.87-10.24C409.4,63.83,403.15,63,395.21,65.06Zm17.55,12c-1.57,5-7.34,11.59-18.49,14.26l2.12-24.47c6.88-1.66,12.18-1,15,2C413.27,70.79,413.78,73.8,412.76,77Z"/><path d="M564.76,62.54l-.67.06-.2.63c-2.65,8.08-5.53,16.78-8.57,25.88l-.38,1.16,1.21.15a46,46,0,0,0,5.48.32c8.64,0,19.36-2.27,23.47-9.27,1.56-2.06,3.39-7.68.9-12.32C583.18,63.89,576,61.66,564.76,62.54Zm18.73,17.75-.08.12c-3.85,6.64-15.9,9.09-25.8,8.16,2.81-8.44,5.49-16.53,8-24.08,9.89-.67,16.33,1.27,18.66,5.6C586.33,74,584.57,78.9,583.49,80.29Z"/><path class="cls-6" d="M163.93,54.42,138.2,56.15l4.13-22.93-2.21.17L135.8,58.31l21.59-1.5,3.26-.25,1.28-.1v0l1.13-.08Z"/><path class="cls-6" d="M160.65,56.56l-3.26.25,4.54-.31v0Z"/><path class="cls-6" d="M446.3,56.65l-1.77-.72c1.92,10.63.93,32.35-21.38,49.18,0,0,1.08-.28,1.09-.27a18,18,0,0,1,1.26,1.49,9,9,0,0,1,1,1.6c17.59-13.45,25.63-32,22-51.83A4.88,4.88,0,0,1,446.3,56.65Z"/><path class="cls-8" d="M448.16,54.13c4.37,18.73-2.33,44.4-33.4,60.78"/><path class="cls-3" d="M322.77,57.86c-1.54-1.63-5.25-4-12.78-1.4l-.58.2-3.53,23.69s13.46-.29,18.05-11C325.37,66,325.29,60.53,322.77,57.86Zm-1.36,1.48-.19-.19.1.08S321.37,59.31,321.41,59.34Zm1.4,2.85c0-.06,0-.12,0-.18S322.8,62.13,322.81,62.19Zm-.3-1c0-.12-.1-.24-.15-.36C322.41,61,322.47,61.08,322.51,61.2Zm-.43-.91c-.06-.1-.12-.21-.19-.31C322,60.08,322,60.19,322.08,60.29ZM310.6,75.81,313,59.73a13.32,13.32,0,0,1,3.14-.43c4,0,4.84,2.51,4.88,4.62C321.09,67.94,317.89,74,310.6,75.81Zm1.62,1.61-.2.06Zm-1.25.35c-.29.07-.59.13-.89.18C310.38,77.9,310.68,77.84,311,77.77Zm8.51-19.83.09.05Zm-1.06-.36h0Zm-2.5-.27h0Zm-1.59.13.23,0Zm-1.44.27-.12,0Zm-1.68.45L310.94,60l.27-1.85Zm9.52,12.9a15.05,15.05,0,0,0,1.52-3c-.06.16-.1.32-.17.48A14,14,0,0,1,320.73,71.06Zm-.53.76.09-.13Zm2.8-7.2v0Zm-.68,3.23c.11-.3.21-.61.29-.92C322.53,67.24,322.43,67.55,322.32,67.85Zm.36-1.2c.08-.34.15-.67.2-1C322.83,66,322.76,66.31,322.68,66.65Z"/><path class="cls-3" d="M622.05,50.82a32.26,32.26,0,0,0-20.59-14.06c-9.4-2.37-61.1-2.83-63.3-2.85l-2.14,0-.71,2c-1,2.83-2,5.56-3,8.39l-.09.23c-.65,1.77-1.31,3.57-2,5.43-5.86-5.33-17.56-13.1-36-13.16h-.23a78.81,78.81,0,0,0-44.68,14.06c-4.52-12-16.09-15-25.8-16.2a53.22,53.22,0,0,0-5.45-.24C400.2,34.42,366.17,40,361.7,41l-2.15.5-.16,2.2c-.16,2.08-.38,4.42-.67,7.07a26.48,26.48,0,0,0-5.05-9.13c-7.1-8.32-19.16-12.55-35.83-12.55-10.69,0-23.35,1.79-37.64,5.31l-1.65.41,2.1-9.69-52.4,5.66,1.37-8.2-93.25,7.07s-.62,2.47-.87,3.4l-24,1.57-3.3,22.82L92.71,30.69,59.08,35.52,41.25,121.58,79.92,119l7.23-30.08L105.21,120l35-2.4,9.13-56.08,3.38-.31,4.42-.39c-2.29,13.32-7.76,45.68-8.39,49.44l-.68,4,39.87-3.82,8.47-52.29,4.47-.36,1.88-.15-7.91,59,69.55-4.88-2.7,15.36,41.53-1.61L306.7,102c.79-.17,1.51-.34,2.18-.52,5.51,9.17,16.74,27.44,19,31.08l1.26,2.06,19.66-5.26c-.17,1.53-.32,3-.47,4.48-.34,3.22-.63,6-.9,7.76l-.62,4.09,4.07-.67c17.91-2.94,38.91-6.35,39-6.36l2.31-.38,1.5-17.21A82.28,82.28,0,0,0,409.23,118a81.71,81.71,0,0,0,14.15-6.1c10.24,20.93,28.92,25.37,42.91,25.37,14.32,0,28.12-4.69,37.14-9.49-.6,1.63-1,2.67-1.2,3.21l-1.46,3.84,4.1.22c14.94.81,32.74,1.55,36.59,1.66l2.2.06.72-2.08c1.59-4.58,3.68-11.07,5.2-15.81l.59-1.84c5,.39,8.82.57,12.27.57,2.42,0,4.61-.09,6.67-.28,35.18-3.2,52.76-20.94,56.68-40.11C627.88,67,626.9,58.13,622.05,50.82Zm1.27,28c-8,22.06-20.28,33.46-54.39,36.56-2,.18-4.13.27-6.49.27-3.57,0-7.54-.19-12.89-.63l-.79-.06-1.08,3.34c-1.52,4.74-3.61,11.22-5.19,15.78l-.24.69-.73,0c-3.84-.11-21.62-.85-36.54-1.66l-1.37-.07.49-1.28c.3-.79,1-2.62,2.12-5.77l.34-.95.48,1.08c18.7-12.56,29.9-29.94,32.37-45.42,1.68-10.5-.67-20.3-6.8-28.34L531,53.54l-1.59,1.22C535,62,537,70.51,535.46,80c-3.3,18.56-13.63,31-30.09,42.28l-.6,2.45a80.29,80.29,0,0,1-38.48,10.53c-13.62,0-31.88-4.37-41.56-25.19l-.46-1-.95.55a78.43,78.43,0,0,1-14.71,6.46,82.8,82.8,0,0,1-16,3.08l-.81.09-1.51,17.29-.77.12h0c-2.59.39-35.86,5.84-39,6.35l-1.36.23.21-1.36c.28-1.82.57-4.62.91-7.92.19-1.84.4-3.83.63-5.87l.16-1.45-21.05,5.63-.48-.78c-2.3-3.74-14-22.81-19.37-31.72l-.4-.66-.74.22c-1,.28-2.12.56-3.44.82l-.69.14-3.47,23.24L264.07,125l2.72-15.45-69.66,4.89,7.91-59-4.41.36-5.19.41-.78.06-8.48,52.33L150.45,112l.24-1.41c.65-3.89,6.47-38.32,8.61-50.71l.22-1.28-1.28.11c-2.2.18-4.05.35-5.74.5-1.41.13-2.74.26-4.14.37l-.77.07-9.13,56.05L106.32,118,86.37,83.59,78.32,117.1l-34.58,2.31,17-82.11,30.9-4.44L109.3,63.45l3.9-26.95,23.56-1.73.17-.71a14.31,14.31,0,0,1,.58-1.94l.23-.56,89.59-6.79-1,8.27,51.81-5.62-6,27.56-36.69,2.09-.53,4,28.67-1.78L259.2,80.9l-.9.08c-1.86.16-6.23.52-25.6,1.81l-.8.06-.69,4.6,40.42-3.71,8.42-47.23.63-.16c14.13-3.48,26.63-5.25,37.16-5.25,16.06,0,27.6,4,34.31,11.85a24.75,24.75,0,0,1,5.79,14.44l2,.06c.71-5.5,1.18-9.94,1.45-13.59l.05-.73.72-.17c4.43-1,38.19-6.54,55.84-6.54,2,0,3.8.08,5.22.22,9.44,1.22,20.77,4.15,24.57,16.13l.43,1.34,1.13-.84A76.32,76.32,0,0,1,493.92,38.8h.23c19.75.06,31.59,9.57,35.76,13.65L531,53.54l.53-1.46c.85-2.38,1.68-4.64,2.5-6.86l.11-.3c1-2.77,2-5.5,3-8.35l.24-.67h.71c2.19,0,53.66.48,62.85,2.8,9.09,2.09,15.59,6.5,19.32,13.1C624.3,58.85,626.38,69.43,623.32,78.81ZM277.21,41l-7.28,40.87-9.06.83L266,57.33l7.75-.44ZM255.78,83.19l-22.22,2,.08-.5C246.66,83.87,252.69,83.43,255.78,83.19Z"/><path class="cls-3" d="M403.06,66a28.08,28.08,0,0,0-5.95.71l-.72.16-2.12,24.51,1.4-.41C405,88.17,414.06,81.13,413.24,73,412.79,68.58,409,66,403.06,66Zm-6.54,22.6,1.74-20.09a25.09,25.09,0,0,1,4.8-.51c2.86,0,7.73.68,8.19,5.23C411.91,79.78,404.38,85.83,396.52,88.55Z"/><path class="cls-3" d="M342.25,84.7l-1,.66L354,98.3l.29-2c.61-4.24,1.28-8.67,2-13.38.78-5.17,1.57-10.4,2.29-15.45L356.62,67C354.35,74.11,349.65,79.89,342.25,84.7Zm12-2q-.88,5.88-1.69,11.32l-8.23-8.34a37,37,0,0,0,11.19-11.48C355.14,77,354.71,79.86,354.28,82.71Z"/><path class="cls-3" d="M569.27,64.36c-1,0-2,0-3,.09l-.68,0-.21.65c-2.3,7-4.77,14.46-7.35,22.22l-.41,1.24,1.3.07c.88.06,1.79.09,2.7.09,7.83,0,18.23-2.19,21.8-8.34l.08-.12c1-1.33,2.77-6.07.89-9.93S577.24,64.36,569.27,64.36Zm12.64,14.7-.23.34c-3.14,5.42-12.78,7.35-20.07,7.35l-1.28,0c2.36-7.08,4.61-13.89,6.72-20.32.76,0,1.5,0,2.22,0,7.15,0,11.75,1.69,13.31,4.88C584,74.21,582.67,78.09,581.91,79.06Z"/><path class="cls-3" d="M488.91,66.91a35.41,35.41,0,0,0-15.47,3.88c-13.37,6.61-21.3,19.34-17.66,28.38,2.07,5.16,7.74,8.23,15.18,8.23a35.37,35.37,0,0,0,15.46-3.88c13.38-6.61,21.3-19.34,17.67-28.38C502,70,496.34,66.91,488.91,66.91Zm-3.37,34.82A33.48,33.48,0,0,1,471,105.4c-6.59,0-11.57-2.6-13.33-7-3.25-8.1,4.24-19.69,16.7-25.85a33.45,33.45,0,0,1,14.58-3.67c6.58,0,11.57,2.6,13.32,7C505.48,84,498,95.57,485.54,101.73Z"/></g></g></svg>