<svg width="198" height="34" viewBox="0 0 198 34" fill="none" xmlns="http://www.w3.org/2000/svg">
<g opacity="0.8">
<path opacity="0.8" d="M16.9927 3.32479C17.809 3.32479 18.4708 2.66303 18.4708 1.84672C18.4708 1.03041 17.809 0.368652 16.9927 0.368652C16.1764 0.368652 15.5146 1.03041 15.5146 1.84672C15.5146 2.66303 16.1764 3.32479 16.9927 3.32479Z" fill="#2C7DF7"/>
<path opacity="0.8" d="M2.21612 11.4513C3.44005 11.4513 4.43224 10.4591 4.43224 9.23516C4.43224 8.01123 3.44005 7.01904 2.21612 7.01904C0.992191 7.01904 0 8.01123 0 9.23516C0 10.4591 0.992191 11.4513 2.21612 11.4513Z" fill="#2C7DF7"/>
<path opacity="0.8" d="M9.62065 25.4742C10.437 25.4742 11.0987 24.8124 11.0987 23.9961C11.0987 23.1798 10.437 22.5181 9.62065 22.5181C8.80433 22.5181 8.14258 23.1798 8.14258 23.9961C8.14258 24.8124 8.80433 25.4742 9.62065 25.4742Z" fill="#2C7DF7"/>
<path opacity="0.8" d="M24.3814 32.877C25.1977 32.877 25.8595 32.2153 25.8595 31.399C25.8595 30.5827 25.1977 29.9209 24.3814 29.9209C23.5651 29.9209 22.9033 30.5827 22.9033 31.399C22.9033 32.2153 23.5651 32.877 24.3814 32.877Z" fill="#2C7DF7"/>
<path opacity="0.8" d="M31.7687 10.3436C32.3809 10.3436 32.8773 9.84725 32.8773 9.23502C32.8773 8.62278 32.3809 8.12646 31.7687 8.12646C31.1565 8.12646 30.6602 8.62278 30.6602 9.23502C30.6602 9.84725 31.1565 10.3436 31.7687 10.3436Z" fill="#2C7DF7"/>
<path opacity="0.8" d="M2.21635 18.1016C3.03266 18.1016 3.69442 17.4399 3.69442 16.6236C3.69442 15.8073 3.03266 15.1455 2.21635 15.1455C1.40003 15.1455 0.738281 15.8073 0.738281 16.6236C0.738281 17.4399 1.40003 18.1016 2.21635 18.1016Z" fill="#2C7DF7"/>
<path opacity="0.8" d="M9.60442 33.2459C10.6243 33.2459 11.451 32.4192 11.451 31.3993C11.451 30.3795 10.6243 29.5527 9.60442 29.5527C8.58457 29.5527 7.75781 30.3795 7.75781 31.3993C7.75781 32.4192 8.58457 33.2459 9.60442 33.2459Z" fill="#2C7DF7"/>
<path opacity="0.8" d="M9.60464 2.95538C10.2169 2.95538 10.7132 2.45907 10.7132 1.84683C10.7132 1.2346 10.2169 0.738281 9.60464 0.738281C8.99241 0.738281 8.49609 1.2346 8.49609 1.84683C8.49609 2.45907 8.99241 2.95538 9.60464 2.95538Z" fill="#2C7DF7"/>
<path opacity="0.8" d="M24.366 9.98979C24.7741 9.98979 25.105 9.65891 25.105 9.25075C25.105 8.8426 24.7741 8.51172 24.366 8.51172C23.9578 8.51172 23.627 8.8426 23.627 9.25075C23.627 9.65891 23.9578 9.98979 24.366 9.98979Z" fill="#2C7DF7"/>
<path opacity="0.8" d="M31.7683 17.3623C32.1765 17.3623 32.5074 17.0315 32.5074 16.6233C32.5074 16.2152 32.1765 15.8843 31.7683 15.8843C31.3602 15.8843 31.0293 16.2152 31.0293 16.6233C31.0293 17.0315 31.3602 17.3623 31.7683 17.3623Z" fill="#2C7DF7"/>
<path opacity="0.8" d="M2.21597 25.1204C2.82821 25.1204 3.32452 24.6241 3.32452 24.0119C3.32452 23.3996 2.82821 22.9033 2.21597 22.9033C1.60374 22.9033 1.10742 23.3996 1.10742 24.0119C1.10742 24.6241 1.60374 25.1204 2.21597 25.1204Z" fill="#2C7DF7"/>
<path opacity="0.8" d="M16.9933 32.5076C17.6056 32.5076 18.1019 32.0113 18.1019 31.3991C18.1019 30.7868 17.6056 30.2905 16.9933 30.2905C16.3811 30.2905 15.8848 30.7868 15.8848 31.3991C15.8848 32.0113 16.3811 32.5076 16.9933 32.5076Z" fill="#2C7DF7"/>
<path opacity="0.8" d="M24.3808 3.69321C25.4006 3.69321 26.2274 2.86646 26.2274 1.8466C26.2274 0.826753 25.4006 0 24.3808 0C23.3609 0 22.5342 0.826753 22.5342 1.8466C22.5342 2.86646 23.3609 3.69321 24.3808 3.69321Z" fill="#2C7DF7"/>
<path opacity="0.8" d="M31.3993 25.8582C32.4192 25.8582 33.2459 25.0315 33.2459 24.0116C33.2459 22.9918 32.4192 22.165 31.3993 22.165C30.3795 22.165 29.5527 22.9918 29.5527 24.0116C29.5527 25.0315 30.3795 25.8582 31.3993 25.8582Z" fill="#2C7DF7"/>
</g>
<path d="M18.6002 25.5194C17.3541 25.5194 16.4458 25.2217 15.8755 24.6072C15.3051 23.9926 15.0292 23.3496 15.0292 22.6401C15.0292 22.3898 15.0757 22.1681 15.1842 21.9939C15.2772 21.8197 15.4136 21.6803 15.5841 21.5853C15.7546 21.4902 15.9685 21.4269 16.2165 21.4269C16.4644 21.4269 16.6783 21.4744 16.8488 21.5853C17.0193 21.6803 17.1557 21.8197 17.2487 21.9939C17.3417 22.1681 17.4037 22.3867 17.4037 22.6401C17.4037 22.9537 17.3262 23.2071 17.1867 23.394C17.0472 23.584 16.8643 23.7234 16.6628 23.7868C16.8333 24.0212 17.1092 24.1954 17.4781 24.3062C17.847 24.4171 18.2158 24.4646 18.5878 24.4646C19.1117 24.4646 19.5736 24.3221 19.9889 24.0402C20.4043 23.7582 20.7112 23.3338 20.9127 22.7826C21.1142 22.2315 21.2041 21.6043 21.2041 20.8947C21.2041 20.125 21.0956 19.4788 20.8817 18.9435C20.6647 18.3923 20.3578 17.9837 19.9424 17.7334C19.5271 17.4674 19.0807 17.3407 18.5878 17.3407C18.2654 17.3407 17.8811 17.4832 17.4037 17.7493L16.5357 18.1737V17.7334L20.4601 12.3865H15.0292V17.9393C15.0292 18.3955 15.1222 18.7724 15.3206 19.0733C15.5221 19.3711 15.829 19.5136 16.2289 19.5136C16.5512 19.5136 16.8457 19.4028 17.1371 19.1842C17.4285 18.9625 17.6765 18.6964 17.8904 18.3986C17.9214 18.3353 17.9523 18.2878 17.9833 18.2719C18.0298 18.2403 18.0608 18.2244 18.1073 18.2244C18.1848 18.2244 18.2623 18.2561 18.3677 18.3353C18.4607 18.4462 18.5072 18.5697 18.5072 18.7122C18.5072 18.7756 18.4762 18.8706 18.4607 18.9942C18.2437 19.5136 17.9369 19.9064 17.537 20.1725C17.1371 20.4386 16.7062 20.5811 16.2289 20.5811C15.0447 20.5811 14.2419 20.3467 13.78 19.8748C13.3336 19.4028 13.1042 18.7566 13.1042 17.9552V12.3865H10.333V11.3475H13.1197V8.98767L12.4874 8.34148V7.80615H14.3349L15.0261 8.16726V11.3317L22.2146 11.3159L22.9214 12.0381L18.5227 16.5551C18.7831 16.4442 19.0621 16.3809 19.3535 16.3492C19.8308 16.3492 20.3702 16.5076 20.953 16.8212C21.5543 17.1189 22.0162 17.5434 22.3386 18.0787C22.661 18.614 22.878 19.1177 22.9709 19.6055C23.0639 20.0933 23.1259 20.5178 23.1259 20.9106C23.1259 21.7753 22.9399 22.5767 22.5866 23.3179C22.2332 24.056 21.6938 24.623 20.9561 24.9841C20.2307 25.3452 19.4465 25.5194 18.6002 25.5194Z" fill="#2C7DF7"/>
<path d="M43.8086 17.1196C43.8086 14.5778 44.7176 12.4231 46.5356 10.6556C48.3704 8.88814 50.5924 8.00439 53.2016 8.00439C55.8107 8.00439 58.0243 8.88814 59.8423 10.6556C61.6771 12.4231 62.5945 14.5778 62.5945 17.1196C62.5945 19.6783 61.6855 21.8414 59.8675 23.6088C58.0327 25.3595 55.8107 26.2348 53.2016 26.2348C50.6092 26.2348 48.3872 25.3595 46.5356 23.6088C44.7176 21.8414 43.8086 19.6783 43.8086 17.1196ZM47.6971 17.1196C47.6971 18.6851 48.2273 20.0149 49.2878 21.1091C50.3483 22.1696 51.6529 22.6999 53.2016 22.6999C54.7334 22.6999 56.0296 22.1612 57.0901 21.0839C58.1674 20.0065 58.7061 18.6851 58.7061 17.1196C58.7061 15.5878 58.1758 14.2748 57.1153 13.1806C56.0548 12.0865 54.7502 11.5394 53.2016 11.5394C51.6529 11.5394 50.3483 12.0865 49.2878 13.1806C48.2273 14.2748 47.6971 15.5878 47.6971 17.1196Z" fill="#2C7DF7"/>
<path d="M69.0952 25.8813H65.2067V8.28214H72.6302C74.0947 8.28214 75.4498 8.82922 76.6954 9.92339C77.9411 11.0176 78.5639 12.4568 78.5639 14.2411C78.5639 15.9413 77.9579 17.3637 76.7459 18.5084C75.5508 19.6362 74.1789 20.2001 72.6302 20.2001H69.0952V25.8813ZM69.0952 11.8171V16.6651H72.403C72.9585 16.6651 73.4719 16.48 73.9432 16.1096C74.4314 15.7225 74.6754 15.0996 74.6754 14.2411C74.6754 13.3995 74.4314 12.785 73.9432 12.3979C73.455 12.0107 72.9416 11.8171 72.403 11.8171H69.0952Z" fill="#2C7DF7"/>
<path d="M93.2083 25.8813H81.0126V8.28214H93.0316V11.8171H84.9011V15.1249H92.5013V18.5841H84.9011V22.3464H93.2083V25.8813Z" fill="#2C7DF7"/>
<path d="M99.8409 25.8813H96.0787V8.28214H99.5379L107.971 19.2154V8.28214H111.734V25.8813H108.552L99.8409 14.6451V25.8813Z" fill="#2C7DF7"/>
<circle cx="53.235" cy="17.0436" r="2.10416" fill="#2C7DF7"/>
<path d="M130.408 25.8811H128.438V10.0999H123.641V8.28186H135.205V10.0999H130.408V25.8811Z" fill="#2C7DF7"/>
<path d="M148.4 25.8811H138.275V8.28186H148.223V10.0999H140.244V15.6801H147.744V17.4981H140.244V24.0631H148.4V25.8811Z" fill="#2C7DF7"/>
<path d="M164.063 25.8811H150.428V24.6691L161.235 10.0999H151.665V8.28186H163.886V9.59486L153.155 24.0631H164.063V25.8811Z" fill="#2C7DF7"/>
<path d="M168.171 23.6338C166.404 21.9 165.52 19.7201 165.52 17.0941C165.52 14.5018 166.404 12.3303 168.171 10.5796C169.973 8.82894 172.144 7.95361 174.686 7.95361C177.228 7.95361 179.391 8.82894 181.175 10.5796C182.959 12.3134 183.852 14.4849 183.852 17.0941C183.852 19.7201 182.959 21.9 181.175 23.6338C179.424 25.3676 177.261 26.2346 174.686 26.2346C172.127 26.2346 169.956 25.3676 168.171 23.6338ZM169.51 11.8674C168.146 13.2645 167.464 15.0068 167.464 17.0941C167.464 19.1982 168.146 20.9489 169.51 22.3461C170.89 23.7264 172.615 24.4166 174.686 24.4166C176.756 24.4166 178.473 23.7264 179.837 22.3461C181.2 20.9489 181.882 19.1982 181.882 17.0941C181.882 15.0068 181.2 13.2645 179.837 11.8674C178.473 10.4702 176.756 9.77161 174.686 9.77161C172.632 9.77161 170.907 10.4702 169.51 11.8674Z" fill="#2C7DF7"/>
<path d="M186.082 22.0178L187.773 21.2351C188.649 23.3561 190.122 24.4166 192.192 24.4166C193.69 24.4166 194.683 24.0042 195.171 23.1793C195.542 22.5397 195.727 21.9168 195.727 21.3108C195.727 20.3513 195.432 19.6191 194.843 19.1141C194.254 18.6091 193.236 18.0368 191.788 17.3971C190.189 16.6901 189.019 15.9915 188.278 15.3013C187.538 14.6112 187.167 13.618 187.167 12.3219C187.167 11.0594 187.622 10.0157 188.531 9.19086C189.423 8.36603 190.576 7.95361 191.99 7.95361C194.145 7.95361 195.727 8.88786 196.737 10.7564L195.045 11.6149C194.389 10.386 193.362 9.77161 191.965 9.77161C191.157 9.77161 190.483 10.0073 189.945 10.4786C189.406 10.9499 189.137 11.5475 189.137 12.2714C189.137 13.1635 189.482 13.8705 190.172 14.3923C190.778 14.7795 191.123 14.9983 191.207 15.0488L192.722 15.7306C194.507 16.5049 195.777 17.2877 196.535 18.0788C197.309 18.8363 197.696 19.9052 197.696 21.2856C197.696 22.7332 197.208 23.92 196.232 24.8458C195.289 25.7716 193.934 26.2346 192.167 26.2346C190.736 26.2346 189.482 25.8811 188.405 25.1741C187.344 24.4502 186.57 23.3982 186.082 22.0178Z" fill="#2C7DF7"/>
</svg>
