<svg width="60" height="60" viewBox="0 0 60 60" fill="none" xmlns="http://www.w3.org/2000/svg">
<path d="M59.1947 2.23825C59.1194 1.88757 58.9443 1.5661 58.6906 1.31248C58.4369 1.05886 58.1154 0.883881 57.7646 0.808582C53.9902 0 51.0374 0 48.0952 0C35.9982 0 28.7424 6.46866 23.328 14.9998H11.1138C10.0707 15.0007 9.04832 15.2914 8.16093 15.8396C7.27355 16.3878 6.55606 17.1718 6.08861 18.104L0.29565 29.682C0.0817168 30.1109 -0.0190328 30.5873 0.00296317 31.0661C0.0249591 31.5449 0.168971 32.0101 0.421331 32.4176C0.673691 32.8251 1.02603 33.1613 1.4449 33.3944C1.86377 33.6275 2.33528 33.7498 2.81469 33.7495H14.9785L12.3446 36.3827C11.6413 37.0859 11.2462 38.0396 11.2462 39.034C11.2462 40.0284 11.6413 40.9821 12.3446 41.6854L18.311 47.6513C18.6594 47.9996 19.0729 48.2759 19.5281 48.4644C19.9832 48.6529 20.471 48.7499 20.9637 48.7499C21.4564 48.7499 21.9442 48.6529 22.3993 48.4644C22.8545 48.2759 23.268 47.9996 23.6164 47.6513L26.2503 45.0181V57.1867C26.2501 57.6658 26.3724 58.137 26.6055 58.5556C26.8387 58.9742 27.1749 59.3263 27.5823 59.5786C27.9897 59.8309 28.4549 59.9749 28.9336 59.997C29.4124 60.0191 29.8888 59.9186 30.3178 59.705L41.8873 53.9172C42.8213 53.4508 43.6068 52.7332 44.1555 51.8452C44.7042 50.9571 44.9945 49.9337 44.9936 48.8899V36.6546C53.5025 31.2289 59.9976 23.9516 59.9976 11.9178C60.0093 8.96472 60.0093 6.01163 59.1947 2.23825ZM45.0053 19.6872C44.078 19.6872 43.1714 19.4123 42.4004 18.8972C41.6293 18.3822 41.0284 17.6501 40.6735 16.7936C40.3186 15.9371 40.2257 14.9946 40.4067 14.0853C40.5876 13.176 41.0341 12.3408 41.6899 11.6853C42.3456 11.0297 43.1811 10.5833 44.0906 10.4024C45.0001 10.2216 45.9429 10.3144 46.7996 10.6692C47.6564 11.0239 48.3887 11.6247 48.9039 12.3956C49.4191 13.1664 49.6941 14.0727 49.6941 14.9998C49.6941 16.243 49.2001 17.4352 48.3208 18.3143C47.4415 19.1934 46.2489 19.6872 45.0053 19.6872Z" fill="#333333"/>
</svg>
