<svg width="118" height="118" viewBox="0 0 118 118" fill="none" xmlns="http://www.w3.org/2000/svg">
<path d="M54.6 109.2V88.2C54.6 85.8806 52.7213 84 50.4 84H8.4C6.07875 84 4.2 85.8806 4.2 88.2V109.2C1.87874 109.2 0 111.081 0 113.4C0 115.719 1.87874 117.6 4.2 117.6H54.6C56.9213 117.6 58.8 115.719 58.8 113.4C58.8 111.081 56.9213 109.2 54.6 109.2ZM12.6 109.2V92.4H46.2V109.2H12.6Z" fill="black"/>
<path d="M86.9687 43.2305C85.3281 41.5898 82.6703 41.5898 81.0297 43.2305L68.4297 55.8305C66.7891 57.4711 66.7891 60.1289 68.4297 61.7695L81.0297 74.3695C81.8509 75.1889 82.9253 75.5995 83.9997 75.5995C85.0741 75.5995 86.1484 75.1889 86.9687 74.3686C88.6093 72.728 88.6093 70.0702 86.9687 68.4295L77.3387 58.7995L86.9697 49.1686C88.6103 47.528 88.6103 44.8711 86.9687 43.2305L86.9687 43.2305Z" fill="black"/>
<path d="M116.369 55.8305L103.769 43.2305C102.128 41.5898 99.4707 41.5898 97.8301 43.2305C96.1895 44.8711 96.1895 47.5289 97.8301 49.1695L107.461 58.7995L97.8301 68.4305C96.1895 70.0711 96.1895 72.7289 97.8301 74.3695C98.6513 75.1889 99.7257 75.5995 100.8 75.5995C101.874 75.5995 102.949 75.1889 103.769 74.3686L116.369 61.7686C118.011 60.128 118.011 57.4711 116.369 55.8305V55.8305Z" fill="black"/>
<path d="M4.20002 25.2001H4.79628C5.19283 26.7254 5.79754 28.156 6.58128 29.4817L6.1519 29.9111C4.51128 31.5517 4.51128 34.2114 6.1519 35.8521C6.97221 36.6705 8.04658 37.0802 9.12094 37.0802C10.1953 37.0802 11.2697 36.6696 12.09 35.8492L12.5194 35.4199C13.8459 36.2027 15.2755 36.8074 16.8 37.2039V37.8002C16.8 40.1196 18.6787 42.0002 21 42.0002C23.3213 42.0002 25.2 40.1196 25.2 37.8002V37.2039C26.7244 36.8074 28.1542 36.2027 29.4797 35.4208L29.9091 35.8502C30.7294 36.6705 31.8037 37.0811 32.8781 37.0811C33.9525 37.0811 35.0268 36.6705 35.8471 35.853C37.4878 34.2124 37.4878 31.5527 35.8471 29.912L35.4187 29.4836C36.2024 28.1561 36.8062 26.7255 37.2037 25.2001H37.7999C40.1212 25.2001 41.9999 23.3195 41.9999 21.0001C41.9999 18.6807 40.1212 16.8001 37.7999 16.8001H37.2037C36.8071 15.2747 36.2024 13.8442 35.4187 12.5185L35.8471 12.09C37.4878 10.4494 37.4878 7.7897 35.8471 6.14906C34.2065 4.51312 31.5487 4.51032 29.9081 6.15093L29.4797 6.57938C28.154 5.79751 26.7245 5.19283 25.2 4.79626V4.2C25.2 1.88062 23.3212 0 21 0C18.6787 0 16.8 1.88062 16.8 4.2V4.79626C15.2756 5.19281 13.8458 5.79751 12.5203 6.57938L12.0909 6.15093C10.4512 4.50938 7.79347 4.51126 6.15187 6.14812C4.51126 7.78874 4.51126 10.4484 6.15187 12.0891L6.58032 12.5175C5.79751 13.8441 5.19377 15.2746 4.79626 16.8001H4.2C1.87874 16.8001 0 18.6807 0 21.0001C0 23.3195 1.87874 25.2001 4.2 25.2001L4.20002 25.2001ZM21 12.6001C25.6303 12.6001 29.4 16.3679 29.4 21.0001C29.4 25.6324 25.6303 29.4001 21 29.4001C16.3697 29.4001 12.6 25.6324 12.6 21.0001C12.6 16.3679 16.3697 12.6001 21 12.6001Z" fill="black"/>
<path d="M50.4002 25.1969H88.2002V33.5969C88.2002 35.9163 90.0789 37.7969 92.4002 37.7969C94.7215 37.7969 96.6002 35.9163 96.6002 33.5969V20.9969C96.6002 18.6775 94.7215 16.7969 92.4002 16.7969H50.4002C48.0789 16.7969 46.2002 18.6775 46.2002 20.9969C46.2002 23.3163 48.0789 25.1969 50.4002 25.1969Z" fill="black"/>
<path d="M92.3998 79.7969C90.0786 79.7969 88.1998 81.6775 88.1998 83.9969V96.5969H62.9998C60.6785 96.5969 58.7998 98.4775 58.7998 100.797C58.7998 103.116 60.6785 104.997 62.9998 104.997H92.3998C94.7211 104.997 96.5998 103.116 96.5998 100.797V83.9969C96.5998 81.6775 94.7211 79.7969 92.3998 79.7969Z" fill="black"/>
</svg>
