<svg xmlns="http://www.w3.org/2000/svg" xmlns:xlink="http://www.w3.org/1999/xlink" version="1.1" x="0px" y="0px" viewBox="0 0 100 125" style="enable-background:new 0 0 100 100;" xml:space="preserve"><path d="M28.124,69.992c1.238,5.194,4.046,9.783,8.132,13.284c2.127,1.81,3.299,4.217,3.299,6.777c0,2.728,2.219,4.947,4.947,4.947  H68.14c2.728,0,4.947-2.219,4.947-4.947v-0.479c0-1.801,0.7-3.524,1.923-4.73c3.396-3.358,5.138-7.597,5.485-13.417l0.481-22.654  c0.128-2.422-1.718-5.773-4.291-6.463c-0.665-0.178-1.328-0.269-1.971-0.269c-1.327,0-2.467,0.376-3.416,0.936  c-0.913-1.854-2.915-3.233-5.177-3.365l-1.17-0.084l-0.172-0.003c-1.689,0-3.018,0.831-3.971,1.749  c-1.218-1.827-3.524-2.979-5.546-2.979c-0.091,0-0.183,0.002-0.284,0.007l-0.901,0.05c-0.846,0.048-1.726,0.303-2.542,0.724  l-0.08-3.519c5.481-2.715,8.981-8.288,8.981-14.444c0-1.531-0.215-3.046-0.638-4.504c-0.231-0.795-1.063-1.255-1.859-1.022  c-0.795,0.231-1.253,1.063-1.022,1.859c0.344,1.186,0.519,2.42,0.519,3.667c0,4.524-2.323,8.662-6.058,11.051l-0.218-9.534  c-0.001-0.04-0.003-0.081-0.006-0.121c-0.333-3.977-3.394-6.438-6.039-6.438c-0.083,0-0.166,0.002-0.21,0.005l-1.331,0.047  c-3.197,0.179-5.848,3.85-5.776,6.645l-0.16,9.637c-1.572-0.935-2.94-2.189-4.011-3.695c-0.48-0.674-1.415-0.833-2.092-0.354  c-0.675,0.48-0.833,1.417-0.354,2.092c1.639,2.305,3.847,4.126,6.4,5.307l-0.351,21.084l-3.86-7.875  c-0.027-0.055-0.056-0.108-0.088-0.16c-1.797-2.952-5.064-4.786-8.525-4.786c-1.627,0-3.248,0.407-4.687,1.176  c-0.9,0.481-1.293,1.563-0.913,2.51L28.124,69.992z M24.76,48.017c2.078,0,3.964,1.043,5.064,2.794l5.495,11.209  c0.703,1.432,2.462,2.177,3.979,1.681c1.938-0.632,1.892-2.669,1.876-3.311l0.624-37.641c-0.027-1.063,1.253-2.593,1.96-2.633  l1.358-0.048c0.629,0,1.875,0.933,2.047,2.717l0.526,23.036c0.023,1,0.781,1.829,1.775,1.941c0.993,0.114,1.917-0.528,2.163-1.497  l0.433-1.714c0.038-0.148,0.058-0.3,0.061-0.452c0.014-0.748,1.199-1.7,2.181-1.756l0.96-0.051c1.079,0,2.332,0.971,2.401,1.654  c0.011,0.11,0.031,0.22,0.061,0.327l0.576,2.106c0.174,0.637,0.652,1.147,1.276,1.363c0.21,0.072,0.476,0.117,0.698,0.117  c0.881,0,2.001-0.469,2.466-2.638c0.366-0.605,1.227-1.699,1.998-1.702l1.123,0.082c0.985,0.058,1.938,0.81,1.963,1.574l0.104,2.277  c0.042,0.919,0.71,1.683,1.614,1.862c0.905,0.178,1.815-0.292,2.205-1.125c0.041-0.088,1.025-2.15,2.969-2.15  c0.293,0,0.607,0.044,0.934,0.132c0.464,0.126,1.38,1.511,1.331,2.452l-0.481,22.641c-0.281,4.701-1.648,8.112-4.299,10.733  c-1.979,1.95-3.113,4.711-3.113,7.576v0.479c0,0.522-0.425,0.947-0.947,0.947H44.501c-0.522,0-0.947-0.425-0.947-0.947  c0-3.698-1.716-7.279-4.702-9.82c-3.468-2.971-5.843-6.878-6.869-11.298c-0.023-0.101-0.054-0.199-0.093-0.294l-8.25-20.516  C24.01,48.054,24.385,48.017,24.76,48.017z"/><path d="M30.202,26.406c0.129,0,0.259-0.017,0.39-0.052c0.8-0.214,1.275-1.037,1.06-1.837c-0.296-1.104-0.446-2.25-0.446-3.406  C31.206,13.881,37.092,8,44.327,8c4.223,0,8.213,2.053,10.672,5.491c0.482,0.674,1.419,0.83,2.093,0.348s0.83-1.419,0.348-2.093  C54.417,7.522,49.516,5,44.327,5c-8.889,0-16.121,7.227-16.121,16.11c0,1.418,0.185,2.826,0.549,4.184  C28.934,25.964,29.54,26.406,30.202,26.406z"/><text x="0" y="115" fill="#000000" font-size="5px" font-weight="bold" font-family="'Helvetica Neue', Helvetica, Arial-Unicode, Arial, Sans-serif">Created by Maxim Kulikov</text><text x="0" y="120" fill="#000000" font-size="5px" font-weight="bold" font-family="'Helvetica Neue', Helvetica, Arial-Unicode, Arial, Sans-serif">from the Noun Project</text></svg>