<svg width="163" height="71" viewBox="0 0 163 71" fill="none" xmlns="http://www.w3.org/2000/svg">
<path d="M161.655 36.8443C160.843 34.7738 159.581 32.9071 157.958 31.3779C156.318 29.8618 154.381 28.6981 152.268 27.9596C150.032 27.1883 147.678 26.8074 145.311 26.8338C142.86 26.8048 140.421 27.1889 138.099 27.9698C136.968 28.3641 135.881 28.8744 134.856 29.4924C134.053 28.7168 133.086 28.1273 132.027 27.7664C131.749 26.1692 130.993 24.6922 129.858 23.5278C128.723 22.3635 127.262 21.5657 125.664 21.2385C126.121 19.7179 126.351 18.1389 126.347 16.552C126.332 12.3792 124.733 8.36551 121.87 5.31237C119.007 2.25923 115.09 0.391249 110.901 0.0813865C110.617 0.0294828 110.33 0.00225098 110.041 0L109.573 0H48.0098C44.8173 0.0821107 41.7167 1.0783 39.0804 2.86887L38.6708 3.16051C36.0451 5.00662 34.0196 7.57465 32.8431 10.549C31.6667 13.5233 31.3906 16.7743 32.0488 19.9024C31.4959 19.8023 30.9349 19.7524 30.3729 19.7532H9.0973C7.95979 19.721 6.82862 19.9321 5.78036 20.3721C4.73211 20.812 3.79125 21.4706 3.02149 22.3033C1.58105 23.8666 0.850586 25.9589 0.850586 28.5158C0.850586 31.0727 1.59129 33.1819 3.05221 34.7486C3.82008 35.5704 4.75479 36.2208 5.79453 36.6569C6.83427 37.093 7.95535 37.3048 9.08364 37.2784V51.1819C9.08364 54.6239 10.5821 56.7501 11.8382 57.9268C13.5825 59.5579 15.9582 60.3854 18.8971 60.3854C21.836 60.3854 24.2185 59.5613 25.9696 57.9438C26.0481 57.8692 26.1266 57.7946 26.2017 57.7166C27.3083 58.5878 28.5498 59.275 29.8779 59.7512C31.5718 60.353 33.3595 60.6527 35.1584 60.6363C36.8123 60.6673 38.4594 60.4184 40.0293 59.9004C40.5944 59.7048 41.1482 59.4784 41.6882 59.2222C42.3003 59.546 42.9428 59.8095 43.6065 60.009C44.655 60.3145 45.7429 60.4653 46.8356 60.4566C47.993 60.4676 49.145 60.297 50.2489 59.9513C51.2923 59.6187 52.2662 59.1005 53.123 58.4219C53.8268 58.8806 54.5746 59.2691 55.3553 59.5817C57.3301 60.3462 59.4388 60.7106 61.5574 60.6533V61.5824C61.5574 64.9735 63.0593 67.0862 64.3189 68.2527C66.0426 69.8432 68.3876 70.6536 71.2856 70.6536C74.1835 70.6536 76.5251 69.8432 78.2523 68.2493C79.5118 67.0862 81.0103 64.9837 81.0103 61.5824V59.3782C81.2458 59.4867 81.4847 59.5851 81.7236 59.68C85.0496 60.9364 88.7132 60.9976 92.0798 59.853C92.5285 59.6959 92.9684 59.5147 93.3974 59.3104C93.9458 59.6145 94.5261 59.8578 95.128 60.0361C96.1247 60.3297 97.1605 60.4714 98.2 60.4566C100.115 60.5114 102 59.9734 103.593 58.917C105.153 59.8937 107.078 60.3888 109.338 60.3888C112.236 60.3888 114.581 59.5783 116.305 57.9811C116.444 57.8522 116.584 57.7166 116.718 57.5708C118.943 59.5003 121.978 60.4735 125.756 60.4735C126.652 60.4784 127.547 60.4126 128.432 60.2769C129.244 60.1507 130.044 59.9544 130.822 59.6902C131.586 59.4301 132.319 59.0891 133.01 58.6729C133.438 58.4133 133.847 58.1219 134.232 57.8014C135.352 58.5417 136.559 59.143 137.826 59.5919C140.061 60.3665 142.415 60.7486 144.782 60.7211C147.235 60.7504 149.675 60.3651 151.998 59.5817C154.199 58.8334 156.211 57.6237 157.9 56.0346C159.567 54.4366 160.851 52.4859 161.655 50.3274C162.472 48.1183 162.876 45.7798 162.849 43.4265C162.871 41.1773 162.466 38.9443 161.655 36.8443Z" fill="#24272A"/>
<path d="M78.5039 36.2306C78.5039 34.9725 78.876 34.0026 79.6201 33.3142C80.3642 32.6258 81.5145 32.2969 83.0744 32.2969C84.6343 32.2969 85.7846 32.636 86.5287 33.3142C87.2729 33.9924 87.6415 34.9725 87.6415 36.2306V45.3492C87.6415 46.492 87.8327 47.2889 88.215 47.7501C88.4129 47.9787 88.6613 48.1588 88.9407 48.2764C89.2201 48.394 89.5231 48.446 89.8261 48.4284C90.0651 48.4292 90.303 48.3961 90.5326 48.33C90.7489 48.2677 90.9564 48.1789 91.1505 48.0655C91.3347 47.9627 91.5085 47.8423 91.6693 47.706C91.8209 47.5757 91.9646 47.4364 92.0994 47.2889C92.4 46.9443 92.6525 46.5611 92.8503 46.1495V36.2306C92.8503 34.9725 93.2224 34.0026 93.9631 33.3142C94.7038 32.6258 95.8575 32.2969 97.4174 32.2969C98.9773 32.2969 100.128 32.636 100.872 33.3142C101.616 33.9924 101.985 34.9725 101.985 36.2306V51.5753C101.985 52.8198 101.667 53.7592 101.025 54.3933C100.384 55.0274 99.4415 55.3462 98.1888 55.3462C97.6642 55.3569 97.1409 55.2906 96.6357 55.1495C96.2317 55.0358 95.853 54.8471 95.5196 54.5934C95.216 54.3552 94.9582 54.0645 94.7584 53.7354C94.556 53.4001 94.3901 53.0442 94.2635 52.674L94.1064 52.2128H94.0348C93.6379 52.8574 93.1226 53.4222 92.5158 53.8779C92.2206 54.103 91.9104 54.308 91.5874 54.4916C91.2092 54.7101 90.8102 54.8907 90.3961 55.0308C88.1897 55.7548 85.8015 55.7153 83.6206 54.9189C82.5851 54.5281 81.6517 53.9103 80.8899 53.1115C80.1087 52.2719 79.5144 51.2782 79.1456 50.1951C78.7158 48.9237 78.5069 47.5889 78.5278 46.2479L78.5039 36.2306Z" fill="white"/>
<path d="M9.09789 32.149C8.67911 32.1709 8.26049 32.1029 7.87055 31.9496C7.48062 31.7963 7.12852 31.5613 6.83824 31.2606C6.28527 30.6705 6.00879 29.7515 6.00879 28.5104C6.00879 27.2692 6.28186 26.3503 6.82459 25.7602C7.11667 25.4581 7.47104 25.2223 7.86342 25.0689C8.25579 24.9156 8.6769 24.8483 9.09789 24.8717H28.7384C29.16 24.8485 29.5816 24.9165 29.9742 25.0711C30.3667 25.2257 30.7207 25.4631 31.0117 25.767C31.5579 26.357 31.831 27.276 31.831 28.5172C31.831 29.7583 31.5715 30.6705 31.0015 31.2606C30.7106 31.5613 30.3579 31.7964 29.9674 31.9497C29.5769 32.103 29.1577 32.171 28.7384 32.149H23.5979V51.1799C23.5979 52.4821 23.2156 53.487 22.451 54.1946C21.6864 54.9022 20.502 55.2605 18.8977 55.2696C17.3048 55.2696 16.1317 54.9146 15.3785 54.2048C14.6253 53.4949 14.2464 52.49 14.2418 51.1901V32.149H9.09789Z" fill="white"/>
<path d="M40.7662 40.5894C40.7741 40.2792 40.7208 39.9704 40.6092 39.6806C40.4948 39.4122 40.2991 39.1858 40.0494 39.0329C39.7053 38.8336 39.3267 38.7001 38.9332 38.6395C38.3422 38.5417 37.7436 38.4975 37.1446 38.5072C36.3346 38.4959 35.5253 38.5618 34.7279 38.7039C34.1506 38.8166 33.5807 38.9639 33.0212 39.1448C32.5365 39.303 32.103 39.4488 31.7207 39.5822C31.3445 39.713 30.9486 39.7795 30.5499 39.7789C30.2115 39.7889 29.8746 39.7299 29.56 39.6057C29.2453 39.4815 28.9596 39.2946 28.7204 39.0566C28.463 38.7732 28.2655 38.4414 28.1395 38.0809C28.0134 37.7203 27.9614 37.3384 27.9865 36.9575C27.9755 36.5034 28.0592 36.052 28.2323 35.6316C28.4113 35.2328 28.665 34.8715 28.9798 34.5668C29.3867 34.1951 29.8468 33.8854 30.3451 33.6478C31.0393 33.2993 31.7665 33.0198 32.516 32.8136C33.4889 32.5466 34.4787 32.3449 35.4789 32.21C36.7232 32.0424 37.9779 31.962 39.2336 31.9692C42.7334 31.9692 45.3708 32.6474 47.1458 34.0039C48.9207 35.3603 49.8071 37.378 49.8048 40.057V45.7133C49.7899 46.5532 49.8482 47.3928 49.9789 48.2227C50.0747 48.7669 50.2035 49.3048 50.3646 49.8335C50.5045 50.2744 50.6342 50.6643 50.7503 51.0068C50.8747 51.3854 50.9346 51.782 50.9278 52.1802C50.9298 52.6056 50.8438 53.0269 50.6752 53.4179C50.5048 53.8113 50.2441 54.1597 49.914 54.4352C49.5358 54.7418 49.101 54.9722 48.634 55.1135C48.0482 55.2919 47.4375 55.3766 46.8249 55.3644C46.2388 55.3733 45.6546 55.2968 45.0909 55.1372C44.6157 54.9968 44.1629 54.7902 43.746 54.5234C43.3726 54.2817 43.0378 53.9856 42.7528 53.6451C42.4823 53.3278 42.253 52.978 42.0701 52.604H42.0018C41.577 53.1869 41.0455 53.685 40.4351 54.0724C39.7722 54.5012 39.0563 54.8432 38.3051 55.0897C37.2827 55.4123 36.2134 55.5635 35.1409 55.5373C33.9499 55.5548 32.7653 55.3619 31.6422 54.9676C30.6596 54.622 29.7583 54.0808 28.9934 53.3772C28.266 52.6993 27.6943 51.8734 27.3175 50.956C26.9187 49.9878 26.7191 48.95 26.7304 47.904C26.7115 46.878 26.995 45.869 27.5462 45.0012C28.1227 44.1317 28.8982 43.4101 29.8092 42.8953C30.889 42.2841 32.0596 41.8468 33.2772 41.5999C34.7167 41.2961 36.1851 41.1483 37.6566 41.1591C38.0833 41.1591 38.4792 41.1591 38.8479 41.2032L39.8411 41.2913C40.1825 41.3354 40.4897 41.3795 40.7696 41.4236L40.7662 40.5894ZM40.7662 46.1813C40.5887 46.1372 40.3805 46.0931 40.1484 46.049C39.9162 46.005 39.6944 45.9914 39.4076 45.9609C39.1209 45.9304 38.8069 45.9202 38.469 45.9202C37.8155 45.88 37.1636 46.0197 36.5848 46.3237C36.375 46.4486 36.2034 46.6279 36.0885 46.8424C35.9736 47.0569 35.9198 47.2985 35.9328 47.5411C35.9299 47.7739 35.9752 48.0048 36.066 48.2194C36.1501 48.4238 36.2823 48.6052 36.4517 48.7484C36.6359 48.9022 36.8495 49.0176 37.0797 49.0875C37.3666 49.1714 37.6647 49.2114 37.9638 49.2062C38.3818 49.2154 38.7977 49.1452 39.1892 48.9993C39.4986 48.8801 39.7911 48.7217 40.0596 48.5279C40.3251 48.3349 40.5628 48.1067 40.7662 47.8497V46.1813Z" fill="white"/>
<path d="M66.7287 57.3328C66.7287 56.6545 66.756 56.0068 66.8072 55.3795C66.8584 54.7521 66.9301 54.0705 67.0189 53.3448H66.9506C66.5538 53.7924 66.0842 54.1707 65.5613 54.4639C64.9954 54.7805 64.3954 55.033 63.7727 55.2167C62.9349 55.4596 62.0648 55.5739 61.1922 55.5558C59.8606 55.5737 58.538 55.3353 57.2976 54.8539C56.1432 54.397 55.114 53.6754 54.2938 52.748C53.4168 51.7293 52.7592 50.5429 52.3618 49.2619C51.8808 47.692 51.6504 46.0569 51.6792 44.416C51.6509 42.635 51.9469 40.8634 52.553 39.187C53.0963 37.699 53.9837 36.3586 55.1437 35.2736C56.3852 34.1588 57.853 33.3216 59.448 32.8185C61.3788 32.2166 63.3947 31.928 65.418 31.9639C66.6649 31.953 67.9111 32.0233 69.1488 32.1742C70.0471 32.283 70.936 32.4587 71.8078 32.6998C72.4165 32.8636 73.0032 33.0993 73.5555 33.4017C73.9265 33.602 74.2706 33.8481 74.5795 34.1342C74.7774 34.3319 74.9589 34.5451 75.1222 34.7718C75.2817 35.0002 75.4145 35.246 75.5182 35.5042C75.6367 35.8084 75.7214 36.1245 75.7707 36.447C75.833 36.8566 75.8627 37.2705 75.8595 37.6847V61.6055C75.8595 62.8648 75.4886 63.8369 74.7467 64.5219C74.0049 65.2069 72.8534 65.546 71.2924 65.5392C69.7313 65.5392 68.5799 65.2001 67.8381 64.5219C67.0962 63.8437 66.7242 62.8716 66.7219 61.6055L66.7287 57.3328ZM66.7287 39.0683C66.5819 39.0106 66.4147 38.9496 66.2235 38.8919C66.0237 38.84 65.8207 38.8004 65.616 38.7733C65.3414 38.7331 65.0641 38.7139 64.7865 38.7156C64.2494 38.7098 63.7166 38.8112 63.2198 39.014C62.7408 39.2192 62.3233 39.5439 62.008 39.9567C61.6415 40.4442 61.3748 40.9984 61.2229 41.5879C61.0254 42.3634 60.9336 43.1618 60.9499 43.9616C60.9361 44.6755 61.0025 45.3886 61.1478 46.0879C61.2468 46.5768 61.4329 47.0442 61.6974 47.468C61.9046 47.7936 62.1989 48.0554 62.5473 48.2243C62.8832 48.3784 63.2492 48.4571 63.6191 48.4548C63.8683 48.4566 64.1165 48.4235 64.3564 48.3565C64.5803 48.2943 64.7957 48.2055 64.9981 48.092C65.1866 47.9908 65.3639 47.8704 65.5272 47.7325C65.6789 47.6022 65.8225 47.4629 65.9573 47.3154C66.2599 46.968 66.5189 46.5854 66.7287 46.176V39.0683Z" fill="white"/>
<path d="M132.401 44.1305C132.374 42.3968 132.667 40.6728 133.265 39.0438C133.798 37.598 134.654 36.2905 135.767 35.2187C136.927 34.1354 138.309 33.3131 139.818 32.8076C141.589 32.2179 143.447 31.9324 145.314 31.9632C147.084 31.9361 148.845 32.2137 150.519 32.7838C151.967 33.2833 153.294 34.0754 154.417 35.1101C155.485 36.1233 156.312 37.3591 156.841 38.7284C157.417 40.2284 157.702 41.8232 157.681 43.4285C157.707 45.1622 157.415 46.8862 156.817 48.5152C156.283 49.9616 155.427 51.2701 154.315 52.3437C153.154 53.4269 151.772 54.2493 150.263 54.7548C148.493 55.3442 146.635 55.6297 144.768 55.5992C142.998 55.6269 141.236 55.3481 139.562 54.7751C138.12 54.2766 136.797 53.4855 135.678 52.4522C134.606 51.4415 133.774 50.2067 133.241 48.8373C132.664 47.3352 132.379 45.738 132.401 44.1305ZM141.672 43.7507C141.658 44.5375 141.747 45.3227 141.935 46.0871C142.076 46.66 142.324 47.2017 142.665 47.6844C142.943 48.0775 143.32 48.3919 143.757 48.5966C144.176 48.7863 144.632 48.8835 145.092 48.8814C145.538 48.8835 145.979 48.7862 146.382 48.5966C146.806 48.3906 147.17 48.0814 147.44 47.6979C147.774 47.2223 148.018 46.6903 148.161 46.1278C148.349 45.3796 148.437 44.61 148.423 43.8388C148.438 43.0565 148.349 42.2756 148.161 41.5159C148.018 40.9456 147.77 40.4064 147.43 39.9255C147.15 39.5313 146.775 39.214 146.338 39.0031C145.921 38.8064 145.465 38.7056 145.003 38.7081C144.557 38.7057 144.116 38.803 143.713 38.993C143.289 39.1978 142.925 39.5072 142.655 39.8916C142.322 40.3663 142.078 40.8971 141.935 41.4583C141.746 42.2077 141.658 42.9784 141.672 43.7507Z" fill="white"/>
<path d="M104.477 36.2306C104.477 34.9725 104.849 34.0026 105.589 33.3142C106.33 32.6258 107.484 32.2969 109.044 32.2969C110.604 32.2969 111.757 32.636 112.498 33.3142C113.239 33.9924 113.614 34.9725 113.614 36.2306V51.3142C113.614 52.5723 113.242 53.5421 112.498 54.2305C111.754 54.9189 110.604 55.2479 109.044 55.2479C107.484 55.2479 106.333 54.9087 105.589 54.2305C104.845 53.5523 104.477 52.5723 104.477 51.3142V36.2306Z" fill="white"/>
<path d="M117.515 38.9572C117.141 38.9737 116.767 38.9095 116.42 38.769C116.073 38.6285 115.761 38.4151 115.505 38.1434C115.006 37.6042 114.754 36.7869 114.754 35.7086C114.754 34.6302 115.006 33.8129 115.505 33.2704C115.762 32.9996 116.074 32.7871 116.421 32.6472C116.768 32.5074 117.141 32.4435 117.515 32.4599H118.573L119.522 29.4927C119.778 28.526 120.288 27.6445 121 26.9392C121.619 26.3808 122.494 26.1016 123.625 26.1016C124.82 26.1016 125.724 26.4135 126.356 27.0341C126.987 27.6547 127.295 28.5771 127.295 29.7911V32.4463H129.588C129.961 32.4334 130.332 32.5003 130.676 32.6425C131.019 32.7847 131.329 32.9988 131.582 33.2704C132.085 33.8129 132.335 34.6257 132.333 35.7086C132.333 36.7903 132.084 37.6042 131.582 38.1434C131.327 38.4154 131.015 38.629 130.668 38.7695C130.322 38.91 129.949 38.9741 129.575 38.9572H127.281V46.1837C127.24 46.7725 127.369 47.3607 127.653 47.8792C127.778 48.0585 127.947 48.2029 128.144 48.2985C128.342 48.3942 128.56 48.4378 128.779 48.4252C128.92 48.4255 129.06 48.4187 129.199 48.4049C129.332 48.3879 129.455 48.3709 129.575 48.3472L129.916 48.2828C130.04 48.2609 130.166 48.2496 130.292 48.2489C130.593 48.2459 130.891 48.3094 131.164 48.4349C131.437 48.5604 131.679 48.7448 131.872 48.9746C132.076 49.2197 132.236 49.4986 132.343 49.7986C132.465 50.1321 132.525 50.4848 132.52 50.8397C132.534 51.3803 132.437 51.9181 132.234 52.4199C132.022 52.8885 131.724 53.3131 131.353 53.6712C131.1 53.9186 130.818 54.1349 130.513 54.3155C130.141 54.5401 129.745 54.7232 129.332 54.8615C128.84 55.0283 128.334 55.1509 127.82 55.2278C127.207 55.3198 126.587 55.3641 125.967 55.36C123.275 55.36 121.296 54.7236 120.031 53.4508C118.766 52.178 118.133 50.166 118.133 47.4147V38.9369L117.515 38.9572Z" fill="white"/>
<path d="M66.2542 14.4587C54.6726 14.4587 49.3887 9.77896 46.8867 5.2688C47.4397 5.17724 47.9346 4.92969 48.5149 4.92969H48.7231H95.2918C92.7109 6.00354 90.1965 7.22876 87.7619 8.59886C82.1742 11.6136 76.8971 14.4587 66.2542 14.4587Z" fill="#D6832B"/>
<path d="M37.2813 16.334C37.2709 19.3216 38.4427 22.1936 40.5441 24.3307C42.6455 26.4679 45.5081 27.699 48.5147 27.7586H110.205C113.252 27.7586 116.174 26.556 118.329 24.4154C120.484 22.2747 121.694 19.3714 121.694 16.3441C121.694 13.3168 120.484 10.4135 118.329 8.2729C116.174 6.13228 113.252 4.92969 110.205 4.92969H110.153H110.13H110.109H108.713C98.7016 5.65199 94.4348 8.52087 89.2568 11.3151C83.5701 14.3875 77.6923 17.5615 66.2609 17.5615C53.4163 17.5514 46.8285 12.0307 43.7736 6.1064C41.834 7.03359 40.1963 8.48462 39.0482 10.2934C37.9 12.1022 37.2877 14.1956 37.2813 16.334Z" fill="#D6832B"/>
<path d="M99.8389 16.3279C99.8389 14.517 100.379 12.7468 101.392 11.2411C102.405 9.73538 103.844 8.56183 105.528 7.86884C107.212 7.17584 109.065 6.99452 110.853 7.34781C112.641 7.70109 114.283 8.57312 115.572 9.8536C116.861 11.1341 117.738 12.7655 118.094 14.5416C118.45 16.3177 118.267 18.1587 117.57 19.8317C116.872 21.5047 115.691 22.9347 114.175 23.9408C112.66 24.9468 110.878 25.4838 109.055 25.4838C106.611 25.4838 104.267 24.5192 102.538 22.8021C100.81 21.085 99.8389 18.7562 99.8389 16.3279Z" fill="#FFB600"/>
</svg>
