<svg xmlns="http://www.w3.org/2000/svg" xmlns:xlink="http://www.w3.org/1999/xlink" version="1.1" x="0px" y="0px" viewBox="0 0 100 125" enable-background="new 0 0 100 100" xml:space="preserve"><g><path d="M83.249,47.436c0.907,0,1.641-0.735,1.641-1.641V41.63h-3.283v4.165C81.608,46.702,82.342,47.436,83.249,47.436z"/><path d="M84.891,34.183c0-0.907-0.735-1.641-1.641-1.641s-1.641,0.735-1.641,1.641v4.165h3.283V34.183z"/><path d="M89.055,41.63c0.907,0,1.641-0.735,1.641-1.641c0-0.907-0.735-1.641-1.641-1.641h-4.165v3.283H89.055z"/><path d="M77.443,38.348c-0.907,0-1.641,0.735-1.641,1.641c0,0.907,0.735,1.641,1.641,1.641h4.165v-3.283H77.443z"/><path d="M43.064,93.359c0,0.907,0.735,1.641,1.641,1.641c0.907,0,1.641-0.735,1.641-1.641v-4.165h-3.283V93.359z"/><path d="M46.347,81.747c0-0.907-0.735-1.641-1.641-1.641c-0.907,0-1.641,0.735-1.641,1.641v4.165h3.283V81.747z"/><path d="M50.511,85.911h-4.165v3.283h4.165c0.907,0,1.641-0.735,1.641-1.641C52.153,86.646,51.418,85.911,50.511,85.911z"/><path d="M38.899,85.911c-0.907,0-1.641,0.735-1.641,1.641c0,0.907,0.735,1.641,1.641,1.641h4.165v-3.283H38.899z"/><path d="M38.605,55.762c-0.586-0.586-1.535-0.586-2.121,0L12.516,79.73c-0.586,0.585-0.586,1.536,0,2.121   c0.293,0.293,0.677,0.439,1.061,0.439s0.768-0.146,1.061-0.439l23.968-23.969C39.191,57.297,39.191,56.347,38.605,55.762z"/><path d="M41.903,61.181L17.935,85.149c-0.586,0.585-0.586,1.536,0,2.121c0.293,0.293,0.677,0.439,1.061,0.439   s0.768-0.146,1.061-0.439l23.968-23.969c0.586-0.585,0.586-1.536,0-2.121C43.438,60.595,42.489,60.595,41.903,61.181z"/><path d="M94.562,9.652l-4.214-4.214c-0.472-0.471-1.198-0.574-1.782-0.25l-13.114,7.277c-0.507,0.282-0.806,0.832-0.765,1.411   l0.334,4.771L52.512,41.155L39.816,28.459c2.177-6.367,0.576-13.421-4.226-18.223c-4.741-4.741-11.639-6.391-18.005-4.305   c-0.023,0.008-0.043,0.02-0.065,0.029c-0.023,0.009-0.044,0.02-0.067,0.03c-0.166,0.073-0.313,0.17-0.437,0.291   C17.009,6.286,17,6.288,16.994,6.294c-0.009,0.009-0.011,0.02-0.019,0.029c-0.123,0.129-0.221,0.276-0.291,0.438   c-0.01,0.022-0.017,0.043-0.026,0.065c-0.059,0.157-0.092,0.322-0.096,0.492c-0.001,0.024,0,0.046,0.001,0.069   c0.004,0.142,0.02,0.286,0.067,0.428c0.008,0.023,0.02,0.043,0.029,0.065c0.009,0.023,0.02,0.044,0.03,0.067   c0.073,0.165,0.17,0.312,0.29,0.436c0.007,0.007,0.008,0.016,0.015,0.023l6.857,6.858c0.645,0.644,1,1.499,1,2.408   c0,0.908-0.353,1.761-0.995,2.403l-3.439,3.439c-0.641,0.642-1.494,0.995-2.401,0.995c0,0-0.001,0-0.001,0   c-0.909,0-1.764-0.356-2.409-1l-6.857-6.857c-0.007-0.007-0.016-0.009-0.023-0.015c-0.124-0.12-0.271-0.217-0.436-0.289   c-0.023-0.01-0.045-0.021-0.069-0.03c-0.023-0.009-0.043-0.022-0.066-0.029c-0.141-0.046-0.284-0.063-0.426-0.067   c-0.024-0.001-0.046-0.002-0.069-0.001c-0.17,0.004-0.334,0.037-0.49,0.095c-0.024,0.009-0.046,0.017-0.069,0.027   c-0.16,0.07-0.306,0.167-0.434,0.288c-0.009,0.009-0.022,0.012-0.031,0.021C6.628,16.66,6.626,16.67,6.62,16.677   C6.5,16.8,6.404,16.946,6.331,17.111c-0.01,0.024-0.022,0.046-0.031,0.07c-0.009,0.023-0.021,0.042-0.029,0.066   c-2.079,6.369-0.43,13.268,4.305,18.003c3.39,3.39,7.902,5.189,12.505,5.189c1.915,0,3.843-0.332,5.715-0.971l8.541,8.542   c-0.196-0.022-0.389-0.058-0.59-0.058c-1.419,0-2.754,0.553-3.757,1.556L6.556,75.943C5.553,76.947,5,78.281,5,79.7   s0.553,2.753,1.556,3.757l9.988,9.988C17.547,94.447,18.881,95,20.301,95c1.419,0,2.753-0.553,3.757-1.556l26.435-26.435   c1.003-1.003,1.556-2.338,1.556-3.757c0-0.2-0.036-0.394-0.058-0.59l8.533,8.533c-2.177,6.371-0.575,13.427,4.228,18.229   c3.381,3.382,7.866,5.19,12.473,5.19c1.844,0,3.709-0.29,5.53-0.885c0.024-0.008,0.043-0.021,0.066-0.029   c0.023-0.009,0.044-0.02,0.067-0.03c0.166-0.073,0.313-0.17,0.437-0.29c0.007-0.006,0.016-0.008,0.022-0.015   c0.009-0.009,0.011-0.02,0.019-0.029c0.122-0.129,0.22-0.275,0.29-0.437c0.01-0.022,0.018-0.044,0.026-0.066   c0.059-0.156,0.092-0.321,0.096-0.492c0.001-0.024,0-0.046-0.001-0.07c-0.004-0.142-0.02-0.285-0.067-0.426   c-0.008-0.023-0.021-0.043-0.029-0.066c-0.009-0.023-0.02-0.045-0.03-0.068c-0.073-0.166-0.17-0.313-0.29-0.437   c-0.006-0.007-0.008-0.015-0.015-0.022l-6.857-6.857c-1.328-1.328-1.33-3.487-0.005-4.812l3.439-3.439   c1.326-1.325,3.484-1.322,4.812,0.005l6.857,6.857c0.006,0.006,0.015,0.008,0.022,0.014c0.124,0.12,0.272,0.218,0.437,0.291   c0.023,0.01,0.044,0.021,0.067,0.03c0.022,0.009,0.042,0.021,0.065,0.029c0.155,0.051,0.311,0.075,0.466,0.075   c0.179,0,0.35-0.04,0.514-0.101c0.049-0.018,0.091-0.046,0.138-0.069c0.118-0.058,0.226-0.129,0.326-0.217   c0.024-0.021,0.055-0.029,0.078-0.052c0.021-0.021,0.027-0.049,0.047-0.07c0.086-0.096,0.154-0.203,0.214-0.322   c0.025-0.051,0.058-0.096,0.077-0.149c0.007-0.018,0.02-0.032,0.026-0.05c2.086-6.365,0.436-13.264-4.305-18.005   c-4.801-4.801-11.856-6.402-18.223-4.226L58.845,47.488l22.509-22.509l4.771,0.334c0.035,0.002,0.07,0.003,0.105,0.003   c0.54,0,1.041-0.292,1.306-0.769l7.277-13.114C95.136,10.851,95.034,10.123,94.562,9.652z M30.28,36.724   c-0.411-0.436-1.059-0.601-1.648-0.362c-5.493,2.23-11.751,0.965-15.942-3.226c-3.323-3.323-4.808-7.928-4.152-12.468l4.955,4.955   c1.208,1.208,2.813,1.874,4.52,1.875c0.001,0,0.002,0,0.003,0c1.705,0,3.309-0.664,4.514-1.87l3.439-3.438   c1.207-1.207,1.871-2.811,1.87-4.518c-0.001-1.706-0.667-3.312-1.876-4.52l-4.956-4.957c4.538-0.659,9.142,0.827,12.47,4.154   c4.165,4.165,5.437,10.37,3.261,15.836c-0.11,0.064-0.225,0.119-0.319,0.214l-1.71,1.72c-0.582,0.585-0.579,1.531,0.007,2.113   c0.291,0.29,0.672,0.434,1.053,0.434c0.384,0,0.768-0.147,1.06-0.441l1.26-1.268l12.311,12.311l-2.945,2.944   c-0.846-0.63-1.856-0.986-2.928-0.986c-1.316,0-2.555,0.514-3.492,1.451l-0.401,0.401L30.28,36.724z M48.38,64.896L21.944,91.331   c-0.878,0.878-2.409,0.877-3.288,0l-9.988-9.988c-0.439-0.439-0.68-1.023-0.68-1.644s0.242-1.204,0.68-1.644L35.104,51.62   c0.439-0.439,1.023-0.681,1.644-0.681c0.618,0,1.2,0.241,1.638,0.676l9.993,9.993c0.439,0.439,0.681,1.022,0.681,1.643   C49.06,63.873,48.819,64.456,48.38,64.896z M51.209,56.852l-1.675,1.684l-8.06-8.061l0.214-0.215   c0.003-0.003,0.007-0.004,0.01-0.006c0.003-0.003,0.004-0.007,0.007-0.01l1.449-1.458c0.738-0.738,2.012-0.737,2.75,0l0.544,0.544   c0,0,0,0.001,0.001,0.001l4.22,4.22c0,0,0,0,0,0l0.546,0.546c0.369,0.369,0.572,0.857,0.572,1.375   C51.785,55.991,51.582,56.479,51.209,56.852z M70.099,62.968c0.001,0.001,0.002,0.002,0.002,0.002l0.004,0.004   c0.001,0.001,0.003,0.002,0.004,0.003c0.137,0.135,0.297,0.241,0.472,0.314c0.023,0.01,0.046,0.013,0.07,0.022   c0.154,0.055,0.315,0.091,0.481,0.094c0.01,0,0.019,0.006,0.029,0.006c0.023,0,0.045-0.012,0.069-0.013   c0.14-0.007,0.281-0.033,0.42-0.082c0.033-0.011,0.066-0.017,0.099-0.031c5.482-2.211,11.721-0.943,15.902,3.237   c3.327,3.327,4.814,7.933,4.155,12.47l-4.957-4.957c-2.492-2.492-6.547-2.496-9.038-0.005l-3.439,3.439   c-2.49,2.49-2.488,6.545,0.005,9.038l4.955,4.954c-4.54,0.656-9.145-0.829-12.468-4.152c-4.19-4.191-5.457-10.448-3.226-15.942   c0.012-0.029,0.016-0.058,0.026-0.088c0.212-0.072,0.413-0.178,0.581-0.348l1.71-1.72c0.582-0.585,0.579-1.531-0.007-2.113   c-0.585-0.582-1.531-0.579-2.113,0.007l-1.582,1.592l-9.332-9.332l0.405-0.405c0.933-0.933,1.447-2.172,1.447-3.488   c0-1.071-0.356-2.082-0.986-2.927l2.945-2.945L70.099,62.968z M85.384,22.266l-4.507-0.315c-0.026-0.002-0.05,0.002-0.075,0.001   c-0.017,0-0.034,0-0.051,0.001c-0.42,0-0.799,0.179-1.069,0.473L51.724,50.383l-2.107-2.107l27.998-27.997   c0.002-0.002,0.003-0.006,0.006-0.008c0.132-0.135,0.238-0.293,0.311-0.469c0.004-0.01,0.01-0.02,0.014-0.031   c0.063-0.16,0.096-0.332,0.1-0.512c0.001-0.021,0.002-0.042,0.002-0.063c0-0.025,0.004-0.048,0.002-0.073l-0.316-4.507   l11.297-6.268l2.621,2.621L85.384,22.266z"/></g><text x="0" y="115" fill="#000000" font-size="5px" font-weight="bold" font-family="'Helvetica Neue', Helvetica, Arial-Unicode, Arial, Sans-serif">Created by Maxim Kulikov</text><text x="0" y="120" fill="#000000" font-size="5px" font-weight="bold" font-family="'Helvetica Neue', Helvetica, Arial-Unicode, Arial, Sans-serif">from the Noun Project</text></svg>