<svg width="26" height="21" viewBox="0 0 26 21" fill="none" xmlns="http://www.w3.org/2000/svg">
<path d="M23.2388 5.7165C23.2546 5.93857 23.2546 6.16069 23.2546 6.38276C23.2546 13.1562 18.0992 20.9608 8.67661 20.9608C5.77368 20.9608 3.077 20.12 0.808594 18.6607C1.22104 18.7083 1.61758 18.7241 2.0459 18.7241C4.44116 18.7241 6.64614 17.9151 8.40693 16.5351C6.15439 16.4875 4.2667 15.0122 3.61631 12.9817C3.93359 13.0293 4.25083 13.061 4.58398 13.061C5.04399 13.061 5.50405 12.9976 5.93232 12.8866C3.58462 12.4106 1.82378 10.3485 1.82378 7.85801V7.79458C2.50586 8.17529 3.29907 8.41323 4.13975 8.44492C2.75967 7.52485 1.85552 5.95444 1.85552 4.17778C1.85552 3.22603 2.10928 2.35356 2.55347 1.59214C5.07568 4.70127 8.86694 6.73169 13.1182 6.95381C13.0389 6.5731 12.9913 6.17656 12.9913 5.77998C12.9913 2.95635 15.2755 0.65625 18.115 0.65625C19.5902 0.65625 20.9227 1.2749 21.8586 2.27427C23.0166 2.0522 24.127 1.62388 25.1105 1.03696C24.7298 2.22671 23.9208 3.22607 22.858 3.86055C23.8891 3.74956 24.8885 3.46396 25.8085 3.06743C25.1106 4.08262 24.2381 4.98677 23.2388 5.7165Z" fill="white"/>
</svg>
