<svg xmlns:xlink="http://www.w3.org/1999/xlink" xmlns="http://www.w3.org/2000/svg" class="block size-[40.421px]" fill="none" preserveAspectRatio="none" viewBox="0 0 41 41" width="41"  height="41" ><path d="M40.4198 29.3984C39.9921 30.1409 39.4662 30.8327 38.8442 31.4549C36.9878 33.3111 34.5198 34.3333 31.8948 34.3333H27.5977V40.4189H30.0678H31.8949C34.1721 40.4189 36.3129 39.5321 37.9231 37.9219C39.5333 36.3117 40.42 34.1708 40.4198 31.8939V29.3984Z" fill="#000000"></path><path d="M40.42 22.668C39.9923 23.4104 39.4664 24.1022 38.8443 24.7243C36.988 26.5806 34.52 27.6029 31.895 27.6029H20.2088C18.7083 27.6031 17.4922 28.8195 17.4922 30.32C17.4922 31.8205 18.7083 33.0369 20.2088 33.0371H31.8951C34.1722 33.0371 36.313 32.1505 37.9232 30.5403C39.5329 28.9306 40.4196 26.7903 40.42 24.5139V22.668ZM20.2095 31.3737C19.6274 31.3737 19.1556 30.9019 19.1556 30.3199C19.1556 29.738 19.6274 29.266 20.2095 29.266C20.7915 29.266 21.2633 29.738 21.2633 30.3199C21.2633 30.9019 20.7915 31.3737 20.2095 31.3737Z" fill="#000000"></path><path d="M40.4211 8.52499C40.4211 3.82422 36.5967 0 31.8959 0H8.52515C3.82435 0 0 3.82422 0 8.52499V31.8961C0 36.5969 3.82435 40.4211 8.52504 40.4211H26.2959V34.3356H20.2099C17.9897 34.3356 16.19 32.536 16.19 30.3159C16.19 28.0959 17.9897 26.2962 20.2099 26.2962H26.2959V20.2103H8.52504C4.53612 20.2103 1.30248 16.9772 1.30248 12.9883V8.52512C1.30248 4.53634 4.53612 1.30271 8.52504 1.30271H31.8958C35.8847 1.30271 39.1182 4.53634 39.1182 8.52512V12.9883C39.1182 16.9773 35.8849 20.2107 31.896 20.2107L27.5989 20.2103V26.2962H31.8962C34.1733 26.2962 36.3141 25.4095 37.9242 23.7993C39.5339 22.1896 40.4207 20.0494 40.4211 17.773V8.52499Z" fill="#000000"></path><path d="M31.8959 1.30078C35.8848 1.30078 39.1184 4.53437 39.1184 8.52324V12.9863C39.1184 16.9752 35.8849 20.2087 31.8961 20.2087L8.52513 20.2085C4.53628 20.2085 1.30261 16.9752 1.30261 12.9864V8.52327C1.30261 4.53437 4.53623 1.30078 8.52513 1.30078H31.8959Z" fill="#FFFFFF"></path><path d="M31.8957 4.71875C33.6135 4.71875 35.07 5.86031 35.5441 7.42517C35.6113 7.6474 35.4346 7.8677 35.2026 7.8583C31.9407 7.72609 28.8968 6.73512 26.2927 5.10444C26.1155 4.99346 26.1962 4.71875 26.4053 4.71875H31.8957Z" fill="#F74F18"></path><path d="M23.9959 5.08786C27.0667 7.46666 30.8616 8.95222 34.9889 9.15255C35.3895 9.17199 35.7063 9.49844 35.7063 9.89959V12.4714C35.7056 12.5247 35.704 12.6917 35.7011 12.8699C35.6966 13.1593 35.455 13.3868 35.1658 13.3776C28.2831 13.1554 22.1318 9.99116 17.9283 5.10554C17.7979 4.95385 17.9047 4.71875 18.1048 4.71875H22.9185C23.3088 4.71875 23.6874 4.84888 23.9959 5.08786Z" fill="#F74F18"></path><path d="M16.3784 5.27503C20.7989 10.7905 27.4977 14.4054 35.0348 14.6761C35.1644 14.6808 35.2438 14.8217 35.1777 14.9332C34.513 16.053 33.2909 16.8053 31.8964 16.8053H25.4229C25.178 16.8053 24.9349 16.759 24.7089 16.6648C19.0556 14.3081 14.2933 10.2261 11.0847 5.08001C10.9866 4.92276 11.1015 4.71875 11.2868 4.71875H15.2225C15.6725 4.71875 16.097 4.92397 16.3784 5.27503Z" fill="#F74F18"></path><path d="M8.52592 4.71875H8.98561C9.21237 4.71875 9.4206 4.8403 9.53522 5.03596C12.3476 9.83677 16.4302 13.8071 21.3199 16.4803C21.4775 16.5665 21.4164 16.8053 21.2368 16.8053H15.3076C14.6074 16.8053 13.9265 16.5621 13.3938 16.1079C10.2851 13.4574 7.64702 10.2691 5.6246 6.68889C5.4934 6.4566 5.5267 6.16464 5.70626 5.96733C6.40443 5.20022 7.40928 4.71875 8.52592 4.71875Z" fill="#F74F18"></path><path d="M11.757 16.4002C11.9139 16.542 11.8131 16.8023 11.6016 16.8023H8.48203C6.3992 16.7791 4.71289 15.0781 4.71289 12.9905V8.52754L4.71312 8.26905C4.71327 8.11582 4.91501 8.05919 4.99405 8.19046C6.83632 11.2505 9.12001 14.0167 11.757 16.4002Z" fill="#F74F18"></path></svg>