<svg width="66" height="53" viewBox="0 0 66 53" fill="none" xmlns="http://www.w3.org/2000/svg">
<path d="M52.8156 19.8266L51.9699 21.3119C51.6605 21.8624 51.0005 22.0909 50.4126 21.8728C49.1957 21.4158 48.0818 20.7614 47.102 19.9409C46.6276 19.5462 46.5039 18.8503 46.8133 18.3102L47.659 16.8249C46.9473 15.994 46.3904 15.0281 46.0191 13.979H44.3174C43.6986 13.979 43.1623 13.5324 43.0592 12.9092C42.8529 11.6628 42.8426 10.3541 43.0592 9.05579C43.1623 8.43259 43.6986 7.97559 44.3174 7.97559H46.0191C46.3904 6.92654 46.9473 5.96059 47.659 5.12967L46.8133 3.64439C46.5039 3.10429 46.6173 2.40839 47.102 2.0137C48.0818 1.19317 49.206 0.538815 50.4126 0.0818063C51.0005 -0.136311 51.6605 0.0921928 51.9699 0.64268L52.8156 2.12796C53.8985 1.93061 55.0021 1.93061 56.085 2.12796L56.9307 0.64268C57.2401 0.0921928 57.9001 -0.136311 58.488 0.0818063C59.705 0.538815 60.8188 1.19317 61.7986 2.0137C62.273 2.40839 62.3967 3.10429 62.0873 3.64439L61.2416 5.12967C61.9533 5.96059 62.5102 6.92654 62.8815 7.97559H64.5832C65.202 7.97559 65.7383 8.42221 65.8414 9.0454C66.0477 10.2918 66.058 11.6005 65.8414 12.8988C65.7383 13.522 65.202 13.979 64.5832 13.979H62.8815C62.5102 15.0281 61.9533 15.994 61.2416 16.8249L62.0873 18.3102C62.3967 18.8503 62.2833 19.5462 61.7986 19.9409C60.8188 20.7614 59.6946 21.4158 58.488 21.8728C57.9001 22.0909 57.2401 21.8624 56.9307 21.3119L56.085 19.8266C55.0124 20.024 53.8985 20.024 52.8156 19.8266ZM51.7327 13.7193C55.7034 16.7938 60.2309 12.2341 57.1782 8.23525C53.2076 5.15044 48.68 9.72053 51.7327 13.7193ZM39.8414 29.7043L43.317 31.4492C44.3587 32.0516 44.8125 33.3292 44.3999 34.4717C43.4821 36.9852 41.6772 39.291 40.0065 41.306C39.2433 42.2304 37.9232 42.4589 36.8815 41.8565L33.8803 40.1116C32.2302 41.5345 30.3119 42.6667 28.2183 43.4041V46.894C28.2183 48.0988 27.3623 49.1375 26.1866 49.3452C23.6495 49.7815 20.9886 49.8022 18.3587 49.3452C17.1727 49.1375 16.2961 48.1092 16.2961 46.894V43.4041C14.2025 42.6563 12.2842 41.5345 10.634 40.1116L7.63285 41.8461C6.60151 42.4485 5.27109 42.22 4.5079 41.2956C2.83714 39.2807 1.07356 36.9748 0.155669 34.4717C-0.256865 33.3395 0.196922 32.062 1.23857 31.4492L4.67292 29.7043C4.2707 27.5335 4.2707 25.3004 4.67292 23.1192L1.23857 21.3638C0.196922 20.7614 -0.267179 19.4839 0.155669 18.3517C1.07356 15.8382 2.83714 13.5324 4.5079 11.5174C5.27109 10.593 6.5912 10.3645 7.63285 10.9669L10.634 12.7119C12.2842 11.2889 14.2025 10.1568 16.2961 9.41932V5.91905C16.2961 4.72459 17.1418 3.68594 18.3175 3.47821C20.8546 3.04197 23.5257 3.0212 26.1556 3.46782C27.3417 3.67555 28.2183 4.70382 28.2183 5.91905V9.40893C30.3119 10.1568 32.2302 11.2785 33.8803 12.7015L36.8815 10.9565C37.9128 10.3541 39.2433 10.5826 40.0065 11.507C41.6772 13.522 43.4305 15.8278 44.3484 18.3414C44.7609 19.4735 44.3587 20.751 43.317 21.3638L39.8414 23.1088C40.2437 25.29 40.2437 27.5231 39.8414 29.7043ZM27.7129 31.8958C33.8185 23.8982 24.753 14.7684 16.8117 20.9172C10.7062 28.9149 19.7717 38.0447 27.7129 31.8958ZM52.8156 50.872L51.9699 52.3573C51.6605 52.9078 51.0005 53.1363 50.4126 52.9182C49.1957 52.4612 48.0818 51.8068 47.102 50.9863C46.6276 50.5916 46.5039 49.8957 46.8133 49.3556L47.659 47.8703C46.9473 47.0394 46.3904 46.0735 46.0191 45.0244H44.3174C43.6986 45.0244 43.1623 44.5778 43.0592 43.9546C42.8529 42.7082 42.8426 41.3995 43.0592 40.1012C43.1623 39.478 43.6986 39.021 44.3174 39.021H46.0191C46.3904 37.9719 46.9473 37.006 47.659 36.1751L46.8133 34.6898C46.5039 34.1497 46.6173 33.4538 47.102 33.0591C48.0818 32.2386 49.206 31.5842 50.4126 31.1272C51.0005 30.9091 51.6605 31.1376 51.9699 31.6881L52.8156 33.1734C53.8985 32.976 55.0021 32.976 56.085 33.1734L56.9307 31.6881C57.2401 31.1376 57.9001 30.9091 58.488 31.1272C59.705 31.5842 60.8188 32.2386 61.7986 33.0591C62.273 33.4538 62.3967 34.1497 62.0873 34.6898L61.2416 36.1751C61.9533 37.006 62.5102 37.9719 62.8815 39.021H64.5832C65.202 39.021 65.7383 39.4676 65.8414 40.0908C66.0477 41.3372 66.058 42.6459 65.8414 43.9442C65.7383 44.5674 65.202 45.0244 64.5832 45.0244H62.8815C62.5102 46.0735 61.9533 47.0394 61.2416 47.8703L62.0873 49.3556C62.3967 49.8957 62.2833 50.5916 61.7986 50.9863C60.8188 51.8068 59.6946 52.4612 58.488 52.9182C57.9001 53.1363 57.2401 52.9078 56.9307 52.3573L56.085 50.872C55.0124 51.0694 53.8985 51.0694 52.8156 50.872ZM51.7327 44.7544C55.7034 47.8288 60.2309 43.2691 57.1782 39.2703C53.2076 36.1958 48.68 40.7555 51.7327 44.7544Z" fill="black"/>
</svg>
