<svg width="87" height="58" viewBox="0 0 87 58" fill="none" xmlns="http://www.w3.org/2000/svg">
<path d="M77.5835 27.8433C77.5184 25.4096 76.7892 23.0399 75.476 20.9896C73.6932 18.3976 71.0784 16.4924 68.064 15.5914C67.544 11.6089 65.8865 8.56823 63.1279 6.54274C58.3381 3.02918 51.7339 3.73898 49.4913 4.11146C41.0947 -3.62483 31.0684 1.67285 28.7741 3.06426C23.6654 2.48604 19.5163 3.55557 16.4368 6.25194C12.0348 10.1058 11.2479 16.0637 11.107 18.162C7.64792 20.8677 4.85 24.3248 2.92556 28.2724C1.00112 32.2195 0.000994286 36.5534 0 40.9446V46.3428C0.00388393 49.4329 1.23315 52.3954 3.41786 54.5801C5.60305 56.7648 8.56552 57.9941 11.6551 57.9974H80.0831C81.9168 57.9955 83.6752 57.2658 84.972 55.9691C86.2688 54.6723 86.9985 52.9139 87.0004 51.0802V49.8034C87.0004 41.6836 83.2446 33.0024 77.5837 27.8433L77.5835 27.8433ZM18.3154 8.369C20.855 6.15373 24.4204 5.33369 28.9161 5.93275V5.93323C29.2676 5.9779 29.6234 5.89148 29.9152 5.68952C30.3274 5.39969 40.1091 -1.29186 48.0386 6.63282L48.0381 6.63331C48.3828 6.97461 48.878 7.11685 49.3513 7.01054C49.4251 6.99258 56.7895 5.38613 61.4614 8.82387C63.75 10.5099 65.058 13.1986 65.3473 16.8174H65.3478C65.4003 17.4544 65.8717 17.9782 66.4994 18.0967C69.1832 18.722 71.5422 20.313 73.1283 22.5661C74.8528 25.2077 75.2276 28.7183 74.2386 32.9998C74.1668 33.3178 74.2061 33.6508 74.3508 33.9431C74.3736 33.9883 76.5744 38.5228 75.046 42.5125H75.0465C74.1988 44.5448 72.5972 46.1702 70.578 47.0484C70.4538 46.3634 70.3907 45.6691 70.3897 44.973V40.9444C70.3809 33.2634 67.3258 25.8996 61.8941 20.4683C56.463 15.0371 49.0989 11.9824 41.4181 11.9741H28.9646C23.7907 11.9697 18.7116 13.3597 14.2616 15.9984C14.7563 13.0845 16.1789 10.4089 18.3165 8.36834L18.3154 8.369ZM63.4696 55.1638H11.6549C9.31584 55.1614 7.07285 54.2317 5.41873 52.578C3.76424 50.9239 2.83347 48.6819 2.83011 46.3424V40.9442C2.8306 36.9321 3.75594 32.9743 5.53382 29.3779C7.31223 25.7809 9.89501 22.6427 13.0827 20.2065C13.2599 20.1234 13.4182 20.0045 13.5478 19.8574C18.0172 16.5702 23.4212 14.8001 28.9692 14.8049H41.4164C48.3468 14.8127 54.9909 17.5693 59.8914 22.4694C64.792 27.37 67.5486 34.0139 67.5569 40.9445V44.9901C67.4622 48.9255 69.195 52.6831 72.2497 55.167L63.4696 55.1638ZM84.1694 51.0769H84.1689C84.1679 52.1605 83.7368 53.199 82.9707 53.9656C82.2041 54.7317 81.1657 55.1628 80.0821 55.1638H78.0867C75.2363 54.336 72.8448 52.3844 71.4626 49.7578C74.2965 48.599 76.5438 46.3473 77.6968 43.5115C79.3489 39.1668 77.724 34.6328 77.0996 33.1685C77.2089 32.6534 77.2885 32.1514 77.3657 31.6534V31.6529C81.6793 36.7252 84.0858 43.145 84.1688 49.8036L84.1694 51.0769Z" fill="black" stroke="black" stroke-width="1"/>
<path d="M25.6615 31.4931C26.0965 32.1427 26.9757 32.3165 27.6249 31.882C28.2744 31.447 28.4487 30.5683 28.0137 29.9187C26.9631 28.3486 25.1984 27.4062 23.3093 27.4062C21.4197 27.4062 19.6555 28.3486 18.6048 29.9187C18.1698 30.5683 18.3436 31.447 18.9932 31.882C19.6428 32.3165 20.522 32.1427 20.9565 31.4931C21.4818 30.7081 22.3644 30.2367 23.3093 30.2367C24.2541 30.2367 25.1361 30.7082 25.6615 31.4931H25.6615Z" fill="black" stroke="black" stroke-width="1"/>
<path d="M45.9523 27.4063C44.0618 27.4058 42.2966 28.3496 41.247 29.9215C40.8125 30.5711 40.9863 31.4499 41.6359 31.8849C42.2855 32.3194 43.1642 32.1456 43.5992 31.496C44.1245 30.711 45.0071 30.2396 45.952 30.2396C46.8967 30.2396 47.7788 30.711 48.3042 31.496C48.7392 32.1456 49.6179 32.3194 50.2675 31.8849C50.9171 31.4499 51.0909 30.5712 50.6564 29.9215C49.6073 28.3496 47.842 27.4053 45.9524 27.4063H45.9523Z" fill="black" stroke="black" stroke-width="1"/>
<path d="M43.2302 38.149C42.9005 37.9694 42.5131 37.9281 42.1528 38.0344C41.7931 38.1403 41.4897 38.3855 41.3105 38.7151C40.4046 40.3813 38.9374 41.6722 37.1693 42.3592C35.4016 43.0461 33.4476 43.084 31.6546 42.4665C29.8612 41.8494 28.345 40.6162 27.3745 38.9865C26.974 38.3155 26.1049 38.0961 25.434 38.4971C24.7631 38.8976 24.5436 39.7667 24.9446 40.4376C26.2574 42.6412 28.3086 44.3088 30.7341 45.1434C33.1597 45.9785 35.8021 45.927 38.1933 44.9982C40.5848 44.0695 42.5695 42.3236 43.7953 40.0705C43.9759 39.7409 44.0172 39.353 43.9113 38.9927C43.8055 38.632 43.5603 38.3286 43.2302 38.149L43.2302 38.149Z" fill="black" stroke="black" stroke-width="1"/>
</svg>
