<svg xmlns="http://www.w3.org/2000/svg" viewBox="0 0 100 125"><path d="M83.766 24.126H63.211V20.34c0-5.586-4.545-10.131-10.131-10.131h-6.16c-5.586 0-10.131 4.545-10.131 10.131v3.786H16.234C10.04 24.126 5 29.166 5 35.36v43.196c0 6.195 5.04 11.234 11.234 11.234h67.531C89.96 89.791 95 84.751 95 78.556V35.36c0-6.194-5.04-11.234-11.234-11.234zm-54.766 3h42.02V86.79H29V27.126zm-3 59.665h-5.333V27.126H26v59.665zm48.019-59.665h5.333V86.79h-5.333V27.126zm-34.23-6.785c0-3.932 3.199-7.131 7.131-7.131h6.16c3.932 0 7.131 3.199 7.131 7.131v3.786H39.789v-3.786zM8 78.556V35.36c0-4.54 3.694-8.234 8.234-8.234h1.432V86.79h-1.432C11.694 86.791 8 83.097 8 78.556zm84 0c0 4.541-3.694 8.234-8.234 8.234h-1.413V27.126h1.413c4.541 0 8.234 3.694 8.234 8.234v43.196z"/><path d="M66.376 44.958L61.395 31.9l-18.293 6.978 4.981 13.059 18.293-6.979zm-6.714-9.186l2.843 7.453-12.688 4.839-2.843-7.453 12.688-4.839zM33.345 73.104L55.716 83.49l7.304-15.731-22.371-10.386-7.304 15.731zm25.691-3.887l-4.777 10.289-16.929-7.86 4.777-10.289 16.929 7.86z"/><text y="115" font-size="5" font-weight="bold" font-family="'Helvetica Neue', Helvetica, Arial-Unicode, Arial, Sans-serif">Created by Maxim Kulikov</text><text y="120" font-size="5" font-weight="bold" font-family="'Helvetica Neue', Helvetica, Arial-Unicode, Arial, Sans-serif">from the Noun Project</text></svg>