<svg xmlns="http://www.w3.org/2000/svg" viewBox="0 0 100 125"><path d="M28.124 69.992c1.238 5.194 4.046 9.783 8.132 13.284 2.127 1.81 3.299 4.217 3.299 6.777A4.952 4.952 0 0044.502 95H68.14a4.952 4.952 0 004.947-4.947v-.479c0-1.801.7-3.524 1.923-4.73 3.396-3.358 5.138-7.597 5.485-13.417l.481-22.654c.128-2.422-1.718-5.773-4.291-6.463a7.638 7.638 0 00-1.971-.269 6.64 6.64 0 00-3.416.936c-.913-1.854-2.915-3.233-5.177-3.365l-1.17-.084-.172-.003c-1.689 0-3.018.831-3.971 1.749-1.218-1.827-3.524-2.979-5.546-2.979-.091 0-.183.002-.284.007l-.901.05c-.846.048-1.726.303-2.542.724l-.08-3.519a16.114 16.114 0 008.981-14.444c0-1.531-.215-3.046-.638-4.504a1.5 1.5 0 00-2.881.837 13.16 13.16 0 01.519 3.667c0 4.524-2.323 8.662-6.058 11.051l-.218-9.534a2.45 2.45 0 00-.006-.121c-.333-3.977-3.394-6.438-6.039-6.438-.083 0-.166.002-.21.005l-1.331.047c-3.197.179-5.848 3.85-5.776 6.645l-.16 9.637a13.197 13.197 0 01-4.011-3.695 1.502 1.502 0 00-2.092-.354 1.502 1.502 0 00-.354 2.092 16.177 16.177 0 006.4 5.307l-.351 21.084-3.86-7.875a1.909 1.909 0 00-.088-.16 10.037 10.037 0 00-8.525-4.786 9.98 9.98 0 00-4.687 1.176 2.001 2.001 0 00-.913 2.51l8.967 22.288zM24.76 48.017a5.936 5.936 0 015.064 2.794l5.495 11.209c.703 1.432 2.462 2.177 3.979 1.681 1.938-.632 1.892-2.669 1.876-3.311l.624-37.641c-.027-1.063 1.253-2.593 1.96-2.633l1.358-.048c.629 0 1.875.933 2.047 2.717l.526 23.036a2 2 0 003.938.444l.433-1.714c.038-.148.058-.3.061-.452.014-.748 1.199-1.7 2.181-1.756l.96-.051c1.079 0 2.332.971 2.401 1.654.011.11.031.22.061.327l.576 2.106a2.001 2.001 0 001.276 1.363c.21.072.476.117.698.117.881 0 2.001-.469 2.466-2.638.366-.605 1.227-1.699 1.998-1.702l1.123.082c.985.058 1.938.81 1.963 1.574l.104 2.277c.042.919.71 1.683 1.614 1.862a2.013 2.013 0 002.205-1.125c.041-.088 1.025-2.15 2.969-2.15.293 0 .607.044.934.132.464.126 1.38 1.511 1.331 2.452L76.5 71.264c-.281 4.701-1.648 8.112-4.299 10.733-1.979 1.95-3.113 4.711-3.113 7.576v.479a.948.948 0 01-.947.947h-23.64a.948.948 0 01-.947-.947c0-3.698-1.716-7.279-4.702-9.82-3.468-2.971-5.843-6.878-6.869-11.298a1.86 1.86 0 00-.093-.294l-8.25-20.516c.37-.07.745-.107 1.12-.107z"/><path d="M30.202 26.406a1.5 1.5 0 001.45-1.889 13.156 13.156 0 01-.446-3.406C31.206 13.881 37.092 8 44.327 8a13.15 13.15 0 0110.672 5.491 1.5 1.5 0 102.441-1.745A16.16 16.16 0 0044.327 5c-8.889 0-16.121 7.227-16.121 16.11 0 1.418.185 2.826.549 4.184a1.5 1.5 0 001.447 1.112z"/><text y="115" font-size="5" font-weight="bold" font-family="'Helvetica Neue', Helvetica, Arial-Unicode, Arial, Sans-serif">Created by Maxim Kulikov</text><text y="120" font-size="5" font-weight="bold" font-family="'Helvetica Neue', Helvetica, Arial-Unicode, Arial, Sans-serif">from the Noun Project</text></svg>