<svg xmlns="http://www.w3.org/2000/svg" xmlns:xlink="http://www.w3.org/1999/xlink" width="200" height="200" viewBox="0 0 200 200"><rect width="100%" height="100%" fill="#fff"/><svg xmlns="http://www.w3.org/2000/svg" viewBox="0 0 100 100" transform="matrix(.69 0 0 .69 15.5 15.5)" fill="#24292e"><path d="M83.249 47.436a1.64 1.64 0 001.641-1.641V41.63h-3.283v4.165a1.642 1.642 0 001.642 1.641zm1.642-13.253a1.64 1.64 0 10-3.282 0v4.165h3.283v-4.165z"/><path d="M89.055 41.63a1.64 1.64 0 100-3.282H84.89v3.283h4.165zm-11.612-3.282a1.64 1.64 0 100 3.282h4.165v-3.283h-4.165zM43.064 93.359a1.64 1.64 0 103.282 0v-4.165h-3.283v4.165zm3.283-11.612a1.64 1.64 0 10-3.282 0v4.165h3.283v-4.165z"/><path d="M50.511 85.911h-4.165v3.283h4.165a1.64 1.64 0 100-3.283zm-11.612 0a1.64 1.64 0 100 3.282h4.165V85.91h-4.165zm-.294-30.149a1.5 1.5 0 00-2.121 0L12.516 79.73a1.5 1.5 0 102.122 2.121l23.968-23.969a1.499 1.499 0 00-.001-2.12zm3.298 5.419L17.935 85.149a1.5 1.5 0 102.122 2.121l23.968-23.969a1.5 1.5 0 10-2.122-2.12z"/><path d="M94.562 9.652l-4.214-4.214a1.495 1.495 0 00-1.782-.25l-13.114 7.277a1.495 1.495 0 00-.765 1.411l.334 4.771-22.509 22.508-12.696-12.696a17.65 17.65 0 00-4.226-18.223c-4.741-4.741-11.639-6.391-18.005-4.305-.023.008-.043.02-.065.029-.023.009-.044.02-.067.03-.166.073-.313.17-.437.291-.007.005-.016.007-.022.013-.009.009-.011.02-.019.029a1.489 1.489 0 00-.291.438c-.01.022-.017.043-.026.065a1.494 1.494 0 00-.096.492c-.001.024 0 .046.001.069.004.142.02.286.067.428.008.023.02.043.029.065.009.023.02.044.03.067.073.165.17.312.29.436.007.007.008.016.015.023l6.857 6.858a3.38 3.38 0 011 2.408c0 .908-.353 1.761-.995 2.403l-3.439 3.439a3.37 3.37 0 01-2.401.995h-.001a3.389 3.389 0 01-2.409-1l-6.857-6.857c-.007-.007-.016-.009-.023-.015a1.467 1.467 0 00-.436-.289c-.023-.01-.045-.021-.069-.03-.023-.009-.043-.022-.066-.029a1.496 1.496 0 00-.426-.067c-.024-.001-.046-.002-.069-.001-.17.004-.334.037-.49.095l-.069.027c-.16.07-.306.167-.434.288-.009.009-.022.012-.031.021-.008.008-.01.018-.016.025-.12.123-.216.269-.289.434-.01.024-.022.046-.031.07-.009.023-.021.042-.029.066-2.079 6.369-.43 13.268 4.305 18.003a17.664 17.664 0 0012.505 5.189c1.915 0 3.843-.332 5.715-.971l8.541 8.542c-.196-.022-.389-.058-.59-.058a5.28 5.28 0 00-3.757 1.556L6.556 75.943C5.553 76.947 5 78.281 5 79.7s.553 2.753 1.556 3.757l9.988 9.988A5.281 5.281 0 0020.301 95a5.282 5.282 0 003.757-1.556l26.435-26.435a5.28 5.28 0 001.556-3.757c0-.2-.036-.394-.058-.59l8.533 8.533a17.657 17.657 0 004.228 18.229 17.602 17.602 0 0012.473 5.19c1.844 0 3.709-.29 5.53-.885.024-.008.043-.021.066-.029.023-.009.044-.02.067-.03.166-.073.313-.17.437-.29.007-.006.016-.008.022-.015.009-.009.011-.02.019-.029a1.5 1.5 0 00.412-.995c.001-.024 0-.046-.001-.07a1.462 1.462 0 00-.067-.426c-.008-.023-.021-.043-.029-.066-.009-.023-.02-.045-.03-.068a1.481 1.481 0 00-.29-.437c-.006-.007-.008-.015-.015-.022l-6.857-6.857a3.407 3.407 0 01-.005-4.812l3.439-3.439a3.408 3.408 0 014.812.005l6.857 6.857c.006.006.015.008.022.014.124.12.272.218.437.291.023.01.044.021.067.03.022.009.042.021.065.029.155.051.311.075.466.075.179 0 .35-.04.514-.101.049-.018.091-.046.138-.069a1.47 1.47 0 00.326-.217c.024-.021.055-.029.078-.052.021-.021.027-.049.047-.07.086-.096.154-.203.214-.322.025-.051.058-.096.077-.149.007-.018.02-.032.026-.05 2.086-6.365.436-13.264-4.305-18.005a17.654 17.654 0 00-18.223-4.226L58.845 47.488l22.509-22.509 4.771.334.105.003c.54 0 1.041-.292 1.306-.769l7.277-13.114a1.494 1.494 0 00-.251-1.781zM30.28 36.724a1.491 1.491 0 00-1.648-.362 14.688 14.688 0 01-15.942-3.226 14.618 14.618 0 01-4.152-12.468l4.955 4.955a6.356 6.356 0 004.52 1.875h.003a6.34 6.34 0 004.514-1.87l3.439-3.438a6.341 6.341 0 001.87-4.518 6.355 6.355 0 00-1.876-4.52l-4.956-4.957a14.61 14.61 0 0112.47 4.154 14.675 14.675 0 013.261 15.836c-.11.064-.225.119-.319.214l-1.71 1.72a1.493 1.493 0 102.12 2.106l1.26-1.268L50.4 43.268l-2.945 2.944a4.88 4.88 0 00-2.928-.986 4.906 4.906 0 00-3.492 1.451l-.401.401L30.28 36.724zm18.1 28.172L21.944 91.331c-.878.878-2.409.877-3.288 0l-9.988-9.988c-.439-.439-.68-1.023-.68-1.644s.242-1.204.68-1.644L35.104 51.62a2.31 2.31 0 011.644-.681c.618 0 1.2.241 1.638.676l9.993 9.993c.439.439.681 1.022.681 1.643 0 .622-.241 1.205-.68 1.645zm2.829-8.044l-1.675 1.684-8.06-8.061.214-.215c.003-.003.007-.004.01-.006l.007-.01 1.449-1.458c.738-.738 2.012-.737 2.75 0l.544.544.001.001 4.22 4.22.546.546c.369.369.572.857.572 1.375a1.947 1.947 0 01-.578 1.38zm18.89 6.116l.002.002.004.004.004.003c.137.135.297.241.472.314.023.01.046.013.07.022.154.055.315.091.481.094.01 0 .019.006.029.006.023 0 .045-.012.069-.013.14-.007.281-.033.42-.082.033-.011.066-.017.099-.031a14.682 14.682 0 0115.902 3.237 14.61 14.61 0 014.155 12.47l-4.957-4.957c-2.492-2.492-6.547-2.496-9.038-.005l-3.439 3.439c-2.49 2.49-2.488 6.545.005 9.038l4.955 4.954a14.618 14.618 0 01-12.468-4.152 14.688 14.688 0 01-3.226-15.942c.012-.029.016-.058.026-.088.212-.072.413-.178.581-.348l1.71-1.72a1.493 1.493 0 10-2.12-2.106l-1.582 1.592-9.332-9.332.405-.405a4.902 4.902 0 001.447-3.488 4.877 4.877 0 00-.986-2.927l2.945-2.945 13.367 13.366zm15.285-40.702l-4.507-.315c-.026-.002-.05.002-.075.001l-.051.001c-.42 0-.799.179-1.069.473L51.724 50.383l-2.107-2.107 27.998-27.997c.002-.002.003-.006.006-.008.132-.135.238-.293.311-.469l.014-.031a1.48 1.48 0 00.1-.512l.002-.063c0-.025.004-.048.002-.073l-.316-4.507 11.297-6.268 2.621 2.621-6.268 11.297z"/></svg></svg>