<svg xmlns="http://www.w3.org/2000/svg" viewBox="0 0 448.1 91.1"><style>.st0{fill:#2c7df7}</style><path class="st0" d="M103.7 74.5c-16 0-29-12.9-29.1-28.9s12.9-29 28.9-29.1c15.3 0 27.9 11.8 29 27v.6h16.6v-.7C148 19.1 128 0 103.7 0c-1.1 0-2.2 0-3.3.1H0V15h29v75h16.2V15H70c-17 18.6-15.6 47.4 3.1 64.3 8.4 7.6 19.3 11.8 30.6 11.8h2.3V74.5h-2.3z"/><path class="st0" d="M128.5 59.6l-8.2 10.3 22.4 18.6 8.2-10.1-22.4-18.8z"/><path d="M207.5 87c-5 0-9-1.6-11.8-4.8s-4.3-7.7-4.3-13.3V34.7h-11.1v-4.2h11.1V12h4.6v18.5h20.4v4.2H196V68c0 5 1 8.7 3 11.1 2 2.4 5 3.6 9.1 3.6 1.3 0 2.6-.2 3.9-.5 1.5-.4 2.9-.8 4.3-1.4l1 4.1c-1.6.7-3.2 1.2-4.9 1.6-1.7.3-3.3.5-4.9.5zm64.7-11.8c-1.5 4.3-3.9 7.3-7 9.2-3.1 1.9-7.5 2.8-13.3 2.8-6.6 0-11.8-1.8-15.4-5.3s-5.5-8.8-5.5-15.8v-15c0-7.2 1.9-12.5 5.8-16.1 3.9-3.6 8.9-5.3 15.2-5.3 6.2 0 11.3 1.8 15.1 5.4 3.8 3.6 5.7 9.1 5.7 16.6v7.2h-37.1v7.2c0 5.9 1.3 10.2 4 12.9s6.7 4 12.2 4c4.9 0 8.4-.7 10.6-2.2 2.4-1.8 4.2-4.3 5.2-7.1l4.5 1.5zm-36.5-24.1V55h32.4v-3.1c0-6.2-1.4-10.8-4.1-13.7-2.7-2.9-6.8-4.3-12.2-4.3-5.4 0-9.4 1.4-12.1 4.2-2.6 2.8-4 7.1-4 13zm93.5 35.1h-38V82L324 34.7h-32.8v-4.2h38v4.2L296.3 82h32.9v4.2zm39.3.9c-6.7 0-11.9-1.8-15.5-5.4s-5.4-8.8-5.4-15.6v-15c0-6.9 1.8-12.2 5.4-15.9 3.6-3.7 8.8-5.5 15.5-5.5 6.7 0 11.8 1.8 15.4 5.5 3.6 3.7 5.4 9 5.4 15.9v15c0 6.8-1.8 12-5.4 15.6-3.5 3.6-8.7 5.4-15.4 5.4zm0-4.1c5.6 0 9.7-1.4 12.3-4.1 2.6-2.7 3.9-7 3.9-12.8v-15c0-5.9-1.3-10.2-3.9-13-2.6-2.8-6.7-4.2-12.3-4.2-5.6 0-9.7 1.4-12.3 4.2-2.6 2.8-3.9 7.1-3.9 13v15c0 5.8 1.3 10 3.9 12.8 2.6 2.7 6.7 4.1 12.3 4.1zm59.9 4.1c-4.4 0-8.8-.7-13-2-4.2-1.3-8.1-3.5-11.5-6.2l2.4-3.8c3.1 2.6 6.6 4.5 10.3 5.9 3.8 1.3 7.7 2 11.7 2 4.7 0 8.4-1 11-2.9 2.6-1.8 4.1-4.7 4-7.9.2-2.9-1.2-5.7-3.6-7.3-2.4-1.6-7-3-13.8-4.3-7.1-1.3-12.3-3.2-15.4-5.6-3.1-2.3-4.8-6-4.7-9.9-.1-4.3 1.6-8.4 4.9-11.2 3.3-2.8 7.5-4.2 12.8-4.2 3.9 0 7.8.7 11.5 2.1 3.7 1.4 7.1 3.4 10.2 5.8l-2.2 3.6c-2.8-2.2-5.9-3.9-9.2-5.3-3.3-1.4-6.8-2.1-10.3-2.1-4.1 0-7.3.9-9.6 2.8-2.3 1.8-3.6 4.6-3.5 7.6 0 3.6 1.2 6.2 3.6 7.9 2.4 1.7 7 3.1 13.8 4.2 7.2 1.2 12.3 3 15.5 5.4 3.1 2.3 4.9 6.1 4.7 10 .1 4.4-1.9 8.6-5.4 11.2-3.5 2.8-8.3 4.2-14.2 4.2z" fill="#fff"/></svg>